<svg version="1" xmlns="http://www.w3.org/2000/svg" width="933.333" height="933.333" viewBox="0 0 700.000000 700.000000"><path d="M201.6 178c-80.8 46.7-147.3 85.3-147.8 85.8s62.1 37.2 147.7 86.6L350 436.2l37-21.4c20.3-11.7 37-21.6 37-21.9 0-.4-49.7-29.3-110.5-64.4-86.9-50.2-110.3-64.1-109.3-65 .7-.7 33.8-19.9 73.5-42.9L350 179l110.2 63.7c60.7 35 111.2 63.7 112.3 63.8 1.1 0 18.3-9.4 38.3-20.9 28.6-16.5 36-21.2 35-22.1-2.4-2.2-294.7-170.5-296-170.4-.7 0-67.4 38.2-148.2 84.9z"/><path d="M349.8 263.8c-15.7 9.2-28.8 17-29 17.4-.4 1.1 58.4 34.9 59.7 34.4 4.1-1.7 57.7-33.4 57.7-34.1.1-1-57.1-34.5-58.7-34.4-.5 0-13.9 7.6-29.7 16.7zM89.2 414.2c-28.5 16.6-36 21.4-35 22.3C56.2 438.4 348.8 607 350 607c1.2 0 293.8-168.6 295.8-170.5 1-.9-6.4-5.6-35-22.1-20-11.5-37.2-20.9-38.3-20.9-1.1.1-51.6 28.8-112.2 63.8L350 521l-110.2-63.7c-60.7-35-111.2-63.8-112.3-63.9-1.1-.2-17.6 8.8-38.3 20.8z"/></svg>