<?xml version="1.0" encoding="UTF-8" standalone="no"?>
<svg
   viewBox="0 0 16.661896 16.661968"
   height="62.973877"
   width="62.973877"
   version="1.1"
   id="svg3"
   sodipodi:docname="adaway.svg"
   inkscape:version="1.4 (86a8ad7, 2024-10-11)"
   xmlns:inkscape="http://www.inkscape.org/namespaces/inkscape"
   xmlns:sodipodi="http://sodipodi.sourceforge.net/DTD/sodipodi-0.dtd"
   xmlns="http://www.w3.org/2000/svg"
   xmlns:svg="http://www.w3.org/2000/svg">
  <defs
     id="defs3" />
  <sodipodi:namedview
     id="namedview3"
     pagecolor="#ffffff"
     bordercolor="#000000"
     borderopacity="0.25"
     inkscape:showpageshadow="2"
     inkscape:pageopacity="0.0"
     inkscape:pagecheckerboard="0"
     inkscape:deskcolor="#d1d1d1"
     inkscape:zoom="1.7905915"
     inkscape:cx="291.80302"
     inkscape:cy="184.01741"
     inkscape:window-width="2560"
     inkscape:window-height="1387"
     inkscape:window-x="2552"
     inkscape:window-y="-8"
     inkscape:window-maximized="1"
     inkscape:current-layer="g3" />
  <g
     transform="matrix(0.264583,0,0,0.264583,-5.5753609e-4,-3.9137314e-4)"
     id="g3">
    <g
       transform="matrix(2.699471,0,0,2.699471,-0.906184,-2758.0434)"
       id="g2">
      <path
         d="m 16.297,1043.776 -8.622,-0.012 -6.088,-6.105 0.012,-8.622 6.105,-6.088 8.622,0.012 6.088,6.105 -0.012,8.622 z"
         fill="#b71c1c"
         stroke="#b71c1c"
         stroke-width="2.5"
         id="path1" />
      <path
         d="m 5.388,1028.257 c -0.642,-0.78 2.14,0.73 5.588,0.74 1.44,0.088 1.983,0.505 2.387,0.928 0.906,0.854 1.103,1.287 2.25,0.735 0.467,-0.225 1.042,-1.556 1.7,-1.7 0.506,-0.074 1.247,0.564 1.433,0.748 0.203,0.2 0.387,0.386 0.58,0.475 -0.665,0.036 -1.587,1.588 -1.6,2.907 0.133,3.685 -1.526,3.48 -3.158,5.284 -0.52,0.496 -0.812,1.534 -0.812,2.482 l -0.685,-0.02 c -0.406,0.01 -0.87,-0.52 -1.094,-0.873 -0.43,-0.715 -0.872,0.655 -1.54,-0.467 0.03,-0.37 -1.78,-0.443 -0.74,-1.3 2.46,-1.74 3.66,-2.107 3.608,-2.63 -0.06,-0.62 -1.502,-0.06 -2.804,-0.12 -2.15,-0.1 -1.914,-1.462 -2.105,-2.097 -1.806,-1.005 1.388,-1.478 -0.014,-1.775 -0.685,-0.1 -1.894,0.146 -2.15,-1.04 0.23,0.283 3.227,-0.296 2.02,-0.485 -1.677,-0.76 -2.148,-0.353 -2.844,-1.783 z"
         fill="#eceff1"
         id="path2" />
      <circle
         r="0.25400001"
         cy="1030.139"
         cx="17.593"
         paint-order="markers stroke fill"
         id="circle2" />
    </g>
  </g>
</svg>
