<svg xmlns="http://www.w3.org/2000/svg" width="933.333" height="933.333" viewBox="0 0 700 700" preserveAspectRatio="xMidYMid meet" fill="#2563EB"><path d="M351.5 33c-5.9 1-10.6 3.3-14.6 7.2-4.2 4-4.6 4.9-16.9 33.8-8.6 20.3-29.9 62.6-40.5 80.5-7.4 12.6-19.9 32.3-22.7 36-.5.5-4.7 6.1-9.4 12.3-18.7 24.7-40.8 44.5-73.2 65.6-29.9 19.5-77.6 43.8-122.2 62.2-6.9 2.8-10.6 5.1-13.6 8.1-8.2 8.3-10.3 22.8-4.9 33.4 3.9 7.9 6.7 10.1 18.5 15.2 37.1 15.9 72.9 33 88.8 42.4 4.1 2.4 7.5 4.3 7.7 4.3.8 0 23.9 14.2 32.2 19.8 35.2 23.7 56.1 44.5 79.8 79.2 6.6 9.6 20.5 31.9 20.5 32.7 0 .3 1.4 2.9 3.2 5.7 8.4 13.6 31.1 60.7 43.8 91 4.9 11.6 6.9 14.6 12.2 18.1 12.7 8.4 31.7 5.4 39.9-6.3 1.4-2 4.3-8 6.4-13.2s5.1-12.2 6.6-15.5L401 628c6.5-14.3 16.8-35.2 18.1-36.5.5-.5.9-1.6.9-2.4s.6-2.2 1.4-3c.7-.9 2.9-4.5 4.7-8.1 6.4-12.6 31.9-53.4 34.9-56 .3-.3 1.7-2.1 3-4s2.9-4 3.5-4.7l5-5.9c10.9-13.1 16.5-18.8 32-32.3 10.2-8.9 34.8-25.9 53.1-36.6 22.8-13.5 68.8-36.6 87.9-44.2 3.3-1.3 6.9-2.8 8-3.3l10.5-4.8c10.2-4.7 13.3-7.4 16.7-14.9 3.8-8.2 3.5-17.3-.7-25.9-3.8-7.8-7.2-10.3-23-16.9l-16.5-7-10-4.5c-40.4-18.2-86.7-44.3-111.1-62.8l-10.4-7.7c-10.6-7.8-32.8-30-39-38.9-.8-1.2-2-2.7-2.7-3.4-5-5.1-23.5-33.1-35.1-53.2-7-12.2-34.2-65.6-34.2-67.3 0-.3-1.5-3.8-3.3-7.9-1.9-4-5.3-12-7.7-17.8s-5.6-12.2-7.1-14.4c-6-8.4-17-12.5-28.4-10.6z"/></svg>