<?xml version="1.0" encoding="UTF-8"?><svg xmlns="http://www.w3.org/2000/svg" fill="none" height="49" style="fill: none;" viewBox="0 0 49 49" width="49"><rect fill="#2100FC" height="48.656" rx="8" width="48" x=".624" y=".172"/><path clip-rule="evenodd" d="M43.0503 20.9824H32.0604L29.7507 32.0923H35.276C36.2825 32.0923 37.0725 32.2453 37.6462 32.5514C38.2199 32.8472 38.6224 33.2451 38.8539 33.745C39.0955 34.2449 39.2162 34.7907 39.2162 35.3824C39.2162 35.9741 39.0703 36.5148 38.7784 37.0045C38.4966 37.484 38.1142 37.8666 37.6311 38.1522C37.1581 38.4379 36.6347 38.5807 36.061 38.5807C35.4773 38.5807 34.9439 38.4379 34.4608 38.1522C33.9777 37.8666 33.5902 37.484 33.2984 37.0045C33.0166 36.5148 32.8757 35.9741 32.8757 35.3824H28.709C28.709 36.7188 29.031 37.9533 29.6752 39.0857C30.3294 40.2079 31.21 41.1108 32.3171 41.7943C33.4342 42.4676 34.6822 42.8043 36.061 42.8043C37.0775 42.8043 38.0286 42.6105 38.9143 42.2228C39.8 41.8351 40.5749 41.2995 41.2392 40.616C41.9135 39.9324 42.4368 39.1418 42.8092 38.244C43.1917 37.3463 43.3829 36.3924 43.3829 35.3824C43.3829 34.0153 43.0709 32.7758 42.4469 31.6638C41.8229 30.5518 40.9624 29.6591 39.8654 28.9858C38.7784 28.3124 37.5153 27.9503 36.0761 27.8993L34.8986 27.8687L35.4421 25.206H42.1722L43.0503 20.9824Z" fill="#fff" fill-rule="evenodd"/><path clip-rule="evenodd" d="M28.709 20.9824H15.9819V42.4064H20.1486V33.041H26.1412L27.0406 28.8174H20.1486V25.206H27.8096L28.709 20.9824Z" fill="#fff" fill-rule="evenodd"/></svg>