<?xml version="1.0" encoding="UTF-8" standalone="no"?>
<svg
   fill="none"
   height="44.9617"
   style="fill:none"
   viewBox="0 0 37.788952 44.9617"
   width="37.788952"
   version="1.1"
   id="svg17"
   sodipodi:docname="logo-umichlab-0228f8923819641b102c6a453d53b5b7306996d811a8f9b5229c4bf3b599995b.svg"
   inkscape:version="1.4 (86a8ad7, 2024-10-11)"
   xmlns:inkscape="http://www.inkscape.org/namespaces/inkscape"
   xmlns:sodipodi="http://sodipodi.sourceforge.net/DTD/sodipodi-0.dtd"
   xmlns="http://www.w3.org/2000/svg"
   xmlns:svg="http://www.w3.org/2000/svg">
  <sodipodi:namedview
     id="namedview17"
     pagecolor="#ffffff"
     bordercolor="#000000"
     borderopacity="0.25"
     inkscape:showpageshadow="2"
     inkscape:pageopacity="0.0"
     inkscape:pagecheckerboard="0"
     inkscape:deskcolor="#d1d1d1"
     inkscape:zoom="2.3720472"
     inkscape:cx="138.48797"
     inkscape:cy="19.181743"
     inkscape:window-width="2560"
     inkscape:window-height="1387"
     inkscape:window-x="-8"
     inkscape:window-y="-8"
     inkscape:window-maximized="1"
     inkscape:current-layer="g16" />
  <g
     clip-path="url(#clip0)"
     id="g16">
    <path
       d="M 32.6176,5.13652 C 29.5718,2.10841 25.562,0.575195 21.5523,0.575195 c -4.0097,0 -8.0194,1.533215 -11.1038,4.561325 -6.13023,6.09458 -6.13023,15.94548 0,22.04008 3.0458,3.0281 7.0556,4.5613 11.1038,4.5613 4.0483,0 8.0195,-1.5332 11.1039,-4.5613 6.0916,-6.0946 6.0916,-15.9455 -0.0386,-22.04008 z m -18.622,3.52641 c 2.0048,-1.99319 4.7037,-3.10477 7.5567,-3.10477 2.0049,0 3.8941,0.53663 5.5519,1.57155 L 12.4534,21.6953 C 9.94729,17.5939 10.4485,12.1893 13.9956,8.66293 Z M 29.1091,23.6502 c -2.0049,1.9931 -4.7037,3.1047 -7.5568,3.1047 -2.0048,0 -3.894,-0.5366 -5.5519,-1.5715 L 30.6899,10.5795 c 2.4675,4.1396 1.9663,9.5442 -1.5808,13.0707 z"
       fill="#28a199"
       id="path1" />
    <path
       d="m 37.5526,29.3995 -1.3494,-1.3416 c -0.3085,-0.3066 -0.8482,-0.3066 -1.1567,0 l -0.7711,0.7666 c -3.3928,3.3731 -7.9037,5.2513 -12.7231,5.2513 -7.1327,0 -13.5328,-4.1397 -16.65576,-10.8475 0,-0.0384 -0.03855,-0.0384 -0.03855,-0.0767 C 2.15914,16.0988 3.66279,8.58603 8.79059,3.48808 l 0.7711,-0.76662 c 0.30844,-0.30664 0.30844,-0.84327 0,-1.14991 L 8.21227,0.229983 c -0.30844,-0.306644 -0.84821,-0.306644 -1.15665,0 l -0.7711,0.76661 C 0.154285,7.12947 -1.6578,16.1371 1.58082,24.5315 l 0.03855,0.115 c 3.39284,7.2061 9.94723,11.9591 17.46543,12.8024 v 3.7564 h -4.1254 c -0.4241,0 -0.7326,0.345 -0.7326,0.8049 v 2.1465 c 0,0.46 0.347,0.805 0.7326,0.805 h 13.1858 c 0.4241,0 0.7325,-0.345 0.7325,-0.805 v -2.1465 c 0,-0.4599 -0.347,-0.8049 -0.7325,-0.8049 H 24.0198 V 37.4489 C 28.8392,36.9123 33.3115,34.7658 36.82,31.316 l 0.7711,-0.7666 c 0.2699,-0.3066 0.2699,-0.8433 -0.0385,-1.1499 z"
       fill="#28a199"
       id="path2" />
  </g>
  <defs
     id="defs17">
    <clipPath
       id="clip0">
      <path
         d="M 0,0 H 254 V 45 H 0 Z"
         fill="#ffffff"
         id="path17" />
    </clipPath>
  </defs>
</svg>
