<?xml version="1.0" encoding="UTF-8" standalone="no"?>
<svg
   width="105"
   height="105"
   viewBox="0 0 105 105"
   fill="none"
   version="1.1"
   id="svg11"
   sodipodi:docname="logo.svg"
   inkscape:version="1.4 (86a8ad7, 2024-10-11)"
   xmlns:inkscape="http://www.inkscape.org/namespaces/inkscape"
   xmlns:sodipodi="http://sodipodi.sourceforge.net/DTD/sodipodi-0.dtd"
   xmlns="http://www.w3.org/2000/svg"
   xmlns:svg="http://www.w3.org/2000/svg">
  <defs
     id="defs11" />
  <sodipodi:namedview
     id="namedview11"
     pagecolor="#ffffff"
     bordercolor="#000000"
     borderopacity="0.25"
     inkscape:showpageshadow="2"
     inkscape:pageopacity="0.0"
     inkscape:pagecheckerboard="0"
     inkscape:deskcolor="#d1d1d1"
     inkscape:zoom="2.004597"
     inkscape:cx="44.148525"
     inkscape:cy="135.93755"
     inkscape:window-width="2560"
     inkscape:window-height="1387"
     inkscape:window-x="-8"
     inkscape:window-y="-8"
     inkscape:window-maximized="1"
     inkscape:current-layer="svg11" />
  <g
     id="g11"
     transform="translate(8.9473956,0.49547515)">
    <path
       d="m 0.06952251,44.102896 c 1.18409999,24.4723 14.40130049,42.8267 35.72130049,42.8267 25.854,0 38.386,-1.0955 47.214,-25.1649 13.572,-37.0027 -9.023,-53.3904002 -31.622,-59.5013502 -38.682,-10.46002 -52.4975005,17.3672502 -51.31330049,41.8395502 z"
       fill="#fefcfc"
       id="path1" />
    <path
       d="m 23.969823,103.737 c -0.28,0.113 -0.68,0.251 -1.038,0.27 -0.179,0.009 -0.404,-0.008 -0.604,-0.125 -0.227,-0.133 -0.357,-0.357 -0.384,-0.623 -0.024,-0.24 0.035,-0.508 0.144,-0.793 0.111,-0.291 0.288,-0.637 0.539,-1.048 1.472,-2.400204 3.177,-5.385004 5.118,-8.955504 5.432,-10.4123 6.122,-11.6027 10.319,-22.5165 2.064,-5.3661 4.869,-11.4792 4.869,-17.335 0,-1.6498 -2.043,-6.4985 1.134,-6.4985 0.333,0 0.647,0.0715 0.912,0.248 1.908,1.2723 0.604,5.6975 0.333,7.2578 l -10e-4,0.0071 -0.002,0.0071 c -1.131,5.4293 -2.572,10.7582 -4.328,16.0241 l -10e-4,0.005 c -3.205,9.2382 -12.343,29.8925 -17.01,34.075404 z"
       fill="#343130"
       id="path2" />
  </g>
</svg>
