<?xml version="1.0" encoding="UTF-8" standalone="no"?>
<svg
   width="38.901966"
   height="38.901882"
   viewBox="0 0 38.901966 38.901882"
   fill="none"
   version="1.1"
   id="svg4"
   sodipodi:docname="logo.svg"
   inkscape:version="1.4 (86a8ad7, 2024-10-11)"
   xmlns:inkscape="http://www.inkscape.org/namespaces/inkscape"
   xmlns:sodipodi="http://sodipodi.sourceforge.net/DTD/sodipodi-0.dtd"
   xmlns="http://www.w3.org/2000/svg"
   xmlns:svg="http://www.w3.org/2000/svg">
  <defs
     id="defs4" />
  <sodipodi:namedview
     id="namedview4"
     pagecolor="#ffffff"
     bordercolor="#000000"
     borderopacity="0.25"
     inkscape:showpageshadow="2"
     inkscape:pageopacity="0.0"
     inkscape:pagecheckerboard="0"
     inkscape:deskcolor="#d1d1d1"
     inkscape:zoom="3.6515152"
     inkscape:cx="14.103734"
     inkscape:cy="5.340249"
     inkscape:window-width="2560"
     inkscape:window-height="1387"
     inkscape:window-x="-8"
     inkscape:window-y="-8"
     inkscape:window-maximized="1"
     inkscape:current-layer="svg4" />
  <path
     d="m 22.796802,10.35533 h 3.6214 v 13.3047 c 0,0.9709 -0.1968,1.8457 -0.5904,2.6242 -0.3936,0.7873 -0.9316,1.4608 -1.6139,2.0206 -0.6735,0.5599 -1.4521,0.9885 -2.3355,1.2859 -0.8748,0.2974 -1.802,0.4461 -2.7817,0.4461 -0.9272,0 -1.8151,-0.1837 -2.6636,-0.5511 -0.8485,-0.3586 -1.6007,-0.8572 -2.2568,-1.4958 -0.656,-0.6385 -1.1678,-1.3733 -1.5351,-2.2043 l 3.3065,-1.5089 c 0.1837,0.4373 0.433,0.8135 0.7479,1.1284 0.3236,0.3149 0.691,0.5554 1.1021,0.7216 0.4199,0.175 0.8529,0.2625 1.299,0.2625 0.4811,0 0.9403,-0.0569 1.3777,-0.1706 0.4461,-0.1137 0.8441,-0.2843 1.194,-0.5117 0.3499,-0.2275 0.6255,-0.5118 0.8267,-0.8529 0.2011,-0.3411 0.3017,-0.7392 0.3017,-1.194 v -1.5221 c -0.4023,0.4986 -0.8922,0.9054 -1.4695,1.2203 -0.5686,0.3062 -1.229,0.4592 -1.9813,0.4592 -0.9447,0 -1.8326,-0.1793 -2.6636,-0.5379 -0.8222,-0.3587 -1.5482,-0.8529 -2.1781,-1.4827 -0.6298,-0.6386 -1.124,-1.3733 -1.4826,-2.2043 -0.3587,-0.831 -0.538,-1.7233 -0.538,-2.6767 0,-0.9535 0.1793,-1.8457 0.538,-2.6767 0.3586,-0.831 0.8528,-1.5614 1.4826,-2.1912 0.6299,-0.6386 1.3559,-1.1372 2.1781,-1.4958 0.831,-0.3587 1.7189,-0.538 2.6636,-0.538 0.7523,0 1.4127,0.1575 1.9813,0.4724 0.5773,0.3061 1.0672,0.7085 1.4695,1.2071 z m -3.3983,9.9851 c 0.5948,0 1.1328,-0.1531 1.6139,-0.4593 0.4811,-0.3149 0.8572,-0.7304 1.1284,-1.2465 0.2799,-0.5161 0.4199,-1.089 0.4199,-1.7188 0,-0.6298 -0.14,-1.2028 -0.4199,-1.7189 -0.2712,-0.5248 -0.6473,-0.9403 -1.1284,-1.2465 -0.4811,-0.3061 -1.0191,-0.4592 -1.6139,-0.4592 -0.5861,0 -1.124,0.1531 -1.6139,0.4592 -0.4811,0.3062 -0.866,0.7217 -1.1546,1.2465 -0.2887,0.5161 -0.433,1.0891 -0.433,1.7189 0,0.6298 0.1443,1.2071 0.433,1.7319 0.2886,0.5161 0.6735,0.9273 1.1546,1.2334 0.4899,0.3062 1.0278,0.4593 1.6139,0.4593 z"
     fill="#17403e"
     id="path1" />
  <path
     d="m 29.758102,9.8029299 -2.4319,-1.7834 1.5078,-2.05902 -2.4158,-0.77822 0.908,-2.88589 2.4481,0.79443 V 0.56161988 h 3.0156 V 3.0908299 l 2.4157,-0.79443 0.9404,2.88589 -2.4482,0.77822 1.5078,2.05902 -2.4481,1.7834 -1.4754,-2.0752 z"
     fill="#17403e"
     id="path3" />
  <path
     d="m 36.673702,10.41123 c 2.0914,3.9846 2.7365,8.571 1.8254,12.9779 -0.9111,4.4069 -3.3221,8.3615 -6.8221,11.1901 -3.5,2.8285 -7.8725,4.356 -12.3724,4.3221 -4.5,-0.0339 -8.849,-1.627 -12.3060003,-4.5079 -3.45702,-2.8809 -5.80817,-6.8714 -6.65284698,-11.2915 -0.8446759,-4.4201 -0.130613,-8.9963 2.02052698,-12.9489 2.15113,-3.9526801 5.60624,-7.0371601 9.7766203,-8.7279301 4.1704,-1.69076002 8.798,-1.88320002 13.0943,-0.54452002 l -1.386,4.44824002 c -3.2672,-1.01803 -6.7863,-0.87168 -9.9578,0.41408 -3.1714,1.28573 -5.7988903,3.63143 -7.4347603,6.6372301 -1.63586,3.0059 -2.17889,6.4859 -1.53654,9.8473 0.64235,3.3613 2.43032,6.3959 5.0593,8.5868 2.6289003,2.1908 5.9362003,3.4023 9.3582003,3.4281 3.4221,0.0258 6.7472,-1.1358 9.4089,-3.2869 2.6616,-2.151 4.495,-5.1583 5.1879,-8.5096 0.6929,-3.3513 0.2023,-6.8392 -1.3881,-9.8693 z"
     fill="#1da9b2"
     id="path4" />
</svg>
