<?xml version="1.0" encoding="UTF-8"?>
<svg width="128pt" height="128pt" version="1.1" viewBox="0 0 128 128" xmlns="http://www.w3.org/2000/svg">
 <g fill="#00a44f">
  <path d="m58.07 83.895c0.19141-0.40625 1.6406-13.461 2.6602-19.488 0.98438-5.8398-1.0352-11.656 0.074219-17.434 0.58203-3.0352 1.0625-6.1016 1.8633-9.0742 1.6484-6.1133 5.7227-10.762 9.9883-15.059v0.003906c2.9375-2.7148 6.2031-5.0508 9.7227-6.9531 6.6289-3.9375 13.406-7.6289 20.172-11.328 0.79688-0.34766 1.707-0.32422 2.4844 0.0625 0.37109 0.21875 0.33594 1.5352 0.14453 2.2656-0.98438 3.7305-1.9766 7.4648-3.1562 11.133-1.4766 4.5898-4.5703 8.2539-7.1484 12.215-3.9688 6.0938-9.1953 11.023-14.383 15.996-3.5781 3.4297-7.4805 6.5625-10.73 10.273-3.4336 3.918-6.043 8.3516-5.9727 14.066h-0.003906c-0.17188 3.6016-0.61719 7.1836-1.3281 10.723-0.42188 2.9922-0.88281 5.9766-1.3633 8.957-0.41016 2.5625-0.85938 5.1172-1.3125 7.668-0.32031 1.793 0.47656 2.5547 2.2461 1.9844 1.8711-0.60156 3.6602-1.4648 5.5547-1.9805h0.003907c2.7969-1.043 5.9336 0.097657 7.4102 2.6914 0.61328 0.98047 1.0898 1.0195 2.2695 0.69141 3.3633-0.93359 6.7188-0.82031 9.6797 1.6289 2.0312 1.6797 4.207 3.1758 6.1992 4.8984l0.003907-0.003907c0.58984 0.69922 1.0508 1.5039 1.3555 2.3672 0.58203 1.1406 0.70703 2.9062 2.5977 2.4609 3.5352-0.83984 6.1133 0.79297 8.5078 3.0859 0.92969 0.89062 1.9062 1.7344 2.7773 2.6758 1.3398 1.5664 3.4023 2.3203 5.4375 1.9766 2.832-0.35156 5.6836-0.53906 8.543-0.5625 0.56641-0.003907 1.1602 1.0391 1.7383 1.5977-0.51172 0.48438-1.0156 1.3828-1.543 1.3867-5.0273 0.027344-10.062-0.14453-15.09-0.16016-2.1562-0.007812-4.3047 0.24609-6.4609 0.33984-4.0547 0.17188-8.1055 0.38281-12.164 0.44922-8.2812 0.13281-16.562 0.23438-24.844 0.23438-3.2812 0-6.5664-0.40625-9.8516-0.42969-5.9766-0.046875-11.949 0.0625-17.926 0.082032-5.5586 0.019531-11.117 0.058593-16.676-0.007813-4.1523-0.046875-8.3047-0.24219-12.461-0.375-0.54297-0.015625-1.1953 0.12109-1.6016-0.12891h0.003907c-0.59375-0.46484-1.1328-0.99609-1.5977-1.5898 0.58203-0.39062 1.2227-0.67969 1.9023-0.85156 2.1992-0.14062 4.4219-0.050781 6.6211-0.21094l-0.003907 0.003906c0.59375-0.14844 1.0781-0.57422 1.3047-1.1406 0.19531-1.3008 0.49219-2.5859 0.88281-3.8398 0.67969-1.1367 1.5742-2.125 2.6367-2.9102 2.2461-1.8711 4.5938-3.625 6.8984-5.4219h0.003906c2.1367-1.8242 5.1094-2.3164 7.7266-1.2852 2.3594 0.86328 3.2539 0.50391 4.3789-1.793 1.2305-2.5039 5.9023-4.5664 9-3.8281 1.6836 0.40234 3.3086 1.0781 4.75 1.5625 1.8672-0.74219 3.7109-1.4062 5.4766-2.2344 0.48047-0.31641 0.76953-0.85547 0.76562-1.4297-0.41406-2.1875-1.0586-4.3359-1.5078-6.5156-0.77734-3.7695-1.4844-7.5547-2.1953-11.336-0.85938-4.5664-1.6094-9.1562-2.6055-13.695-0.17188-0.79297-1.2031-1.5859-2.0234-2.043-3.9922-2.2109-7.2109-5.5898-9.2227-9.6836-3.2852-6.6953-5.8945-13.715-8.7734-20.602-2.5859-6.1797-5.1523-12.367-7.7422-18.547-0.65234-1.5547-1.3438-3.0938-2.0586-4.625-0.73438-1.5742-0.42969-2.5195 1.1875-2.7461 5.1328-0.82812 10.379 0.52734 14.469 3.7344 4.1328 2.9844 7.7891 6.5703 10.848 10.645 0.88672 1.2539 1.3906 2.7695 2.1758 4.1016 3.5859 6.082 4.4258 12.859 5.2305 19.621l0.003907-0.003906c0.35937 2.9922 0.52344 6.0078 0.48828 9.0195-0.023438 1.8164-0.78125 3.6016-0.91016 5.4297-0.28906 2.9219-0.11719 5.8711 0.51563 8.7422 1.0664 4.3281 3.7578 14.57 3.9531 14.543zm33.883 30.824c-0.082031-0.69922-0.23828-1.3906-0.46875-2.0586-0.46875-1-1.1133-2.7383-1.6484-2.7344-1.7148 0.011719-1.9023-0.99219-2.3711-2.1484h0.003906c-0.93359-2.0273-2.7383-3.5195-4.9023-4.0586-2.1641-0.53516-4.457-0.058594-6.2266 1.3008-1.0352 0.89062-1.7617 1.1641-2.582-0.52734v-0.003907c-1.1328-2.3008-3.4219-3.8086-5.9844-3.9492-2.2266-0.21875-3.3984 1.2383-4.3906 3.0156-0.42187 0.66406-1.1328 1.0859-1.918 1.1406-1.2539-0.11719-5.8711-2.6289-6.707-2.5664-0.76172 0.058594-1.4453 0.91797-2.4883 1.6523 4.4375 1.1367 6.0312 2.3086 6.4062 4.543l0.003907-0.003907c-1.0703-0.30078-2.1211-0.66016-3.1484-1.0742-3.1406-1.4414-6.2656-2.9258-9.3711-4.4492-2.9141-1.4375-7.0938 1.1797-7.9297 3.8086-1.0312 3.2383-2.2422 3.7227-5.2461 2.0391-4.4766-2.5039-8.7344-0.69141-9.6992 4.2031-0.3125 1.5859-0.78906 2.6641-2.7148 2.2734-0.46094 0.007812-0.91406 0.11719-1.3281 0.32422-2.5 0.76172-1.082 2.8008-1.5195 4.4062 0.70312 0.15234 1.4141 0.25781 2.1328 0.32031 2.5273 0.046875 5.0547-0.039063 7.5781 0.074219 4.5352 0.20312 9.0625 0.65234 13.594 0.73438 4.8242 0.085937 9.6484-0.13672 14.473-0.23047 1.2266-0.023438 2.4531-0.16406 3.6758-0.10156 3.8594 0.20312 7.7148 0.65234 11.57 0.67969 6.1875 0.042969 12.371-0.20703 18.559-0.28516 4.8672-0.058594 9.7344-0.042969 15.078-0.066407-1.3125-1.2617-2.4102-1.9102-2.8789-2.8633-0.78516-1.5938-1.2852-3.2227-3.5625-2.8164-1.582 0.28125-3.3867 0.12891-4.7031 0.85547-1.8828 1.0391-4.1914 1.207-5.5078-0.3125 0.88281-2.457 3.2227 0.45312 4.2227-1.1211zm-28.285-62.512c2.6328-5.1367 4.9883-10.125 7.6953-14.91 2.8047-4.9648 6.8789-8.9375 10.98-12.832 3.0117-2.8594 10.625-8.8086 10.953-8.5312 0.375 0.32031-0.64844 2.9961-1.2656 3.4805-1.0742 0.83984-2.2852 1.5117-3.3203 2.3906-1.8594 1.582-3.6836 3.2148-5.4219 4.9258-2.332 2.2891-5.0195 4.3789-6.7578 7.0781-3.5469 5.5117-6.6211 11.34-9.75 17.117-0.54688 1.3672-0.93359 2.793-1.1484 4.25l0.48828 0.23828c0.50391-0.49219 1.0234-0.96484 1.5078-1.4727 2.2383-2.6367 4.6484-5.125 7.2188-7.4414 5.0977-3.875 9.793-8.2539 14.012-13.074 2.2148-2.6406 4.2617-5.4141 6.1289-8.3047 1.6094-2.5039 3-5.1406 4.1484-7.8867 1.0664-2.5547 1.6797-5.3125 2.6758-8.5859-1.4141 0.46875-2.8008 1.0195-4.1484 1.6484-1.9219 1.0508-3.7305 2.3047-5.6289 3.4023-4.3906 2.5391-9.0078 4.75-13.137 7.6484l-0.003907-0.003906c-2.7617 2.207-5.2734 4.7148-7.4883 7.4727-1.4023 1.5508-2.375 3.4844-3.7422 5.0742-1.5703 1.8242-4.6562 14.176-3.9961 18.316zm-39.074-40.957c0.84766 2.7148 1.4453 5.0938 2.3438 7.3594 0.96094 2.4336 2.3633 4.6992 3.2969 7.1406 2.1523 5.6211 3.8828 11.406 6.2695 16.922 2.2344 4.9453 4.7305 9.7656 7.4805 14.441 1.3594 2.3164 3.5312 4.0469 6.0938 4.8555-0.40625-3.1055-1.0859-6.168-2.0352-9.1484-1.5938-4.6406-3.418-9.2109-5.293-13.75-2.0078-5.2852-5.0039-10.137-8.8242-14.305-1.6484-1.7109-5.8594-7.3008-4.7422-7.9062 0.42188-0.22656 3.668 2.5977 4.3281 3.4453 2.707 3.4766 5.9844 6.6758 7.9336 10.531 3.1602 6.2539 5.4375 12.941 8.0898 19.445 0.23438 0.57812 0.47266 1.1602 0.71094 1.7383h0.003906c0.39844-0.74219 0.61328-1.5664 0.63281-2.4062 0.38281-5.0078-0.16406-10.047-1.6133-14.859-1.4805-4.9766-4.0195-9.5703-7.4414-13.473-1.6094-1.8594-4.1055-2.9609-5.707-4.8281-2.6211-3.0508-6.1172-4.125-9.6445-5.2734-0.625-0.082032-1.2617-0.058594-1.8828 0.070312z"/>
  <path d="m51.102 113.97c1.3984-0.8125 2.5977-2.0625 3.8789-2.125 1.9844 0.13281 3.9414 0.50391 5.8359 1.1055-1.25 1.9141-2.9062 1.4727-4.2852 1.1328-1.2109-0.38281-2.5352-0.042969-3.4102 0.875-2.1211 1.8906-2.6328 1.8828-4.6602-0.078125-0.4375-0.52344-1.0859-0.82812-1.7656-0.83203-0.68359-0.003906-1.3359 0.29688-1.7773 0.81641-0.39844 0.37109-0.77344 0.77344-1.1211 1.1953-1.4141-0.95703-0.65625-1.7305 0.007813-2.4805 2.1289-2.3906 3.6523-2.3008 7.2969 0.39062z"/>
  <path d="m34.715 115.32c-0.17188 0.21484-0.36719 0.70313-0.64062 0.75-0.52344 0.085938-1.3594 0.12891-1.5977-0.17578-1.0547-1.3438-2.3945-2.0938-3.8398-1.2578h0.003906c-1.0898 0.85938-2.0586 1.8594-2.8867 2.9727-0.33984 0.30469-0.69922 0.58203-1.082 0.83203-0.27344-0.41797-0.74609-0.82031-0.78516-1.2578-0.14844-1.6211 2.3359-4.3789 4.1523-4.7422 2.8867-0.57422 5.7383 0.44531 6.5273 2.332 0.046875 0.125 0.070313 0.25781 0.14844 0.54687z"/>
  <path d="m39.461 111.85c-0.51172-0.26953-0.85938-0.76953-0.9375-1.3398-0.078126-0.57422 0.12891-1.1484 0.55078-1.543 1.6641-1.457 3.25-3.5898 5.9141-3.0742v0.003907c1.1836 0.35547 2.2891 0.94531 3.2461 1.7266 0.27344 0.1875-0.89062 1.6328-1.1914 1.3945-1.3672-1.0781-2.7695-1.9219-4.3164-0.63281l-0.003906 0.003906c-1.1523 1.0859-2.2422 2.2422-3.2617 3.4609z"/>
  <path d="m63.641 109.08c-0.24609-2.0039 2.6562-4.1406 4.8398-3.5117 1.543 0.44141 3.0547 1.0234 4.5547 1.6172h-0.003906c0.44922 0.15625 0.82031 0.48047 1.0273 0.91016 0.066406 0.60156 0.042968 1.207-0.078125 1.8008-0.52344-0.039062-1.043-0.14453-1.543-0.30859-0.58984-0.26953-1.082-0.75781-1.6562-1.0781-2.3164-1.2891-4.5859-1.9883-6.5742 0.48828-0.085937 0.10938-0.37109 0.058594-0.56641 0.082031z"/>
  <path d="m80.637 109.55c0.90234 0.43359 1.9258 0.59766 2.8281 1.0273v-0.003907c0.69531 0.30859 1.3125 0.77734 1.7969 1.3633 0.15234 0.19922-0.35938 1.3086-0.67969 1.3555v0.003907c-0.62891-0.046875-1.2383-0.23047-1.7852-0.54688-1.2578-0.47656-2.4883-1.043-3.7773-1.4062-0.41406-0.11719-0.95703 0.3125-1.4531 0.44922-0.53516 0.14844 0.73828-3.3633 3.0703-2.2422z"/>
  <path d="m75.758 117.05c3.3594-1.9531 7.5664-1.6641 10.621 0.73438-0.68359 1.6133-2.0625 0.78516-3.0781 0.72656h0.003907c-1.9141-0.14453-3.8164-0.39453-5.6992-0.75-0.63672-0.17188-1.2578-0.41016-1.8477-0.71094z"/>
  <path d="m59.301 117.1c1.5781-2.293 4.7539-3.25 6.6719-2.3477 1.3438 0.63281 2.6836 1.2773 4.1133 1.9609-0.33984 0.62109-0.94141 1.0586-1.6406 1.1836-0.69531 0.12891-1.4141-0.066406-1.9492-0.52734-1.418-1.2109-3.4258-1.4414-5.082-0.58594-0.69141 0.17188-1.3984 0.27734-2.1133 0.31641z"/>
  <path d="m47.004 118.83c-1.9609-0.078125-3.4805-0.125-5-0.20703v-0.003906c-0.33594-0.015625-0.66406-0.10938-0.95703-0.27344-0.09375-0.054687-0.058594-0.62109 0.019531-0.64844 1.0352-0.52734 2.1758-0.82031 3.3359-0.85547 0.94141 0.17578 1.7188 1.3242 2.5547 2.0586 0.019531 0.019531-0.12109 0.21484 0.046875-0.070313z"/>
 </g>
</svg>