<?xml version="1.0" encoding="UTF-8"?><svg xmlns="http://www.w3.org/2000/svg" fill="none" height="197" style="fill: none;" viewBox="0 0 197 197" width="197"><path clip-rule="evenodd" d="M174.063 10.7249H22.0203C15.4958 10.7249 10.2068 16.014 10.2068 22.5384V174.581C10.2068 181.106 15.4958 186.395 22.0202 186.395H174.063C180.588 186.395 185.877 181.106 185.877 174.581V22.5384C185.877 16.014 180.588 10.7249 174.063 10.7249ZM22.0203 0.559814C9.88182 0.559814 0.0416718 10.3999 0.0416718 22.5384V174.581C0.0416718 186.72 9.88179 196.56 22.0202 196.56H174.063C186.202 196.56 196.042 186.72 196.042 174.581V22.5384C196.042 10.4 186.202 0.559814 174.063 0.559814H22.0203Z" fill="#AF8B2E" fill-rule="evenodd"/><path clip-rule="evenodd" d="M143.377 0.559814H52.7022L53.0846 3.64507C53.1606 4.25878 53.2003 4.8838 53.2003 5.51738C53.2003 13.7849 46.4907 20.4914 38.2297 20.4914H19.9709V38.7502C19.9709 47.0198 13.2718 53.7205 4.99686 53.7205C4.36243 53.7205 3.73896 53.6813 3.1285 53.6053L0.0416718 53.2209V143.894L3.12724 143.511C3.73855 143.435 4.36245 143.396 4.99686 143.396C13.2647 143.396 19.9709 150.106 19.9709 158.367V176.626H38.2297C46.4991 176.626 53.2003 183.326 53.2003 191.601C53.2003 192.237 53.1611 192.861 53.0848 193.472L52.6996 196.56H143.377L142.991 193.472C142.915 192.861 142.876 192.237 142.876 191.601C142.876 183.333 149.586 176.626 157.847 176.626H176.105V158.367C176.105 150.097 182.806 143.396 191.08 143.396C191.716 143.396 192.342 143.436 192.955 143.512L196.042 143.897V53.2202L192.955 53.605C192.343 53.6813 191.717 53.7205 191.08 53.7205C182.812 53.7205 176.105 47.0107 176.105 38.7502V20.4914H157.847C149.577 20.4914 142.876 13.7919 142.876 5.51738C142.876 4.88221 142.915 4.25832 142.991 3.64743L143.377 0.559814ZM38.2297 30.4164C50.2725 30.4164 60.3265 21.8535 62.629 10.479H93.0758V40.9245C81.6985 43.2229 73.1377 53.2745 73.1377 65.3248V73.6582H64.8043C52.7614 73.6582 42.7081 82.2217 40.4017 93.596H9.95884V63.1501C21.3355 60.8517 29.8962 50.8001 29.8962 38.7502V30.4164H38.2297ZM103.001 40.9255V10.479H133.447C135.747 21.8555 145.796 30.4164 157.847 30.4164H166.18V38.7502C166.18 50.7924 174.743 60.8466 186.118 63.1492V93.596H155.675C153.372 82.2197 143.323 73.6582 131.272 73.6582H122.938V65.3248C122.938 53.2823 114.376 43.2281 103.001 40.9255ZM83.063 65.3248C83.063 57.0554 89.7633 50.3541 98.0384 50.3541C106.306 50.3541 113.013 57.0639 113.013 65.3248V83.5836H131.272C139.541 83.5836 146.243 90.2839 146.243 98.5583C146.243 106.826 139.533 113.533 131.272 113.533H113.013V131.792C113.013 140.062 106.313 146.763 98.0384 146.763C89.7703 146.763 83.063 140.053 83.063 131.792V113.533H64.8043C56.5349 113.533 49.8343 106.833 49.8343 98.5583C49.8343 90.2905 56.5435 83.5836 64.8043 83.5836H83.063V65.3248ZM9.95884 133.968V103.521H40.4011C42.7044 114.897 52.7533 123.459 64.8043 123.459H73.1377V131.792C73.1377 143.834 81.7007 153.889 93.0758 156.191V186.638H62.6295C60.3296 175.261 50.2808 166.7 38.2297 166.7H29.8962V158.367C29.8962 146.325 21.3333 136.27 9.95884 133.968ZM131.272 123.459C143.315 123.459 153.369 114.895 155.675 103.521H186.118V133.967C174.741 136.265 166.18 146.317 166.18 158.367V166.7H157.847C145.804 166.7 135.75 175.263 133.447 186.638H103.001V156.192C114.378 153.894 122.938 143.842 122.938 131.792V123.459H131.272Z" fill="#AF8B2E" fill-rule="evenodd"/></svg>