<?xml version="1.0" encoding="UTF-8" standalone="no"?>
<svg
   height="185.8"
   viewBox="0 0 185.8 185.8"
   width="185.8"
   version="1.1"
   id="svg12"
   sodipodi:docname="62d53f14b24bb2a20c1c6043_heylogin_logo_positive.svg"
   inkscape:version="1.4 (86a8ad7, 2024-10-11)"
   xmlns:inkscape="http://www.inkscape.org/namespaces/inkscape"
   xmlns:sodipodi="http://sodipodi.sourceforge.net/DTD/sodipodi-0.dtd"
   xmlns="http://www.w3.org/2000/svg"
   xmlns:svg="http://www.w3.org/2000/svg">
  <defs
     id="defs12" />
  <sodipodi:namedview
     id="namedview12"
     pagecolor="#ffffff"
     bordercolor="#000000"
     borderopacity="0.25"
     inkscape:showpageshadow="2"
     inkscape:pageopacity="0.0"
     inkscape:pagecheckerboard="0"
     inkscape:deskcolor="#d1d1d1"
     inkscape:zoom="0.87827988"
     inkscape:cx="-5.1236514"
     inkscape:cy="26.756846"
     inkscape:window-width="2560"
     inkscape:window-height="1387"
     inkscape:window-x="-8"
     inkscape:window-y="-8"
     inkscape:window-maximized="1"
     inkscape:current-layer="svg12" />
  <circle
     cx="92.900002"
     cy="92.900002"
     fill="#ffffff"
     r="92.900002"
     id="circle8" />
  <path
     d="m 92.9,182.9 c 18.5,0 36.5,-5.7 51.6,-16.2 l -35,-41.8 c -9.3,4.8 -20.3,5.4 -30,1.4 l -35.4,42.2 c 14.5,9.4 31.5,14.4 48.8,14.4 z"
     fill="#3e48f8"
     id="path9" />
  <path
     d="m 158.8,31.700005 -35.4,42.2 c 10.5,16.8 5.4,38.999995 -11.4,49.499995 -0.9,0.5 -1.7,1 -2.6,1.5 l 35.1,41.8 c 40.7,-28.5 50.7,-84.599995 22.2,-125.299995 -2.4,-3.4 -5,-6.7 -7.9,-9.7 z"
     fill="#00c9ff"
     id="path10" />
  <path
     d="m 128.9,92.900005 c 0,-6.7 -1.9,-13.3 -5.5,-19 L 79.5,126.3 c 18.4,7.4 39.4,-1.5 46.8,-20 1.7,-4.3 2.6,-8.799995 2.6,-13.399995 z"
     fill="#00f500"
     id="path11" />
  <path
     d="M 44,168.5 79.4,126.3 C 61,118.9 52.1,97.900005 59.5,79.400005 c 7.4,-18.5 28.4,-27.4 46.8,-19.9 7.1,2.8 13,7.9 17.1,14.3 l 35.4,-42.1 v 0 C 125,-4.7999954 68.1,-6.8999954 31.6,26.900005 -4.9,60.700005 -7,117.6 26.9,154.1 32,159.6 37.7,164.4 44,168.5 Z"
     fill="#292748"
     id="path12" />
</svg>
