<?xml version="1.0" encoding="UTF-8" standalone="no"?>
<svg
   version="1.1"
   id="svg4"
   sodipodi:docname="hwsdk.svg"
   width="100"
   height="100"
   inkscape:version="1.4 (86a8ad7, 2024-10-11)"
   xmlns:inkscape="http://www.inkscape.org/namespaces/inkscape"
   xmlns:sodipodi="http://sodipodi.sourceforge.net/DTD/sodipodi-0.dtd"
   xmlns="http://www.w3.org/2000/svg"
   xmlns:svg="http://www.w3.org/2000/svg">
  <defs
     id="defs4" />
  <sodipodi:namedview
     id="namedview4"
     pagecolor="#ffffff"
     bordercolor="#000000"
     borderopacity="0.25"
     inkscape:showpageshadow="2"
     inkscape:pageopacity="0.0"
     inkscape:pagecheckerboard="0"
     inkscape:deskcolor="#d1d1d1"
     inkscape:zoom="2.7930718"
     inkscape:cx="-71.784764"
     inkscape:cy="-22.734826"
     inkscape:window-width="2560"
     inkscape:window-height="1387"
     inkscape:window-x="-8"
     inkscape:window-y="-8"
     inkscape:window-maximized="1"
     inkscape:current-layer="svg4" />
  <g
     style="display:block"
     opacity="1"
     id="g4"
     transform="translate(-349.50699,-686.81598)">
    <g
       opacity="1"
       transform="translate(399.50699,736.81598)"
       id="g2">
      <g
         opacity="1"
         id="g1">
        <path
           fill="#006a8b"
           fill-opacity="1"
           d="m 0,-49.384998 c 0,0 -40.405998,17.957998 -40.405998,17.957998 0,0 0,26.9370002 0,26.9370002 C -40.405998,20.427 -23.166,43.728001 0,49.384998 23.166,43.728001 40.405998,20.427 40.405998,-4.4899998 c 0,0 0,-26.9370002 0,-26.9370002 z"
           id="path1" />
      </g>
    </g>
    <g
       opacity="1"
       transform="translate(400.28601,734.11298)"
       id="g3">
      <path
         fill="#ffffff"
         fill-opacity="1"
         d="m 15.644,-18.157 c 10e-4,-0.861999 -0.697,-1.562999 -1.559,-1.567001 0,0 -5.9449997,-0.026 -5.9449997,-0.026 0,0 0.056,-11.204 0.056,-11.204 0.002,-0.417 -0.1619997,-0.817 -0.4560003,-1.112002 C 7.4460001,-32.361 7.0469999,-32.527 6.631,-32.527 c 0,0 -13.4180002,0.003 -13.4180002,0.003 -0.4159999,0 -0.8139996,0.164997 -1.1079998,0.458999 -0.2940001,0.294999 -0.4590001,0.692999 -0.4579997,1.109 0,0 0.021,11.132999 0.021,11.132999 0,0 -5.7390003,-0.026 -5.7390003,-0.026 -0.449,0.025 -0.821,0.164002 -1.115,0.459002 -0.296,0.295999 -0.461,0.698 -0.458,1.115999 0,0 0.166,29.595 0.166,29.595 0.005,0.861 0.705,1.557 1.566,1.557 0.003,0 0.006,0 0.009,0 0.864,-0.005 1.561,-0.71 1.556,-1.574 0,0 -0.157,-28.015 -0.157,-28.015 0,0 7.6590003,0.034 7.6590003,0.034 0,0 -0.003,8.0889997 -0.003,8.0889997 -0.6799999,0.2180004 -1.3239999,0.5760002 -1.8649998,1.1140003 -1.8250003,1.8150001 -1.8320003,4.7660001 -0.017,6.59099998 1.815,1.82499999 4.766,1.83200002 6.591,0.017 1.825,-1.81499998 1.832,-4.76599998 0.017,-6.59099978 -0.46900002,-0.4710002 -1.014,-0.816 -1.595,-1.0450001 0,0 0.004,-8.1600011 0.004,-8.1600011 0,0 4.3970001,0.019 4.3970001,0.019 0,0 0.006,17.581 0.006,17.581 0,0 -7.1570001,6.1549999 -7.1570001,6.1549999 -0.3439999,0.296 -0.5419998,0.7259999 -0.5440002,1.1790004 0,0 -0.035,7.1829997 -0.035,7.1829997 -0.6329999,0.223 -1.2319999,0.572 -1.7389998,1.077 -1.8249999,1.815 -1.8319998,4.766 -0.017,6.590999 1.815,1.825001 4.766,1.832001 6.591,0.017 1.825,-1.814998 1.8320001,-4.765998 0.017,-6.590999 C -0.69599998,16.045 -1.288,15.693 -1.915,15.466 c 0,0 0.032,-6.4640001 0.032,-6.4640001 0,0 7.1609999,-6.159 7.1609999,-6.159 C 5.6240001,2.5450001 5.823,2.1110001 5.822,1.654 c 0,0 -0.007,-18.283 -0.007,-18.283 0,0 6.697,0.029 6.697,0.029 -0.005,5.82 -0.017,11.8280002 -0.028,17.7950001 C 12.465,11.05 12.447,20.795 12.461,29.396 c 0,0 -24.768,-0.016 -24.768,-0.016 0,0 -0.038,-5.061998 -0.038,-5.061998 -0.006,-0.864001 -0.688,-1.601002 -1.577,-1.553002 -0.865,0.006 -1.561,0.713002 -1.554,1.577 0,0 0.05,6.614 0.05,6.614 0.006,0.859002 0.706,1.553999 1.565,1.553999 0,0 27.889,0.017 27.889,0.017 0,0 10e-4,0 10e-4,0 0.416,0 0.815,-0.165 1.109,-0.458999 0.294,-0.295 0.458,-0.693001 0.457,-1.109001 -0.019,-8.972 0,-19.302 0.021,-29.757 0.012,-6.504 0.025,-13.055 0.028,-19.358999 z M 5.0079999,-19.764999 c 0,0 -10.2090001,-0.045 -10.2090001,-0.045 0,0 -0.018,-9.584 -0.018,-9.584 0,0 10.2760001,-0.002 10.2760001,-0.002 z"
         id="path2" />
    </g>
  </g>
</svg>
