<?xml version="1.0" encoding="UTF-8" standalone="no"?>
<svg
   width="45"
   height="45"
   viewBox="0 0 45 45"
   fill="none"
   version="1.1"
   id="svg18"
   sodipodi:docname="logo.svg"
   inkscape:version="1.4 (86a8ad7, 2024-10-11)"
   xmlns:inkscape="http://www.inkscape.org/namespaces/inkscape"
   xmlns:sodipodi="http://sodipodi.sourceforge.net/DTD/sodipodi-0.dtd"
   xmlns="http://www.w3.org/2000/svg"
   xmlns:svg="http://www.w3.org/2000/svg">
  <defs
     id="defs18" />
  <sodipodi:namedview
     id="namedview18"
     pagecolor="#ffffff"
     bordercolor="#000000"
     borderopacity="0.25"
     inkscape:showpageshadow="2"
     inkscape:pageopacity="0.0"
     inkscape:pagecheckerboard="0"
     inkscape:deskcolor="#d1d1d1"
     inkscape:zoom="5.7185481"
     inkscape:cx="28.591173"
     inkscape:cy="26.492738"
     inkscape:window-width="2560"
     inkscape:window-height="1387"
     inkscape:window-x="-8"
     inkscape:window-y="-8"
     inkscape:window-maximized="1"
     inkscape:current-layer="svg18" />
  <g
     id="g18"
     transform="translate(0.7106,0.710667)">
    <path
       fill-rule="evenodd"
       clip-rule="evenodd"
       d="m 43.5788,5.545876 -3.0514,7.85489 c -0.68,1.7504 -2.0138,3.1679 -3.7197,3.953 l -6.0024,2.7625 7.3864,-0.6862 -4.0773,10.4016 c -0.3082,0.7862 -1.0367,1.334 -1.8775,1.4127 -8.9076,0.8328 -11.1771,0.7138 -13.2923,3.5596 -1.2282,1.6525 -3.4038,2.3882 -5.1869,1.3587 l -0.3615,-0.2087 c 8.7584,-14.7968 8.5785,-15.1932 16.5084,-26.93896 1.7171,-2.54341 9.9117,-3.51466 13.6742,-3.46913 z"
       fill="#3b82f6"
       id="path1" />
    <path
       d="m 20.791,19.799766 c -1.7463,-2.8631 -3.6507,-5.8032 -7.0139,-10.7848 C 12.06,6.471556 3.86535,5.500306 0.102844,5.545836 l 3.051396,7.85493 c 0.67998,1.7504 2.01381,3.1679 3.71966,3.953 l 6.0025,2.7625 -7.38646,-0.6862 4.07734,10.4015 c 0.30818,0.7862 1.03672,1.3341 1.87742,1.4127 0.9023,0.0844 1.7365,0.159 2.5093,0.2279 1.3403,-2.2827 2.4323,-4.1606 3.3809,-5.7916 1.34,-2.3043 2.3937,-4.1162 3.4561,-5.8808 z"
       fill="#3b82f6"
       id="path2" />
    <path
       d="m 23.9717,33.914466 c 0.2644,0.2596 0.5159,0.5539 0.7654,0.8895 1.2282,1.6524 3.4038,2.3881 5.1868,1.3587 l 0.3615,-0.2087 c -0.5428,-0.917 -1.0512,-1.7787 -1.5294,-2.5912 -2.0934,0.1885 -3.6037,0.3366 -4.7843,0.5517 z"
       fill="#3b82f6"
       id="path3" />
    <path
       fill-rule="evenodd"
       clip-rule="evenodd"
       d="m 32.1694,4.514346 c -0.2416,0.10128 -0.4864,0.2116 -0.7299,0.33221 -2.8454,-1.62412 -6.1394,-2.55214 -9.6502,-2.55214 -3.4912,0 -6.7681,0.91774 -9.6026,2.52513 C 11.9613,4.709406 11.735,4.607986 11.5116,4.514306 10.8787,4.248936 10.1922,4.014886 9.4781,3.808836 12.9807,1.405976 17.2208,0 21.7893,0 c 4.5818,0 8.8332,1.414126 12.3417,3.829736 -0.6883,0.20095 -1.35,0.42816 -1.9616,0.68461 z m -10.3801,39.06412 c 12.0339,-10e-5 21.7893,-9.7555 21.7893,-21.7893 0,-2.2239 -0.3332,-4.3699 -0.9522,-6.3909 -0.6585,1.0698 -0.9557,1.5255 -1.8069,2.1406 0.3042,1.3682 0.4647,2.7905 0.4647,4.2503 0,10.7667 -8.7282,19.4949 -19.495,19.4949 v 2e-4 c -10.7667,-1e-4 -19.49478,-8.7282 -19.49478,-19.4949 0,-1.4598 0.16044,-2.8821 0.46466,-4.2502 -0.85119,-0.6151 -1.14843,-1.0709 -1.806843,-2.1406 C 0.33314,17.419566 0,19.565566 0,21.789366 c 0,12.0339 9.75542,21.7893 21.7893,21.7893 z"
       fill="#1f2937"
       id="path4" />
  </g>
</svg>
