<svg width="58" height="57" viewBox="0 0 58 57" fill="none" xmlns="http://www.w3.org/2000/svg">
<g filter="url(#filter0_dd_940_5606)">
<path fill-rule="evenodd" clip-rule="evenodd" d="M30.9071 3C33.2469 3 35.1536 4.85001 35.2374 7.16371H35.8639C37.1352 7.16371 38.3634 7.62364 39.3207 8.45821L46.4664 14.6877C47.604 15.6794 48.2583 17.1116 48.2627 18.6181L50.8162 43.8585C51.1676 46.8826 48.5226 48.3032 46.2474 49.8865C45.3551 50.5841 44.231 51 43.0095 51H12.4054C9.50407 51 7.1521 48.6538 7.1521 45.7595V18.6337C7.1521 17.1214 7.807 15.6828 8.9485 14.6877L16.0941 8.45821C17.0514 7.62364 18.2797 7.16371 19.551 7.16371H26.5769C26.6607 4.85001 28.5673 3 30.9071 3ZM30.9071 5.38955C31.9237 5.38955 32.7574 6.17044 32.8384 7.16371H28.9758C29.0568 6.17044 29.8906 5.38955 30.9071 5.38955ZM26.574 13.1412V9.55326H19.551C18.8594 9.55326 18.1912 9.80347 17.6704 10.2575L10.5248 16.487C9.90376 17.0284 9.54749 17.811 9.54749 18.6337V45.7595C9.54749 47.334 10.827 48.6104 12.4054 48.6104H43.0095C44.5879 48.6104 45.8674 47.334 45.8674 45.7595V18.6337C45.8674 17.811 45.5111 17.0284 44.8901 16.487L37.7445 10.2575C37.2237 9.80347 36.5555 9.55326 35.8639 9.55326H28.9694V13.1412H34.4754C35.1368 13.1412 35.6731 13.6761 35.6731 14.3359C35.6731 14.9958 35.1368 15.5307 34.4754 15.5307L20.9393 15.5307C20.2778 15.5307 19.7416 14.9958 19.7416 14.3359C19.7416 13.6761 20.2778 13.1412 20.9393 13.1412H26.574Z" fill="#292524"/>
<path d="M41.5954 24.6646C42.2534 24.9283 42.671 25.581 42.671 26.298V43.6673C42.671 44.6628 41.8745 45.4698 40.892 45.4698H14.5214C13.5389 45.4698 12.7424 44.6628 12.7424 43.6673V26.4951C12.7424 25.8006 13.1342 25.1637 13.7633 24.888C17.8526 23.0958 22.6512 22.0698 27.8206 22.0698C32.7712 22.0698 37.4689 23.0108 41.5954 24.6646Z" fill="#16B364"/>
</g>
<defs>
<filter id="filter0_dd_940_5606" x="0.5" y="0" width="57" height="57" filterUnits="userSpaceOnUse" color-interpolation-filters="sRGB">
<feFlood flood-opacity="0" result="BackgroundImageFix"/>
<feColorMatrix in="SourceAlpha" type="matrix" values="0 0 0 0 0 0 0 0 0 0 0 0 0 0 0 0 0 0 127 0" result="hardAlpha"/>
<feOffset dy="1.5"/>
<feGaussianBlur stdDeviation="1.5"/>
<feColorMatrix type="matrix" values="0 0 0 0 0.0627451 0 0 0 0 0.0941176 0 0 0 0 0.156863 0 0 0 0.06 0"/>
<feBlend mode="normal" in2="BackgroundImageFix" result="effect1_dropShadow_940_5606"/>
<feColorMatrix in="SourceAlpha" type="matrix" values="0 0 0 0 0 0 0 0 0 0 0 0 0 0 0 0 0 0 127 0" result="hardAlpha"/>
<feOffset dy="1.5"/>
<feGaussianBlur stdDeviation="2.25"/>
<feColorMatrix type="matrix" values="0 0 0 0 0.0627451 0 0 0 0 0.0941176 0 0 0 0 0.156863 0 0 0 0.1 0"/>
<feBlend mode="normal" in2="effect1_dropShadow_940_5606" result="effect2_dropShadow_940_5606"/>
<feBlend mode="normal" in="SourceGraphic" in2="effect2_dropShadow_940_5606" result="shape"/>
</filter>
</defs>
</svg>