<svg width="69" height="69" viewBox="0 0 69 69" fill="none" xmlns="http://www.w3.org/2000/svg">
<path d="M46.7551 33.6079C46.8931 33.7391 47.0029 33.8969 47.078 34.0719C47.153 34.2469 47.1917 34.4353 47.1917 34.6257C47.1917 34.8161 47.153 35.0045 47.078 35.1794C47.0029 35.3544 46.8931 35.5123 46.7551 35.6435L35.581 46.819C35.4514 46.9596 35.294 47.0719 35.1189 47.1487C34.9437 47.2254 34.7545 47.2651 34.5633 47.2651C34.372 47.2651 34.1829 47.2254 34.0077 47.1487C33.8326 47.0719 33.6752 46.9596 33.5456 46.819L27.9484 41.2414L22.3308 35.6028C22.1902 35.4731 22.0779 35.3158 22.0012 35.1406C21.9244 34.9654 21.8848 34.7762 21.8848 34.585C21.8848 34.3937 21.9244 34.2045 22.0012 34.0293C22.0779 33.8541 22.1902 33.6968 22.3308 33.5671L33.5049 22.3916C33.6345 22.251 33.7919 22.1387 33.967 22.062C34.1422 21.9852 34.3314 21.9456 34.5226 21.9456C34.7138 21.9456 34.903 21.9852 35.0782 22.062C35.2533 22.1387 35.4107 22.251 35.5403 22.3916L41.1375 27.9692L46.7551 33.6079Z" fill="#2C1B1B"/>
<path d="M58.2142 43.521C57.9478 43.782 57.5897 43.9282 57.2168 43.9282H47.325C47.0442 43.934 46.7682 43.8555 46.5325 43.7029C46.2968 43.5503 46.1122 43.3305 46.0027 43.0719C45.8931 42.8133 45.8636 42.5278 45.9179 42.2523C45.9722 41.9767 46.1078 41.7238 46.3073 41.5261L52.0267 35.5821C52.1646 35.4509 52.2744 35.2931 52.3495 35.1181C52.4245 34.9431 52.4633 34.7547 52.4633 34.5643C52.4633 34.3739 52.4245 34.1855 52.3495 34.0106C52.2744 33.8356 52.1646 33.6777 52.0267 33.5465L46.3073 27.6025C46.1078 27.4049 45.9722 27.1519 45.9179 26.8764C45.8636 26.6009 45.8931 26.3154 46.0027 26.0568C46.1122 25.7982 46.2968 25.5784 46.5325 25.4258C46.7682 25.2731 47.0442 25.1947 47.325 25.2005H57.2168C57.5897 25.2004 57.9478 25.3466 58.2142 25.6076L66.1521 33.5262C66.29 33.6574 66.3998 33.8152 66.4749 33.9902C66.5499 34.1652 66.5887 34.3536 66.5887 34.544C66.5887 34.7344 66.5499 34.9228 66.4749 35.0977C66.3998 35.2727 66.29 35.4306 66.1521 35.5618L58.2142 43.521Z" fill="#D95767"/>
<path d="M10.7698 43.5212C11.0436 43.7835 11.4084 43.9294 11.7875 43.9283H21.6794C21.9559 43.9246 22.2254 43.8405 22.4549 43.6862C22.6844 43.5319 22.8641 43.3141 22.972 43.0595C23.0799 42.8048 23.1113 42.5242 23.0625 42.252C23.0137 41.9798 22.8867 41.7276 22.697 41.5263L16.9777 35.5823C16.8397 35.4511 16.7299 35.2932 16.6549 35.1183C16.5798 34.9433 16.5411 34.7549 16.5411 34.5645C16.5411 34.3741 16.5798 34.1857 16.6549 34.0108C16.7299 33.8358 16.8397 33.6779 16.9777 33.5467L22.697 27.6027C22.8867 27.4014 23.0137 27.1493 23.0625 26.877C23.1113 26.6048 23.0799 26.3242 22.972 26.0696C22.8641 25.8149 22.6844 25.5971 22.4549 25.4428C22.2254 25.2886 21.9559 25.2044 21.6794 25.2007H11.7875C11.4084 25.1996 11.0436 25.3456 10.7698 25.6078L2.85226 33.5264C2.71164 33.656 2.59942 33.8134 2.52265 33.9885C2.44589 34.1637 2.40625 34.3529 2.40625 34.5442C2.40625 34.7354 2.44589 34.9246 2.52265 35.0998C2.59942 35.275 2.71164 35.4323 2.85226 35.562L10.7698 43.5212Z" fill="#D95767"/>
<path d="M21.5979 9.099C21.5904 8.72361 21.4371 8.36589 21.1705 8.10155L14.1892 1.09903C13.9913 0.904833 13.7411 0.772595 13.4692 0.718522C13.1973 0.664449 12.9155 0.690891 12.6584 0.794614C12.4012 0.898336 12.18 1.07483 12.0217 1.30246C11.8634 1.53009 11.7749 1.79897 11.7671 2.07614L11.6043 10.3204C11.5991 10.6859 11.4515 11.0349 11.1931 11.2933C10.9347 11.5518 10.5857 11.6993 10.2203 11.7046L1.97706 11.9489C1.69551 11.947 1.41992 12.0299 1.18604 12.1866C0.952147 12.3434 0.770747 12.5668 0.665424 12.828C0.560101 13.0891 0.535715 13.3759 0.59539 13.6511C0.655066 13.9263 0.796065 14.1772 1.0001 14.3712L8.08315 21.272C8.20972 21.4097 8.36405 21.519 8.53596 21.5927C8.70787 21.6664 8.89348 21.7028 9.08048 21.6995H20.2953C20.6732 21.6995 21.0356 21.5493 21.3028 21.2821C21.57 21.0149 21.7201 20.6524 21.7201 20.2745L21.5979 9.099Z" fill="#D95767"/>
<path d="M21.5979 60.1114C21.5904 60.4868 21.4371 60.8445 21.1705 61.1089L14.1892 68.1114C13.9913 68.3056 13.7411 68.4378 13.4692 68.4919C13.1973 68.546 12.9155 68.5195 12.6584 68.4158C12.4012 68.3121 12.18 68.1356 12.0217 67.9079C11.8634 67.6803 11.7749 67.4114 11.7671 67.1343L11.6043 58.9918C11.5991 58.6263 11.4515 58.2773 11.1931 58.0188C10.9347 57.7604 10.5857 57.6129 10.2203 57.6076L1.97706 57.343C1.69551 57.3448 1.41992 57.262 1.18604 57.1052C0.952147 56.9484 0.770747 56.725 0.665424 56.4638C0.560101 56.2027 0.535715 55.9159 0.59539 55.6407C0.655066 55.3655 0.796065 55.1146 1.0001 54.9206L8.08315 47.9384C8.20972 47.8007 8.36405 47.6914 8.53596 47.6177C8.70787 47.544 8.89348 47.5076 9.08048 47.5109H20.2953C20.6732 47.5109 21.0356 47.6611 21.3028 47.9283C21.57 48.1955 21.7201 48.558 21.7201 48.9359L21.5979 60.1114Z" fill="#D95767"/>
<path d="M47.4064 9.099C47.4064 8.72605 47.5525 8.36795 47.8135 8.10155L54.8966 1.09903C55.0944 0.904833 55.3447 0.772595 55.6166 0.718522C55.8885 0.664449 56.1703 0.690891 56.4274 0.794614C56.6845 0.898336 56.9058 1.07483 57.0641 1.30246C57.2224 1.53009 57.3109 1.79897 57.3186 2.07614L57.4611 10.3204C57.4716 10.6877 57.6235 11.0368 57.8852 11.2947C58.1469 11.5526 58.4981 11.6995 58.8655 11.7046L67.007 11.8674C67.2841 11.8752 67.5529 11.9637 67.7805 12.122C68.0082 12.2803 68.1846 12.5016 68.2883 12.7588C68.392 13.0159 68.4185 13.2977 68.3644 13.5697C68.3104 13.8416 68.1781 14.0919 67.9839 14.2898L61.0026 21.272C60.8745 21.4077 60.7199 21.5157 60.5483 21.5892C60.3768 21.6627 60.1919 21.7003 60.0053 21.6995H48.7905C48.4126 21.6995 48.0502 21.5493 47.783 21.2821C47.5158 21.0149 47.3657 20.6524 47.3657 20.2745L47.4064 9.099Z" fill="#D95767"/>
<path d="M47.4064 60.1115C47.4064 60.4844 47.5525 60.8425 47.8135 61.1089L54.8966 68.1114C55.0944 68.3056 55.3447 68.4379 55.6166 68.4919C55.8885 68.546 56.1703 68.5196 56.4274 68.4158C56.6845 68.3121 56.9058 68.1356 57.0641 67.908C57.2224 67.6804 57.3109 67.4115 57.3186 67.1343L57.4611 58.9919C57.4716 58.6245 57.6235 58.2755 57.8852 58.0175C58.1469 57.7596 58.4981 57.6127 58.8655 57.6076L67.007 57.4448C67.2841 57.437 67.5529 57.3485 67.7805 57.1902C68.0082 57.0319 68.1846 56.8106 68.2883 56.5535C68.392 56.2963 68.4185 56.0145 68.3644 55.7425C68.3104 55.4706 68.1781 55.2203 67.9839 55.0224L61.0026 47.9385C60.8745 47.8028 60.7199 47.6948 60.5483 47.6213C60.3768 47.5477 60.1919 47.5102 60.0053 47.511H48.7905C48.4126 47.511 48.0502 47.6611 47.783 47.9284C47.5158 48.1956 47.3657 48.558 47.3657 48.9359L47.4064 60.1115Z" fill="#D95767"/>
<path d="M25.5871 58.3202C25.4561 58.1896 25.3525 58.034 25.2826 57.8627C25.2127 57.6913 25.1778 57.5077 25.18 57.3227V47.4296C25.1838 47.1531 25.2679 46.8836 25.4222 46.654C25.5765 46.4244 25.7942 46.2448 26.0488 46.1368C26.3034 46.0289 26.584 45.9975 26.8562 46.0463C27.1284 46.0951 27.3805 46.2221 27.5818 46.4118L33.5047 52.1319C33.6373 52.2673 33.7957 52.3749 33.9704 52.4483C34.1452 52.5218 34.3328 52.5596 34.5224 52.5596C34.7119 52.5596 34.8995 52.5218 35.0743 52.4483C35.249 52.3749 35.4074 52.2673 35.54 52.1319L41.4833 46.4118C41.6846 46.2221 41.9367 46.0951 42.2089 46.0463C42.4811 45.9975 42.7616 46.0289 43.0162 46.1368C43.2709 46.2448 43.4886 46.4244 43.6429 46.654C43.7972 46.8836 43.8813 47.1531 43.885 47.4296V57.3227C43.8835 57.509 43.8449 57.6931 43.7715 57.8644C43.6981 58.0356 43.5914 58.1906 43.4576 58.3202L35.5604 66.2591C35.4292 66.397 35.2713 66.5069 35.0964 66.5819C34.9214 66.657 34.7331 66.6957 34.5427 66.6957C34.3523 66.6957 34.164 66.657 33.989 66.5819C33.8141 66.5069 33.6562 66.397 33.525 66.2591L25.5871 58.3202Z" fill="#D95767"/>
<path d="M25.5871 10.8904C25.4561 11.021 25.3525 11.1766 25.2826 11.3479C25.2127 11.5192 25.1778 11.7028 25.18 11.8879V21.7809C25.1838 22.0575 25.2679 22.327 25.4222 22.5565C25.5765 22.7861 25.7942 22.9658 26.0488 23.0737C26.3034 23.1816 26.584 23.2131 26.8562 23.1643C27.1284 23.1154 27.3805 22.9884 27.5818 22.7987L33.5047 17.0787C33.6373 16.9433 33.7957 16.8357 33.9704 16.7622C34.1452 16.6888 34.3328 16.651 34.5224 16.651C34.7119 16.651 34.8995 16.6888 35.0743 16.7622C35.249 16.8357 35.4074 16.9433 35.54 17.0787L41.4833 22.7987C41.6846 22.9884 41.9367 23.1154 42.2089 23.1643C42.4811 23.2131 42.7616 23.1816 43.0162 23.0737C43.2709 22.9658 43.4886 22.7861 43.6429 22.5565C43.7972 22.327 43.8813 22.0575 43.885 21.7809V11.9489C43.8835 11.7626 43.8449 11.5785 43.7715 11.4072C43.6981 11.236 43.5914 11.0811 43.4576 10.9515L35.5604 3.01257C35.4292 2.87461 35.2713 2.76476 35.0964 2.6897C34.9214 2.61464 34.7331 2.57593 34.5427 2.57593C34.3523 2.57593 34.164 2.61464 33.989 2.6897C33.8141 2.76476 33.6562 2.87461 33.525 3.01257L25.5871 10.8904Z" fill="#D95767"/>
</svg>
