<?xml version="1.0" encoding="UTF-8"?><svg xmlns="http://www.w3.org/2000/svg" fill="none" height="42" style="fill: none;" viewBox="0 0 42 42" width="42"><path d="M8.26697 29.6964L10.4634 29.896C10.4634 28.1374 10.5171 27.0161 10.5171 27.0161C7.23494 26.9523 3.96091 26.6649 0.717773 26.156C1.85537 30.3685 4.29289 34.1148 7.68331 36.8616C5.90929 28.867 6.39311 29.4813 8.26697 29.6964Z" fill="#FCB034"/><path d="M30.4455 2.41012C24.4488 -0.764943 17.278 -0.805099 11.2461 2.30261C10.7157 3.88013 10.4333 5.53045 10.4091 7.19461C14.2236 6.65224 18.0776 6.43898 21.9287 6.55719C24.6012 6.55719 24.7779 6.64934 25.1311 7.57092V10.2435C27.4811 10.2435 29.739 10.2435 31.705 10.3587C31.7047 7.65949 31.2797 4.97716 30.4455 2.41012Z" fill="#6EB43F"/><path d="M13.8269 35.2718C12.1681 35.0491 12.2372 34.3656 12.2295 33.8894C12.2295 33.7435 12.2295 32.1615 12.1604 30.0495C10.1022 29.8806 8.65843 29.75 8.28212 29.7116C6.3929 29.4889 5.90908 28.8822 7.6831 36.8615C16.4949 44.0067 29.4128 42.7439 36.6742 34.0276C33.3719 34.8494 26.5062 35.8708 13.8269 35.2718Z" fill="#F15C22"/><path d="M30.4456 2.41016C31.9815 6.32683 31.7204 13.1618 31.7588 13.5688C31.7972 13.9759 31.4746 15.1048 33.9475 15.051C36.2635 15.0422 38.5759 15.2323 40.8593 15.6193C39.4038 9.94587 35.6226 5.14962 30.4456 2.41016Z" fill="#626364"/><path d="M13.2583 16.5409C14.0877 16.5409 19.1409 16.4487 25.2156 16.4871L25.1158 7.617C24.7548 6.69543 24.5859 6.62631 21.9133 6.60327C15.9478 6.44561 9.98535 7.01556 4.15775 8.3005C0.594505 13.0517 -0.766631 19.0999 0.417709 24.9195C3.25922 25.1422 7.77491 25.2958 12.0602 25.3803L11.9297 17.7005C11.9297 17.7005 11.7069 16.5409 13.2583 16.5409Z" fill="#002D62"/><path d="M41.1433 16.8941C36.4279 16.5716 30.4454 16.4564 25.2078 16.418L25.2923 23.852C25.2923 23.852 25.4996 25.3879 23.1957 25.3879C22.0053 25.3879 17.1978 25.3879 12.0601 25.2958C12.1292 29.3583 12.206 33.5592 12.206 33.8049C12.206 34.2811 12.1445 34.9569 13.8034 35.1873C26.5057 35.794 33.379 34.7649 36.6737 33.9585C39.7854 30.253 41.4977 25.5728 41.5119 20.734C41.5075 19.4454 41.3841 18.16 41.1433 16.8941Z" fill="#0D5CAB"/><path d="M25.2924 23.8905L25.2079 16.4565C19.1333 16.4565 14.08 16.4565 13.2506 16.5103C11.7146 16.5103 11.922 17.6699 11.922 17.6699L12.0525 25.3497C17.1903 25.4572 21.9901 25.4726 23.1882 25.4419C25.5074 25.4035 25.2924 23.8905 25.2924 23.8905Z" fill="#B1BCE0"/></svg>