<?xml version="1.0" encoding="UTF-8" standalone="no"?>
<svg
   fill="none"
   height="63.860874"
   style="fill:none"
   viewBox="0 0 57.464237 63.860874"
   width="57.464237"
   version="1.1"
   id="svg12"
   sodipodi:docname="logobridge.svg"
   inkscape:version="1.4 (86a8ad7, 2024-10-11)"
   xmlns:inkscape="http://www.inkscape.org/namespaces/inkscape"
   xmlns:sodipodi="http://sodipodi.sourceforge.net/DTD/sodipodi-0.dtd"
   xmlns="http://www.w3.org/2000/svg"
   xmlns:svg="http://www.w3.org/2000/svg">
  <defs
     id="defs12" />
  <sodipodi:namedview
     id="namedview12"
     pagecolor="#ffffff"
     bordercolor="#000000"
     borderopacity="0.25"
     inkscape:showpageshadow="2"
     inkscape:pageopacity="0.0"
     inkscape:pagecheckerboard="0"
     inkscape:deskcolor="#d1d1d1"
     inkscape:zoom="2.8154206"
     inkscape:cx="102.82656"
     inkscape:cy="63.045643"
     inkscape:window-width="2560"
     inkscape:window-height="1387"
     inkscape:window-x="2552"
     inkscape:window-y="-8"
     inkscape:window-maximized="1"
     inkscape:current-layer="svg12" />
  <path
     d="M 53.3959,24.8843 12.2045,1.1021501 C 6.78014,-2.0294799 0,1.8852901 0,8.1485501 V 55.7126 c 0,6.2632 6.78014,10.1777 12.2045,7.0461 L 53.3962,38.9765 c 5.4241,-3.1313 5.4241,-10.9606 -3e-4,-14.0922 z M 22.5752,45.4954 h -6.3748 c -3.1141,0 -5.6386,-2.5246 -5.6386,-5.6386 V 12.7381 h 6.3748 c 3.114,0 5.6386,2.5245 5.6386,5.6386 z m 8.1315,0 c -3.3271,0 -6.0245,-2.6972 -6.0245,-6.0246 0,-3.3271 2.6971,-6.0245 6.0245,-6.0245 3.3271,0 6.0246,2.6971 6.0246,6.0245 0,3.3274 -2.6972,6.0246 -6.0246,6.0246 z"
     fill="#fff"
     id="path1"
     style="fill:#1a1a1a" />
</svg>
