<svg width="250" height="250" viewBox="0 0 250 250" fill="none" xmlns="http://www.w3.org/2000/svg">
<g clip-path="url(#clip0_2001_9)">
<path d="M124.999 72.292L107.689 89.582L124.999 106.872L142.309 89.582L124.999 72.292Z" fill="#662F90"/>
<path d="M100.963 48.2838L83.6518 31L66.3482 48.2838L25 89.5847L42.3115 106.876L71.4198 77.8014V169.073H95.8917V77.8014L107.696 89.5847L125 72.3009L100.963 48.2838Z" fill="#ED1B34"/>
<path d="M183.652 48.2838L166.348 31L149.037 48.2838L125 72.3009L142.312 89.5847L154.108 77.8014V169.073H178.588V77.8014L207.696 106.876L225 89.5847L183.652 48.2838Z" fill="#1183C6"/>
<path d="M25.6963 218L224.296 218V193.532L25.6963 193.532V218Z" fill="black"/>
</g>
<defs>
<clipPath id="clip0_2001_9">
<rect width="200" height="187" fill="white" transform="translate(25 31)"/>
</clipPath>
</defs>
</svg>
