<?xml version="1.0" encoding="UTF-8" standalone="no"?>
<svg
   height="649.98999"
   viewBox="0 0 650 649.98999"
   width="650"
   version="1.1"
   id="svg76"
   sodipodi:docname="okfn.svg"
   inkscape:version="1.4 (86a8ad7, 2024-10-11)"
   xmlns:inkscape="http://www.inkscape.org/namespaces/inkscape"
   xmlns:sodipodi="http://sodipodi.sourceforge.net/DTD/sodipodi-0.dtd"
   xmlns="http://www.w3.org/2000/svg"
   xmlns:svg="http://www.w3.org/2000/svg">
  <defs
     id="defs76" />
  <sodipodi:namedview
     id="namedview76"
     pagecolor="#ffffff"
     bordercolor="#000000"
     borderopacity="0.25"
     inkscape:showpageshadow="2"
     inkscape:pageopacity="0.0"
     inkscape:pagecheckerboard="0"
     inkscape:deskcolor="#d1d1d1"
     inkscape:zoom="0.527757"
     inkscape:cx="722.87057"
     inkscape:cy="258.64176"
     inkscape:window-width="2560"
     inkscape:window-height="1387"
     inkscape:window-x="-8"
     inkscape:window-y="-8"
     inkscape:window-maximized="1"
     inkscape:current-layer="svg76" />
  <g
     id="g37"
     transform="translate(-55.5,-55.010015)">
    <g
       id="g36">
      <g
         id="g35">
        <path
           d="m 513,381.4 -0.7,-15.4 -46.7,2.2 45.5,-10.5 -3.4,-15 -45.6,10.5 42.9,-18.4 -6.1,-14.2 -42.8,18.5 38.9,-25.8 -8.6,-12.9 -38.9,25.9 33.7,-32.4 -10.7,-11.1 -33.6,32.4 27.3,-37.9 -12.5,-9 -27.3,37.8 20.1,-42.1 -13.9,-6.6 -20.1,42.1 12.3,-45.1 -14.9,-4 -12.3,45 4.1,-46.5 -15.3,-1.3 -4.3,48.1 -4.6,-48.1 -15.3,1.5 4.4,46.5 -12.6,-45 -14.9,4.2 12.7,45 -20.5,-42 -13.8,6.8 20.5,41.9 -27.7,-37.6 -12.4,9.1 27.7,37.6 -34,-32.1 -10.5,11.2 33.9,32.1 -39.1,-25.5 -8.4,12.9 39.1,25.5 -43.1,-18.1 -5.9,14.2 43,18.1 -45.6,-10.1 -3.3,15 45.5,10.1 -46.6,-1.8 -0.6,15.4 46.6,1.8 -46.2,6.5 2.1,15.3 46.3,-6.5 -44.4,14.6 4.9,14.7 44.3,-14.7 -41,22.3 7.3,13.6 41.1,-22.3 -36.4,29.2 9.6,12 36.4,-29.3 -30.5,35.4 11.6,10 30.6,-35.3 -23.8,40.2 13.2,7.9 23.8,-40.2 -16.2,43.8 14.4,5.3 16.3,-43.8 -8.2,46 15.2,2.7 8.1,-46 0.2,46.7 15.4,-0.1 -0.2,-46.7 8.6,46 15.1,-2.9 -8.5,-45.9 16.6,43.7 14.4,-5.5 -16.6,-43.6 24.1,40 13.2,-8 -24.1,-40 30.8,35.1 11.6,-10.2 -30.9,-35.1 36.6,29 9.6,-12.1 -36.6,-29 41.2,22 7.2,-13.5 -41.1,-22 44.4,14.2 4.7,-14.6 -44.5,-14.3 46.4,6.1 2,-15.3 -46.3,-6.1 z"
           id="path35" />
      </g>
    </g>
  </g>
  <g
     id="g71"
     transform="translate(-55.5,-55.010015)">
    <path
       d="m 594.4,397.1 111.1,14.9 -2.8,20.9 -111.1,-15 z"
       id="path37" />
    <path
       d="m 469.8,124.8 h 173.9 v 21 H 469.8 Z"
       transform="rotate(-54.232,556.775,135.319)"
       id="path38" />
    <path
       d="m 449.1,138 h 83.8 v 21 h -83.8 z"
       transform="rotate(-64.519,490.986,148.529)"
       id="path39" />
    <path
       d="m 392.9,104.9 h 119.4 v 21 H 392.9 Z"
       transform="rotate(-74.805,452.597,115.37)"
       id="path40" />
    <path
       d="m 409.7,167.4 -21,-2 7.2,-83.5 20.9,1.8 z"
       id="path41" />
    <path
       d="m 350.4,167.4 -8.8,-93.4 20.9,-2 8.8,93.4 z"
       id="path42" />
    <path
       d="m 313,176.2 -17.4,-61.8 20.3,-5.7 17.3,61.9 z"
       id="path43" />
    <path
       d="m 267.3,146.1 h 21 v 43.1 h -21 z"
       transform="rotate(-25.96,277.759,167.647)"
       id="path44" />
    <path
       d="m 245.9,213 -10,-13.6 17,-12.4 9.9,13.6 z"
       id="path45" />
    <path
       d="m 218.3,239.8 -50.1,-47.5 14.5,-15.3 50.1,47.5 z"
       id="path46" />
    <path
       d="m 196,271 -77.2,-50.9 11.5,-17.6 77.2,51 z"
       id="path47" />
    <path
       d="m 179.6,305.8 -48.4,-20.5 8.2,-19.3 48.4,20.4 z"
       id="path48" />
    <path
       d="m 96,357.4 71.4,2.8 -0.9,21 -71.4,-2.8 z"
       id="path49" />
    <path
       d="M 126.6,401.5 H 169 v 21 h -42.4 z"
       transform="rotate(-7.946,147.787,411.93)"
       id="path50" />
    <path
       d="m 154,439.7 h 24.1 v 21 H 154 Z"
       transform="rotate(-18.239,166.054,450.19)"
       id="path51" />
    <path
       d="M 110.8,491.9 H 198 v 21 h -87.2 z"
       transform="rotate(-28.514,154.381,502.408)"
       id="path52" />
    <path
       d="m 130.3,532.5 h 94 v 21 h -94 z"
       transform="rotate(-38.806,177.314,543)"
       id="path53" />
    <path
       d="m 164.8,565.3 h 91.6 v 21 h -91.6 z"
       transform="rotate(-49.103,210.585,575.782)"
       id="path54" />
    <path
       d="m 239.8,571.3 h 42.3 v 21 h -42.3 z"
       transform="rotate(-59.388,260.894,581.844)"
       id="path55" />
    <path
       d="m 287.6,661 -19.7,-7.3 28.6,-77.2 19.7,7.3 z"
       id="path56" />
    <path
       d="m 299,616.9 h 75.6 v 21 H 299 Z"
       transform="rotate(-79.951,336.79,627.425)"
       id="path57" />
    <path
       d="m 392.3,646 -21,0.1 -0.2,-52.5 21,-0.1 z"
       id="path58" />
    <path
       d="m 428,691.8 -18.5,-99.9 20.6,-3.9 18.6,99.9 z"
       id="path59" />
    <path
       d="m 457.2,577.6 h 21 V 639 h -21 z"
       transform="rotate(-20.811,467.644,608.268)"
       id="path60" />
    <path
       d="m 482.2,568.3 83.5,136.7 18,-10.9 -83.5,-136.7 z"
       id="path61" />
    <path
       d="m 526.6,559.3 -11.9,-11.7 15,-14.8 11.8,11.7 z"
       id="path62" />
    <path
       d="m 595.2,562.6 -53.1,-42 13,-16.5 53.2,42 z"
       id="path63" />
    <path
       d="m 618.7,518.3 -54,-28.8 9.9,-18.5 54,28.7 z"
       id="path64" />
    <path
       d="m 607.4,463.2 -26,-8.3 6.4,-20 26,8.3 z"
       id="path65" />
    <path
       d="m 595.1,379.6 -1.1,-21 52,-2.5 1,21 z"
       id="path66" />
    <path
       d="m 588.4,313.2 h 65.7 v 21 h -65.7 z"
       transform="rotate(-13.094,621.342,323.666)"
       id="path67" />
    <path
       d="m 581.5,304.3 -8.4,-19.3 41.2,-17.8 8.3,19.3 z"
       id="path68" />
    <path
       d="m 564.8,269.7 -11.6,-17.5 108.4,-72.3 11.7,17.5 z"
       id="path69" />
    <path
       d="m 542.2,238.6 -14.5,-15.1 16.3,-15.8 14.5,15.2 z"
       id="path70" />
    <path
       d="m 55.5,317.3 114.2,25.6 4.6,-20.5 -114.1,-25.6 z"
       id="path71" />
  </g>
  <g
     id="g76"
     transform="translate(-55.5,-55.010015)">
    <g
       id="g73">
      <g
         id="g72">
        <path
           d="m 383.7,366.3 c -1.8,-4.3 -4.3,-8.1 -7.5,-11.2 -3.2,-3.2 -7.1,-5.6 -11.6,-7.4 -4.5,-1.8 -9.6,-2.7 -15.1,-2.7 h -27.6 v 71 h 27.6 c 5.5,0 10.6,-0.9 15.1,-2.7 4.5,-1.8 8.4,-4.2 11.6,-7.4 3.2,-3.2 5.7,-6.9 7.5,-11.3 1.8,-4.4 2.7,-9.1 2.7,-14.2 -0.1,-5.1 -1,-9.8 -2.7,-14.1 z M 368.1,390 c -0.9,2.8 -2.2,5.2 -3.9,7.2 -1.7,2 -3.8,3.5 -6.3,4.5 -2.5,1.1 -5.3,1.6 -8.4,1.6 h -11 v -45.7 h 11 c 3.2,0 6,0.5 8.4,1.6 2.5,1.1 4.6,2.6 6.3,4.5 1.7,2 3,4.4 3.9,7.2 0.9,2.8 1.4,6 1.4,9.5 0,3.6 -0.5,6.8 -1.4,9.6 z"
           fill="#ffffff"
           id="path72" />
      </g>
    </g>
    <g
       id="g75">
      <g
         id="g74">
        <path
           d="M 438.3,357.6 V 345 h -45.8 v 71 h 45.8 v -12.7 h -29.2 v -16.9 h 22.3 v -12.2 h -22.3 v -16.6 z"
           fill="#ffffff"
           id="path73" />
      </g>
    </g>
  </g>
</svg>
