<?xml version="1.0" encoding="UTF-8" standalone="no"?>
<svg
   fill="none"
   height="53.554062"
   style="fill:none"
   viewBox="0 0 54.897598 53.554062"
   width="54.897598"
   version="1.1"
   id="svg10"
   sodipodi:docname="oxidize.svg"
   inkscape:version="1.4 (86a8ad7, 2024-10-11)"
   xmlns:inkscape="http://www.inkscape.org/namespaces/inkscape"
   xmlns:sodipodi="http://sodipodi.sourceforge.net/DTD/sodipodi-0.dtd"
   xmlns="http://www.w3.org/2000/svg"
   xmlns:svg="http://www.w3.org/2000/svg">
  <defs
     id="defs10" />
  <sodipodi:namedview
     id="namedview10"
     pagecolor="#ffffff"
     bordercolor="#000000"
     borderopacity="0.25"
     inkscape:showpageshadow="2"
     inkscape:pageopacity="0.0"
     inkscape:pagecheckerboard="0"
     inkscape:deskcolor="#d1d1d1"
     inkscape:zoom="1.8129014"
     inkscape:cx="150.86314"
     inkscape:cy="89.63532"
     inkscape:window-width="2560"
     inkscape:window-height="1387"
     inkscape:window-x="2552"
     inkscape:window-y="-8"
     inkscape:window-maximized="1"
     inkscape:current-layer="svg10" />
  <path
     d="m 33.6713,53.553995 c -0.6797,-7e-4 -1.3401,-0.2273 -1.8785,-0.6443 -0.5385,-0.4171 -0.9249,-1.0014 -1.0991,-1.662 -0.1032,-0.3939 -0.1281,-0.8043 -0.0735,-1.2078 0.0547,-0.4036 0.1879,-0.7923 0.392,-1.1441 0.2042,-0.3517 0.4753,-0.6596 0.7978,-0.9059 0.3225,-0.2464 0.6901,-0.4264 1.0818,-0.5298 3.609,-0.9588 6.9032,-2.8563 9.5515,-5.5018 0.5795,-0.5797 1.3643,-0.9042 2.1818,-0.9021 0.8175,0.0021 1.6006,0.3307 2.1771,0.9134 0.2858,0.2883 0.5123,0.6305 0.6666,1.0069 0.1542,0.3764 0.2331,0.7797 0.2323,1.1868 -9e-4,0.4071 -0.0816,0.81 -0.2374,1.1858 -0.1558,0.3757 -0.3838,0.7168 -0.6708,1.0039 -3.4172,3.4139 -7.6682,5.8626 -12.3253,7.0995 -0.2598,0.0692 -0.5276,0.1033 -0.7963,0.1015 z m -12.6039,-0.0338 c -0.274,5e-4 -0.5469,-0.0362 -0.8112,-0.109 -4.6443,-1.2729 -8.8763,-3.7465 -12.27484,-7.1747 -0.28643,-0.2877 -0.51364,-0.6294 -0.66868,-1.0054 -0.15503,-0.3761 -0.23483,-0.7792 -0.23483,-1.1863 0,-0.4071 0.0798,-0.8102 0.23483,-1.1863 0.15504,-0.3761 0.38225,-0.7177 0.66868,-1.0054 0.57804,-0.5813 1.36201,-0.9078 2.17944,-0.9078 0.8175,0 1.6015,0.3265 2.1795,0.9078 2.6392,2.662 5.9259,4.5822 9.5328,5.5694 0.3907,0.1068 0.7566,0.2898 1.0769,0.5388 0.3203,0.2489 0.5887,0.5589 0.7899,0.9122 0.2012,0.3533 0.3312,0.743 0.3826,1.1468 0.0514,0.4038 0.0232,0.8138 -0.0831,1.2067 -0.176,0.6576 -0.5625,1.2387 -1.0996,1.6535 -0.5371,0.4147 -1.1951,0.6402 -1.8724,0.6416 z m 29.8881,-17.2253 c -0.2746,-3e-4 -0.548,-0.0369 -0.8131,-0.109 -0.3905,-0.1071 -0.7562,-0.2905 -1.0763,-0.5398 -0.3201,-0.2492 -0.5881,-0.5595 -0.789,-0.9129 -0.2008,-0.3535 -0.3304,-0.7433 -0.3815,-1.1471 -0.051,-0.4038 -0.0224,-0.8138 0.0842,-1.2065 0.4945,-1.8212 0.7459,-3.7004 0.7477,-5.5883 -0.0013,-1.8509 -0.2407,-3.6938 -0.7122,-5.483 v -0.0244 c -0.212,-0.7939 -0.1019,-1.6399 0.3061,-2.3522 0.408,-0.7123 1.0804,-1.2326 1.8696,-1.4466 0.7895,-0.2132 1.6308,-0.1025 2.3391,0.3078 0.7083,0.4102 1.2257,1.0865 1.4385,1.8801 l 0.015,0.0564 c 0.6052,2.3047 0.9124,4.6782 0.914,7.0619 -6e-4,2.4382 -0.3237,4.8654 -0.9607,7.2179 -0.1779,0.6578 -0.5664,1.2383 -1.1053,1.6518 -0.5389,0.4135 -1.1982,0.637 -1.8761,0.6358 z m -47.06389,-0.1466 c -0.67951,-6e-4 -1.33977,-0.227 -1.87798,-0.6442 -0.53821,-0.4171 -0.92414,-1.0015 -1.09773,-1.6622 v -0.0188 c -0.606528,-2.3057 -0.91437794,-4.6806 -0.9159,-7.0656 2.5227e-4,-2.4312 0.322079,-4.8515 0.957016,-7.1973 0.105904,-0.3928 0.287744,-0.7608 0.535124,-1.0829 0.24739,-0.3221 0.55547,-0.592 0.90664,-0.7943 0.35117,-0.2023 0.73853,-0.3331 1.13996,-0.3848 0.40144,-0.0517 0.80908,-0.0233 1.19961,0.0835 0.39068,0.1067 0.75665,0.2898 1.07696,0.5387 0.32032,0.249 0.58874,0.5589 0.78991,0.9122 0.20117,0.3533 0.33116,0.743 0.38255,1.1468 0.05139,0.4038 0.02316,0.8139 -0.08305,1.2067 -0.49267,1.8158 -0.74408,3.6892 -0.74767,5.5714 0.00126,1.8509 0.24064,3.6938 0.71216,5.483 v 0.0112 c 0.20867,0.7954 0.09498,1.6415 -0.31608,2.3527 -0.41107,0.7111 -1.08592,1.2292 -1.87645,1.4405 -0.25621,0.0683 -0.52001,0.1037 -0.78507,0.1053 z M 44.705,12.586695 c -0.4057,4e-4 -0.8075,-0.08 -1.1822,-0.2365 -0.3747,-0.1564 -0.7149,-0.3859 -1.001,-0.6752 C 39.881,9.0170648 36.5946,7.1002348 32.989,6.1149548 c -0.7889,-0.21513 -1.4606,-0.73661 -1.8672,-1.44972 -0.4066,-0.71312 -0.5149,-1.55946 -0.301,-2.35285 0.1059,-0.39304 0.2878,-0.76125 0.5353,-1.08358 0.2475,-0.32231997 0.5557,-0.59244997 0.907,-0.79494397 0.3514,-0.20249 0.7389,-0.333375 1.1406,-0.385175 0.4017,-0.0518 0.8095,-0.023497 1.2003,0.083285 4.6457,1.26855397 8.8797,3.73901397 12.2805,7.16529397 0.578,0.58128 0.9027,1.36965 0.9027,2.19169 0,0.8220402 -0.3247,1.6104402 -0.9027,2.1917402 -0.2859,0.2882 -0.6256,0.5168 -0.9997,0.6726 -0.374,0.1558 -0.775,0.2357 -1.1798,0.2352 z m -34.4488,-0.079 c -0.40549,5e-4 -0.80702,-0.0799 -1.18142,-0.2363 -0.3744,-0.1565 -0.71427,-0.386 -0.99996,-0.6753 -0.28643,-0.2877 -0.51364,-0.6294 -0.66868,-1.0054 -0.15503,-0.3761 -0.23483,-0.7792002 -0.23483,-1.1863202 0,-0.40711 0.0798,-0.81022 0.23483,-1.18629 0.15504,-0.37606 0.38225,-0.71771 0.66868,-1.00541 3.41498,-3.41592 7.66388,-5.8677 12.31968,-7.10889797 0.3913,-0.1044579977 0.7992,-0.130386 1.2005,-0.076298 0.4012,0.054087 0.7879,0.187129 1.138,0.391525 0.3501,0.204396 0.6567,0.476141 0.9024,0.79972097 0.2456,0.32358 0.4255,0.69265 0.5293,1.08614 0.2092,0.79462 0.0963,1.64029 -0.3142,2.35118 -0.4104,0.7109 -1.0847,1.22887 -1.8746,1.44011 -3.6085,0.96047 -6.9016,2.86003 -9.5478,5.5074402 -0.5759,0.5796 -1.3571,0.9055 -2.1719,0.906 z"
     fill="#fff"
     id="path1"
     style="fill:#a758e4;fill-opacity:1" />
  <path
     d="m 20.6319,40.556095 c -0.585,3e-4 -1.1578,-0.1679 -1.6505,-0.4849 l -0.0206,-0.0113 c -2.2182,-1.4263 -4.0426,-3.3926 -5.3041,-5.7166 -1.2616,-2.324 -1.9195,-4.9306 -1.9128,-7.5783 10e-5,-3.0186 0.8631,-5.9736 2.4861,-8.513 1.21,-1.9006 2.8142,-3.5158 4.7028,-4.7349 0.6875,-0.4446 1.5225,-0.5968 2.3215,-0.4231 0.799,0.1738 1.4967,0.6592 1.9402,1.3498 0.4425,0.6915 0.5938,1.5314 0.4207,2.3351 -0.1732,0.8036 -0.6566,1.5052 -1.3441,1.9505 -1.1451,0.7392 -2.1181,1.7182 -2.8523,2.8703 -0.9855,1.5405 -1.5098,3.3335 -1.5103,5.1653 -0.0051,1.6098 0.3944,3.1948 1.1613,4.6078 0.767,1.413 1.8765,2.6083 3.2256,3.4748 0.6854,0.4427 1.1685,1.1403 1.3437,1.9403 0.1751,0.8 0.0281,1.6372 -0.4091,2.3284 -0.2775,0.4405 -0.6612,0.8035 -1.1154,1.0552 -0.4541,0.2517 -0.9641,0.384 -1.4827,0.3846 z m 13.6449,-0.0131 c -0.5167,0.001 -1.0254,-0.1288 -1.4791,-0.3775 -0.4537,-0.2487 -0.8379,-0.6082 -1.1171,-1.0454 -0.4409,-0.6927 -0.5901,-1.5332 -0.4149,-2.3365 0.1753,-0.8034 0.6607,-1.5038 1.3494,-1.9473 1.1478,-0.7426 2.1222,-1.7263 2.8561,-2.8834 0.9861,-1.5404 1.511,-3.3334 1.5122,-5.1653 0.0047,-1.6098 -0.3949,-3.1946 -1.1618,-4.6076 -0.7669,-1.413 -1.8763,-2.6083 -3.2251,-3.475 -0.6871,-0.4431 -1.1714,-1.1421 -1.3466,-1.9438 -0.1752,-0.8017 -0.027,-1.6405 0.412,-2.3324 0.4388,-0.6934 1.1335,-1.183 1.9312,-1.3614 0.7978,-0.1783 1.6334,-0.0308 2.323,0.4102 l 0.0206,0.0132 c 2.2196,1.4257 4.0454,3.3919 5.3079,5.7164 1.2626,2.3244 1.9211,4.9318 1.9145,7.5804 3e-4,3.0189 -0.8634,5.9742 -2.4878,8.513 -1.2101,1.9067 -2.8172,3.5266 -4.7103,4.748 -0.5009,0.3261 -1.0856,0.498 -1.6823,0.4944 z"
     fill="#fff"
     id="path2"
     style="fill:#a758e4;fill-opacity:1" />
  <path
     d="m 27.4169,30.650195 c -1.0258,5e-4 -2.0099,-0.4087 -2.7358,-1.1376 -0.7259,-0.7289 -1.1342,-1.7179 -1.1352,-2.7495 0.0015,-1.03 0.409,-2.0174 1.1333,-2.7457 0.7242,-0.7283 1.7061,-1.1381 2.7303,-1.1396 1.0242,0.0015 2.0061,0.4113 2.7303,1.1396 0.7242,0.7283 1.1318,1.7157 1.1333,2.7457 -0.001,1.029 -0.4073,2.0157 -1.13,2.7442 -0.7227,0.7285 -1.7029,1.1395 -2.7262,1.1429 z"
     fill="#fff"
     id="path3"
     style="fill:#a758e4;fill-opacity:1" />
</svg>
