<?xml version="1.0" encoding="UTF-8" standalone="no"?>
<svg
   fill="none"
   height="55.552696"
   style="fill:none"
   viewBox="0 0 44.324417 55.552696"
   width="44.324417"
   version="1.1"
   id="svg8"
   sodipodi:docname="logo (4).svg"
   inkscape:version="1.4 (86a8ad7, 2024-10-11)"
   xmlns:inkscape="http://www.inkscape.org/namespaces/inkscape"
   xmlns:sodipodi="http://sodipodi.sourceforge.net/DTD/sodipodi-0.dtd"
   xmlns="http://www.w3.org/2000/svg"
   xmlns:svg="http://www.w3.org/2000/svg">
  <defs
     id="defs8" />
  <sodipodi:namedview
     id="namedview8"
     pagecolor="#ffffff"
     bordercolor="#000000"
     borderopacity="0.25"
     inkscape:showpageshadow="2"
     inkscape:pageopacity="0.0"
     inkscape:pagecheckerboard="0"
     inkscape:deskcolor="#d1d1d1"
     inkscape:zoom="2.0083333"
     inkscape:cx="-114.27386"
     inkscape:cy="-39.087137"
     inkscape:window-width="2560"
     inkscape:window-height="1387"
     inkscape:window-x="-8"
     inkscape:window-y="-8"
     inkscape:window-maximized="1"
     inkscape:current-layer="svg8" />
  <path
     d="M 40.3326,23.964497 H 29.1953 V 4.020897 C 29.1953,1.801357 27.3927,0 25.1717,0 H 4.02361 C 1.80258,0 0,1.801357 0,4.020897 v 20.7478 c 0,2.2196 1.80258,4.0209 4.02361,4.0209 H 24.367 v 10.0362 h -8.0794 c -2.2211,0 -4.0236,1.8013 -4.0236,4.0209 v 8.6851 c 0,2.2196 1.8025,4.0209 4.0236,4.0209 h 8.8841 c 2.221,0 4.0236,-1.8013 4.0236,-4.0209 v -7.8809 h 11.1051 c 2.2211,0 4.0236,-1.8014 4.0236,-4.0209 v -11.6446 c 0.0322,-2.2195 -1.8025,-4.0209 -3.9914,-4.0209 z M 4.82833,4.825077 H 24.367 v 19.13942 H 4.82833 Z M 24.367,50.727597 h -7.2747 v -7.0767 h 7.2747 z m 15.1609,-11.9018 H 29.2275 v -10.0362 h 10.3004 z"
     fill="#3c366b"
     id="path1" />
</svg>
