<?xml version="1.0" encoding="UTF-8" standalone="no"?>
<svg
   fill="none"
   height="47"
   style="fill: none;"
   viewBox="0 0 41 47"
   width="41"
   version="1.1"
   id="svg1"
   sodipodi:docname="Group 65.svg"
   inkscape:version="1.4 (86a8ad7, 2024-10-11)"
   xmlns:inkscape="http://www.inkscape.org/namespaces/inkscape"
   xmlns:sodipodi="http://sodipodi.sourceforge.net/DTD/sodipodi-0.dtd"
   xmlns="http://www.w3.org/2000/svg"
   xmlns:svg="http://www.w3.org/2000/svg">
  <defs
     id="defs1" />
  <sodipodi:namedview
     id="namedview1"
     pagecolor="#ffffff"
     bordercolor="#000000"
     borderopacity="0.25"
     inkscape:showpageshadow="2"
     inkscape:pageopacity="0.0"
     inkscape:pagecheckerboard="0"
     inkscape:deskcolor="#d1d1d1"
     inkscape:zoom="17.828118"
     inkscape:cx="20.725688"
     inkscape:cy="25.437346"
     inkscape:window-width="2560"
     inkscape:window-height="1387"
     inkscape:window-x="2552"
     inkscape:window-y="-8"
     inkscape:window-maximized="1"
     inkscape:current-layer="svg1" />
  <path
     d="M21.6673 24.5469C21.6673 24.5469 22.4174 25.2976 20.5122 25.7429C20.907 25.958 21.3699 26.0109 21.803 25.8905C22.236 25.77 22.6053 25.4855 22.8325 25.0974C23.7676 23.396 21.6673 24.5469 21.6673 24.5469ZM21.9424 12.4418C20.6225 16.0133 19.6332 19.6985 18.987 23.451C18.522 26.2834 19.3121 31.4127 19.3221 32.9189C19.3321 34.4252 19.277 37.3676 19.277 37.3676C19.7377 35.3938 20.0354 33.3853 20.1672 31.3626C20.3222 28.8105 19.9221 25.828 20.2972 25.2225C20.2972 25.2225 21.1072 23.6312 23.0875 25.3076C26.4079 28.1199 28.8032 24.622 28.8032 24.622C28.468 24.8773 28.0852 25.0628 27.6772 25.1676C27.2693 25.2725 26.8445 25.2945 26.4279 25.2325C25.1828 24.9523 22.3174 23.9815 21.9274 20.7788C21.5373 17.5761 21.9674 16.215 22.6425 14.3034C23.4575 11.9965 25.2428 13.4577 25.3028 11.6262C25.3096 11.545 25.2999 11.4633 25.2745 11.386C25.249 11.3086 25.2082 11.2372 25.1545 11.176C25.1008 11.1148 25.0354 11.0651 24.962 11.0298C24.8887 10.9945 24.809 10.9744 24.7277 10.9706C24.7277 10.9706 25.3228 11.471 24.7927 11.9464C24.3576 12.3268 23.0225 11.4961 23.9276 10.4452C24.8327 9.39431 26.7529 9.53943 26.7529 9.53943C26.7529 9.53943 23.6375 7.62282 21.9323 12.4418H21.9424ZM24.6477 40.2C24.8787 40.9114 25.182 41.5972 25.5528 42.2467C25.8078 42.647 25.7578 42.0666 25.4728 41.336C24.8974 39.7274 24.7041 38.0069 24.908 36.3106C25.112 34.6143 25.7077 32.9889 26.6479 31.5628C26.873 31.2275 27.233 30.6971 27.438 30.3868C27.8155 29.8189 28.1402 29.2175 28.4081 28.5903L28.4731 28.4202L28.3281 28.5503C28.1829 28.7333 28.0603 28.9333 27.9631 29.1458C27.505 29.9154 26.9633 30.632 26.3479 31.2826C25.7935 31.9375 25.3278 32.6627 24.9627 33.4394C24.7127 33.9798 24.4927 34.3201 24.3776 34.3201C24.2626 34.3201 24.1076 33.7246 24.1076 33.2892C24.1076 32.7138 24.0326 32.9139 23.9276 33.7897C23.8832 34.9057 23.9016 36.0234 23.9826 37.1375C24.1176 38.0232 24.6477 40.215 24.6477 40.215V40.2ZM15.0015 23.4861C15.0078 23.3582 14.9648 23.2329 14.8815 23.1358C14.7615 23.0307 14.7265 23.0457 14.1715 23.401C13.1949 23.9826 12.1731 24.4846 11.1161 24.9022C10.6516 25.0643 10.1793 25.203 9.70092 25.3176C9.10531 25.4712 8.49016 25.5353 7.87569 25.5078C6.68555 25.5078 6.82558 25.4127 6.70057 26.3835C6.61613 27.2631 6.64977 28.15 6.80059 29.0207C7.00189 29.9274 7.32485 30.8028 7.76069 31.6229C8.58632 33.253 9.23832 34.9655 9.70593 36.7321C9.87008 37.7247 9.89363 38.7355 9.77591 39.7346C9.44833 41.8824 8.80109 43.9689 7.8557 45.9248C7.38565 46.9256 7.27564 47.0858 7.20563 46.9657C7.21616 46.7704 7.26725 46.5795 7.35564 46.4052C7.87638 44.8743 8.23342 43.2925 8.42077 41.6862C8.52287 40.4792 8.47752 39.2643 8.28575 38.0682C7.9057 36.2167 7.0006 34.5303 6.17051 34.0999C5.97034 33.9747 5.74106 33.9038 5.50521 33.8942C5.26936 33.8845 5.03506 33.9365 4.82535 34.0449C3.97025 34.3902 3.6052 34.6704 2.51007 35.8264C1.46825 36.8488 0.74704 38.1531 0.434814 39.5795C0.214788 40.4902 0.14479 40.6654 0.0397779 40.5803C-0.0652345 40.4953 0.0397865 39.9648 0.329821 38.9339C0.641725 37.8319 1.05172 36.76 1.55494 35.7313C2.09679 34.5446 2.57587 33.3303 2.99014 32.0933C3.90595 29.959 4.97728 27.8951 6.1955 25.9181L6.56054 25.3176L5.86047 24.9473C4.58035 24.2777 3.42634 23.3904 2.45007 22.3251C2.04502 21.9047 1.52994 21.3243 1.30491 21.034C0.861831 20.4785 0.53683 19.8382 0.349812 19.1524C0.294806 18.8222 0.254797 18.8672 1.18991 18.2317C2.74284 17.2331 4.48389 16.5637 6.3055 16.265C8.24573 15.9047 9.55091 15.3693 11.8312 14.0031C12.6719 13.5441 13.4334 12.9527 14.0864 12.2517C14.9589 11.3573 15.8894 10.5215 16.8718 9.74959C17.9552 8.94602 19.1562 8.31473 20.4322 7.87804C21.1589 7.69219 21.8951 7.54519 22.6374 7.43767C23.7134 7.32474 24.7705 7.07416 25.7828 6.69205C26.4592 6.44345 27.0883 6.08129 27.643 5.62115C28.8882 4.62032 31.2135 2.95893 31.6435 2.72874C32.4239 2.25855 33.1618 1.72107 33.8488 1.1224C34.1909 0.808363 34.5705 0.53777 34.9789 0.316737C35.4495 0.0612566 35.9871 -0.0435482 36.5191 0.0164839C36.8341 0.136584 37.3692 1.45268 37.3692 2.10823C37.3692 2.3234 37.4192 2.40348 37.7392 2.70873C37.9393 2.88117 38.1033 3.09156 38.2218 3.32775C38.3402 3.56394 38.4108 3.82127 38.4293 4.08488C38.487 4.42775 38.487 4.77786 38.4293 5.12073C38.1205 6.80471 37.6413 8.4529 36.9991 10.0398C36.6945 10.6599 36.5864 11.3583 36.6891 12.0415C36.7691 12.3668 36.9291 12.3718 37.1891 12.0665C37.741 11.4112 38.352 10.8082 39.0144 10.265L39.5744 9.83467L39.9545 10.24C40.5899 10.9352 40.9306 11.8503 40.9046 12.7921C40.9521 13.5069 40.8604 14.2241 40.6346 14.9039C40.3095 15.8647 39.8795 16.5753 38.2943 18.7771C36.189 21.6996 35.874 22.205 35.2939 23.6812C34.2446 26.2522 33.8212 29.036 34.0588 31.803C34.0888 32.3334 34.0888 32.6037 34.0588 32.5386C33.8588 32.2133 33.6837 30.0365 33.7487 28.6354C33.7737 28.1349 33.8538 27.2392 33.9188 26.6787C34.0788 25.3876 34.0838 25.0223 33.9188 24.7271C33.8595 24.5982 33.7548 24.4957 33.6246 24.4394C33.4945 24.383 33.3481 24.3768 33.2137 24.4218C33.0037 24.4619 32.8487 24.577 32.3636 25.0824C31.4485 26.0382 30.6934 27.4794 30.6834 28.3001C30.6996 28.4777 30.6517 28.6552 30.5484 28.8005L30.4134 28.9656L30.4584 28.6003C30.5677 27.5439 30.8946 26.5215 31.4185 25.5978C32.3952 24.0907 33.6803 22.8081 35.1889 21.8347C36.3512 20.9731 37.2949 19.8504 37.9442 18.5569C38.8844 16.6654 39.1344 14.2383 38.4943 13.2575C38.4044 13.1118 38.2842 12.9872 38.1418 12.8922C37.9994 12.7972 37.8382 12.7341 37.6692 12.7071C37.2592 12.7071 36.7191 13.0073 35.929 13.6479L33.5987 15.5144C32.7536 16.185 32.0186 16.8055 31.9586 16.8956C31.8258 17.1609 31.7072 17.4332 31.6035 17.7112C31.3685 18.3268 31.3535 18.3518 31.2985 18.1616C31.2204 17.4216 31.2558 16.674 31.4035 15.9448C31.6361 14.692 32.149 13.5082 32.9036 12.4819C34.0588 11.0257 34.6989 9.9798 34.9439 9.18414C35.2297 8.24318 35.5892 7.32623 36.019 6.44184C36.9541 4.44017 36.9791 3.14909 36.089 2.72874C35.794 2.59363 35.779 2.55359 35.919 2.30839C35.9997 2.15661 36.031 1.98341 36.0086 1.81297C35.9861 1.64252 35.9111 1.48333 35.794 1.3576C35.7131 1.3155 35.6208 1.30056 35.5308 1.31498C35.4407 1.32939 35.3577 1.37241 35.2939 1.43767C35.2495 1.48406 35.2155 1.53941 35.1943 1.60002C35.173 1.66063 35.165 1.7251 35.1707 1.78908C35.1763 1.85307 35.1956 1.9151 35.2272 1.97101C35.2589 2.02692 35.3021 2.07541 35.3539 2.11323C35.474 2.23333 35.534 2.35342 35.514 2.41347C35.3689 2.55581 35.1995 2.67106 35.0139 2.75377C34.2238 3.16411 33.6538 3.07903 33.5537 2.54359C33.5325 2.38752 33.5532 2.2286 33.6137 2.08321C33.7138 1.84801 33.7138 1.843 33.6137 1.90305C33.3293 2.1354 33.1018 2.42983 32.9487 2.76377C32.7957 3.23498 32.6771 3.71664 32.5936 4.20498C32.2836 5.80631 32.2486 5.93142 31.8885 6.70706C31.4896 7.52899 30.9962 8.30152 30.4184 9.00899C29.9034 9.62255 29.462 10.2943 29.1032 11.0107C28.593 11.9624 28.3331 13.0283 28.3481 14.1082C28.3481 14.7638 28.2731 14.8138 28.1131 14.2684C27.949 13.5849 27.9218 12.8757 28.0331 12.1816C28.4185 10.8358 28.8878 9.51545 29.4382 8.22834C30.0083 6.8722 30.0833 6.61198 30.0433 6.06653C30.0433 5.69622 29.9883 5.63117 29.7733 5.431C29.4633 5.14577 29.2432 5.14076 28.7131 5.431C27.8846 5.86451 27.1922 6.51925 26.7129 7.32258C26.6131 7.52052 26.4995 7.71115 26.3729 7.89305L26.2479 8.0582V7.68288C26.2479 7.18247 26.1928 7.14243 25.5578 7.2275C24.917 7.30467 24.2906 7.47318 23.6976 7.72792C23.3695 7.82524 23.0917 8.0458 22.9225 8.34342C22.7906 8.50868 22.6905 8.69704 22.6274 8.89889C22.654 9.02902 22.7144 9.14983 22.8025 9.24918C23.0425 9.53942 22.9325 9.59447 22.2674 9.53442C21.3673 9.44434 21.1823 9.46937 20.6672 9.7446C20.1419 10.0015 19.7278 10.4408 19.5021 10.9806C19.1629 11.6483 18.9913 12.3885 19.002 13.1374C19.002 13.4977 19.002 13.763 18.947 13.7329C18.8205 13.3729 18.7169 13.0052 18.637 12.632C18.5368 12.1981 18.4116 11.7703 18.2619 11.3509C18.0322 10.9809 17.7098 10.6773 17.3268 10.4702C17.0868 10.4101 16.7367 10.5453 16.1917 10.9106C15.4409 11.4584 14.7853 12.1262 14.2514 12.8872C13.1863 14.2383 12.7513 15.3042 12.7513 16.6904C12.7081 17.3811 12.846 18.0711 13.1513 18.6921C13.2459 18.8672 13.3118 19.0565 13.3463 19.2525C13.2613 19.3376 13.1013 19.2025 12.7863 18.7871C12.1913 17.8465 11.2907 17.1396 10.236 16.7855C9.73658 16.6304 9.21104 16.5776 8.69079 16.6303C7.6145 16.6099 6.54301 16.7793 5.52541 17.1308C4.05524 17.6312 3.15515 18.2717 2.7301 19.1624C2.56126 19.4798 2.49321 19.8412 2.53507 20.1983C2.49602 20.5791 2.5727 20.9628 2.75509 21.2992C3.45731 22.6126 4.52345 23.6951 5.82546 24.4168C8.29576 25.4177 10.631 24.3218 9.39089 22.185C9.10954 21.621 8.69816 21.1322 8.19073 20.7588C7.95432 20.5372 7.6445 20.4106 7.32064 20.4035C6.77057 20.3534 6.86559 20.2484 7.60567 20.0932C8.14357 19.9533 8.7117 19.9848 9.23086 20.1833C9.98132 20.5891 10.6841 21.0775 11.3261 21.6395C11.8863 22.1716 12.5759 22.5477 13.3263 22.7304C14.2915 22.9806 14.9465 22.8856 14.8265 22.5052C14.7868 22.2148 14.7618 21.9225 14.7515 21.6295C14.6315 19.6529 15.2516 17.3359 16.1667 16.3201L16.4967 15.9598L16.3367 16.3351C15.4078 19.2912 15.3835 22.4576 16.2667 25.4277C17.7669 30.1316 16.4017 31.2175 16.4017 31.2175C16.4017 31.2175 16.9018 30.2167 15.7366 26.4636C15.3966 25.5139 15.1667 24.5283 15.0516 23.5261"
     fill="#fff"
     id="path1"
     style="fill:#01247f;fill-opacity:1" />
</svg>
