<?xml version="1.0" encoding="UTF-8" standalone="no"?>
<svg
   xmlns:dc="http://purl.org/dc/elements/1.1/"
   xmlns:cc="http://creativecommons.org/ns#"
   xmlns:rdf="http://www.w3.org/1999/02/22-rdf-syntax-ns#"
   xmlns:svg="http://www.w3.org/2000/svg"
   xmlns="http://www.w3.org/2000/svg"
   xmlns:xlink="http://www.w3.org/1999/xlink"
   xmlns:sodipodi="http://sodipodi.sourceforge.net/DTD/sodipodi-0.dtd"
   xmlns:inkscape="http://www.inkscape.org/namespaces/inkscape"
   version="1.1"
   viewBox="0 0 1036 612"
   height="612"
   width="1036"
   data-name="Layer 1"
   id="0315a8ac-3017-4957-93c4-92e478eebb20"
   sodipodi:docname="mobile-home.svg"
   inkscape:version="0.92.3 (2405546, 2018-03-11)">
  <sodipodi:namedview
     pagecolor="#ffffff"
     bordercolor="#666666"
     borderopacity="1"
     objecttolerance="10"
     gridtolerance="10"
     guidetolerance="10"
     inkscape:pageopacity="0"
     inkscape:pageshadow="2"
     inkscape:window-width="1366"
     inkscape:window-height="717"
     id="namedview17"
     showgrid="false"
     showguides="true"
     inkscape:guide-bbox="true"
     inkscape:zoom="1.8996139"
     inkscape:cx="1010.7438"
     inkscape:cy="103.70932"
     inkscape:window-x="0"
     inkscape:window-y="0"
     inkscape:window-maximized="1"
     inkscape:current-layer="0315a8ac-3017-4957-93c4-92e478eebb20">
    <sodipodi:guide
       position="1210.5151,208.82502"
       orientation="0,1"
       id="guide1039"
       inkscape:locked="false" />
  </sodipodi:namedview>
  <metadata
     id="metadata143">
    <rdf:RDF>
      <cc:Work
         rdf:about="">
        <dc:format>image/svg+xml</dc:format>
        <dc:type
           rdf:resource="http://purl.org/dc/dcmitype/StillImage" />
        <dc:title>web_devices</dc:title>
      </cc:Work>
    </rdf:RDF>
  </metadata>
  <defs
     id="defs12">
    <linearGradient
       gradientUnits="userSpaceOnUse"
       y2="240.27"
       x2="675.05"
       y1="606.02"
       x1="675.05"
       id="deacd444-d5db-4c24-9492-02e57292be3c">
      <stop
         id="stop2"
         stop-opacity="0.25"
         stop-color="gray"
         offset="0" />
      <stop
         id="stop4"
         stop-opacity="0.12"
         stop-color="gray"
         offset="0.54" />
      <stop
         id="stop6"
         stop-opacity="0.1"
         stop-color="gray"
         offset="1" />
    </linearGradient>
    <linearGradient
       xlink:href="#deacd444-d5db-4c24-9492-02e57292be3c"
       y2="301.65"
       x2="473.94"
       y1="635.65"
       x1="473.94"
       id="a1de9c2c-a914-4f57-a703-6b671b828453" />
    <linearGradient
       gradientTransform="matrix(1.0797005,0,0,1.0797005,629.33171,-151.26548)"
       xlink:href="#deacd444-d5db-4c24-9492-02e57292be3c"
       y2="401.65"
       x2="363.44"
       y1="662.65"
       x1="363.44"
       id="33ead0d0-8f65-4117-bca2-44ecb419ecb0" />
    <linearGradient
       xlink:href="#deacd444-d5db-4c24-9492-02e57292be3c"
       y2="385.5"
       x2="849.68"
       y1="703.66"
       x1="849.68"
       id="9a5964b5-9011-4675-8f60-8033350848c0" />
  </defs>
  <title
     id="title14">web_devices</title>
  <path
     style="opacity:0.2;fill:#0048a7;stroke-width:1.07970047"
     id="path16"
     d="m 881.33379,4.2869703 c -8.70239,-0.2483311 -17.62072,0 -25.78325,2.5049046 -22.20944,6.8237071 -32.73652,29.1519131 -29.31387,48.4461611 3.42265,19.294248 17.50195,36.105184 32.11029,51.469324 14.60835,15.36413 30.43676,30.55552 38.44814,48.92122 3.99489,9.16666 5.86277,19.43461 1.8031,28.59047 -6.26227,14.11169 -25.14623,21.9935 -43.2744,23.63465 -18.12817,1.64114 -36.33192,-1.55477 -54.52487,-2.62368 -7.63349,-0.44267 -15.48291,-0.49666 -22.67371,1.56557 -7.89261,2.24578 -14.46799,6.8345 -20.51431,11.61758 -23.59146,18.76519 -42.47542,44.36489 -39.41987,71.26023 3.45504,30.47994 34.2697,54.56806 68.02113,67.49208 11.1749,4.3188 22.99762,7.75225 32.8337,13.86335 25.91281,16.11993 31.73239,46.35154 29.15191,73.03094 -2.58049,26.6794 -11.36925,53.39119 -6.4782,79.83305 5.7548,30.76067 31.22493,58.55216 65.581,71.53016 30.60951,11.56359 68.91728,10.79701 96.09342,-5.51727 13.2479,-7.96819 23.2675,-19.03512 31.9807,-30.47994 a 245.89099,245.89099 0 0 0 31.7972,-55.06473 c 3.7897,-9.16665 7.3527,-19.02432 16.1955,-25.39455 5.3985,-3.91931 12.3949,-6.11111 19.3158,-7.81703 20.8598,-5.13938 42.8317,-6.54299 63.8859,-11.12092 21.0542,-4.57793 42.2379,-13.13995 53.6827,-28.36373 16.1955,-21.59401 8.6376,-49.25594 8.7132,-74.65049 0.1295,-57.93673 42.2271,-109.79474 57.764,-166.27388 5.0746,-18.45208 6.964,-38.86921 -4.3728,-55.33465 -7.6983,-11.1749 -20.6871,-19.24026 -34.3345,-25.47013 C 1217.9952,96.234268 1183.8659,90.133956 1150.298,84.195603 1103.6441,75.946691 1046.9923,74.877788 1010.8331,48.187592 976.13149,22.566299 928.65706,4.2869703 881.33379,4.2869703 Z" />
  <path
     style="fill:url(#33ead0d0-8f65-4117-bca2-44ecb419ecb0);stroke-width:1.07970047"
     id="path50"
     d="M 1080.7653,282.39622 H 962.72161 a 11.671562,11.671562 0 0 0 -11.69316,11.64997 v 258.50189 a 11.671562,11.671562 0 0 0 11.69316,11.64996 h 118.04369 a 11.671562,11.671562 0 0 0 11.6932,-11.64996 V 294.04619 a 11.671562,11.671562 0 0 0 -11.6932,-11.64997 z" />
  <rect
     style="fill:#535461;stroke-width:1.07970047"
     id="rect52"
     ry="11.876705"
     rx="11.876705"
     height="278.56271"
     width="139.28136"
     y="284.5556"
     x="952.09735" />
  <rect
     style="fill:#ffffff;stroke-width:1.07970047"
     id="rect54"
     height="226.73711"
     width="118.76705"
     y="310.46841"
     x="962.35455" />
  <path
     id="path922"
     d="m 1002.633,415.26556 c -4.72317,0 -8.57136,3.84819 -8.57136,8.57142 0,4.7232 3.84819,8.57139 8.57136,8.57139 4.7234,0 8.5714,-3.84819 8.5714,-8.57139 0,-4.72323 -3.848,-8.57142 -8.5714,-8.57142 z m 22.0001,7.18749 -8.4555,-4.22322 2.9912,-8.96426 c 0.4018,-1.21428 -0.7499,-2.36607 -1.9555,-1.95535 l -8.9642,2.99106 -4.232,-8.46427 c -0.5716,-1.14283 -2.1965,-1.14283 -2.768,0 l -4.22308,8.45534 -8.97336,-2.99106 c -1.21419,-0.40179 -2.36595,0.75 -1.95532,1.95537 l 2.99115,8.96425 -8.45534,4.23214 c -1.14295,0.57141 -1.14295,2.19641 0,2.76784 l 8.45534,4.22321 -2.99115,8.97318 c -0.4017,1.2143 0.74994,2.36606 1.95532,1.95536 l 8.96442,-2.99106 4.22322,8.45533 c 0.5713,1.14285 2.1965,1.14285 2.7677,0 l 4.2232,-8.45533 8.9643,2.99106 c 1.2144,0.40179 2.3662,-0.74999 1.9554,-1.95536 l -2.9912,-8.96425 8.4554,-4.22322 c 1.161,-0.58035 1.161,-2.20535 0.018,-2.77676 z m -13.9195,9.46425 c -4.4556,4.45535 -11.70542,4.45535 -16.16091,0 -4.45527,-4.45535 -4.45527,-11.70532 0,-16.16066 4.45549,-4.45534 11.70531,-4.45534 16.16091,0 4.4551,4.45534 4.4551,11.70531 0,16.16066 z"
     inkscape:connector-curvature="0"
     style="fill:#535461;fill-opacity:1;stroke-width:0.08928552" />
</svg>
