<?xml version="1.0" encoding="UTF-8" standalone="no"?>
<svg
   xmlns:dc="http://purl.org/dc/elements/1.1/"
   xmlns:cc="http://creativecommons.org/ns#"
   xmlns:rdf="http://www.w3.org/1999/02/22-rdf-syntax-ns#"
   xmlns:svg="http://www.w3.org/2000/svg"
   xmlns="http://www.w3.org/2000/svg"
   id="svg929"
   version="1.1"
   viewBox="0 0 5.3479676 5.3488798"
   height="5.3488798mm"
   width="5.3479676mm">
  <defs
     id="defs923" />
  <metadata
     id="metadata926">
    <rdf:RDF>
      <cc:Work
         rdf:about="">
        <dc:format>image/svg+xml</dc:format>
        <dc:type
           rdf:resource="http://purl.org/dc/dcmitype/StillImage" />
        <dc:title></dc:title>
      </cc:Work>
    </rdf:RDF>
  </metadata>
  <g
     transform="translate(-20.760539,-162.78987)"
     id="layer1">
    <path
       style="fill:#ffffff;stroke-width:0.01044601"
       d="m 26.035772,167.41429 -1.041466,-1.04146 c -0.047,-0.047 -0.110728,-0.0731 -0.177583,-0.0731 h -0.170269 c 0.288309,-0.36875 0.459625,-0.83255 0.459625,-1.33709 0,-1.20025 -0.972525,-2.17277 -2.172771,-2.17277 -1.200246,0 -2.172769,0.97252 -2.172769,2.17277 0,1.20024 0.972523,2.17277 2.172769,2.17277 0.504543,0 0.968345,-0.17132 1.337089,-0.45963 v 0.17027 c 0,0.0669 0.02612,0.13058 0.07312,0.17758 l 1.041468,1.04147 c 0.09819,0.0982 0.25697,0.0982 0.354119,0 l 0.295622,-0.29562 c 0.09819,-0.0982 0.09819,-0.25697 0.0011,-0.35516 z m -3.102464,-1.11459 c -0.738532,0 -1.337088,-0.59751 -1.337088,-1.33708 0,-0.73854 0.597511,-1.33709 1.337088,-1.33709 0.738533,0 1.337089,0.59751 1.337089,1.33709 0,0.73853 -0.597511,1.33708 -1.337089,1.33708 z"
       id="path903" />
  </g>
</svg>
