<?xml version="1.0" encoding="UTF-8" standalone="no"?>
<svg
   xmlns:dc="http://purl.org/dc/elements/1.1/"
   xmlns:cc="http://creativecommons.org/ns#"
   xmlns:rdf="http://www.w3.org/1999/02/22-rdf-syntax-ns#"
   xmlns:svg="http://www.w3.org/2000/svg"
   xmlns="http://www.w3.org/2000/svg"
   version="1.1"
   viewBox="0 0 1061.37 862.18"
   height="862.18"
   width="1061.37"
   data-name="Layer 1"
   id="028cd87a-0b35-461a-bfe3-3b7f66159f45">
  <metadata
     id="metadata146">
    <rdf:RDF>
      <cc:Work
         rdf:about="">
        <dc:format>image/svg+xml</dc:format>
        <dc:type
           rdf:resource="http://purl.org/dc/dcmitype/StillImage" />
        <dc:title>social_ideas</dc:title>
      </cc:Work>
    </rdf:RDF>
  </metadata>
  <defs
     id="defs9">
    <linearGradient
       gradientUnits="userSpaceOnUse"
       y2="18.91"
       x2="589.43"
       y1="881.09"
       x1="589.43"
       id="9d8dd509-b6b1-49aa-9217-31324d378028">
      <stop
         id="stop2"
         stop-opacity="0.25"
         stop-color="gray"
         offset="0" />
      <stop
         id="stop4"
         stop-opacity="0.12"
         stop-color="gray"
         offset="0.54" />
      <stop
         id="stop6"
         stop-opacity="0.1"
         stop-color="gray"
         offset="1" />
    </linearGradient>
  </defs>
  <title
     id="title11">social_ideas</title>
  <path
     id="path13"
     stroke-width="2"
     stroke-miterlimit="10"
     stroke="#535461"
     fill="none"
     transform="translate(-69.31 -18.91)"
     d="M209.12,550.42s-58.69-115-32.93-212.55c10.81-41,8.83-84.27-7.08-123.52A329,329,0,0,0,141.4,161" />
  <path
     id="path15"
     fill="#0048a7"
     transform="translate(-69.31 -18.91)"
     d="M157.27,99.37c2.8,14.92-16.09,63.24-16.09,63.24s-35.12-38.19-37.92-53.1a27.48,27.48,0,0,1,54-10.14Z" />
  <path
     id="path17"
     fill="#0048a7"
     transform="translate(-69.31 -18.91)"
     d="M217.42,173.62c-5.76,14-47.88,44.34-47.88,44.34s-8.73-51.14-3-65.19a27.48,27.48,0,1,1,50.85,20.85Z" />
  <path
     id="path19"
     fill="#0048a7"
     transform="translate(-69.31 -18.91)"
     d="M242,315.17c-12.06,9.22-63.71,14.1-63.71,14.1s18.28-48.56,30.34-57.77A27.48,27.48,0,0,1,242,315.17Z" />
  <path
     id="path21"
     fill="#0048a7"
     transform="translate(-69.31 -18.91)"
     d="M236.42,426.46C226.09,437.58,176,451.12,176,451.12s9.81-50.95,20.14-62.07a27.48,27.48,0,0,1,40.27,37.4Z" />
  <path
     id="path23"
     fill="#0048a7"
     transform="translate(-69.31 -18.91)"
     d="M113.37,231.48c12.65,8.39,64.51,9.8,64.51,9.8s-21.5-47.22-34.15-55.61a27.48,27.48,0,1,0-30.37,45.81Z" />
  <path
     id="path25"
     fill="#0048a7"
     transform="translate(-69.31 -18.91)"
     d="M108.54,361.72c14.58,4.22,64.49-10,64.49-10s-34.64-38.62-49.22-42.84a27.48,27.48,0,0,0-15.27,52.79Z" />
  <path
     id="path27"
     fill="#0048a7"
     transform="translate(-69.31 -18.91)"
     d="M121.21,488.94c13.66,6.62,65.24,1.09,65.24,1.09s-27.62-43.92-41.27-50.54a27.48,27.48,0,1,0-24,49.45Z" />
  <path
     id="path29"
     fill="#fc6681"
     transform="translate(-69.31 -18.91)"
     d="M157.27,99.37c2.8,14.92-16.09,63.24-16.09,63.24s-35.12-38.19-37.92-53.1a27.48,27.48,0,0,1,54-10.14Z" />
  <path
     id="path31"
     fill="#fc6681"
     transform="translate(-69.31 -18.91)"
     d="M217.42,173.62c-5.76,14-47.88,44.34-47.88,44.34s-8.73-51.14-3-65.19a27.48,27.48,0,1,1,50.85,20.85Z" />
  <path
     id="path33"
     fill="#fc6681"
     transform="translate(-69.31 -18.91)"
     d="M242,315.17c-12.06,9.22-63.71,14.1-63.71,14.1s18.28-48.56,30.34-57.77A27.48,27.48,0,0,1,242,315.17Z" />
  <path
     id="path35"
     fill="#fc6681"
     transform="translate(-69.31 -18.91)"
     d="M236.42,426.46C226.09,437.58,176,451.12,176,451.12s9.81-50.95,20.14-62.07a27.48,27.48,0,0,1,40.27,37.4Z" />
  <path
     id="path37"
     fill="#fc6681"
     transform="translate(-69.31 -18.91)"
     d="M113.37,231.48c12.65,8.39,64.51,9.8,64.51,9.8s-21.5-47.22-34.15-55.61a27.48,27.48,0,1,0-30.37,45.81Z" />
  <path
     id="path39"
     fill="#fc6681"
     transform="translate(-69.31 -18.91)"
     d="M108.54,361.72c14.58,4.22,64.49-10,64.49-10s-34.64-38.62-49.22-42.84a27.48,27.48,0,0,0-15.27,52.79Z" />
  <path
     id="path41"
     fill="#fc6681"
     transform="translate(-69.31 -18.91)"
     d="M121.21,488.94c13.66,6.62,65.24,1.09,65.24,1.09s-27.62-43.92-41.27-50.54a27.48,27.48,0,1,0-24,49.45Z" />
  <path
     id="path43"
     stroke-width="2"
     stroke-miterlimit="10"
     stroke="#535461"
     fill="none"
     transform="translate(-69.31 -18.91)"
     d="M987.94,336.08S1062.43,219,1071.43,169s26-96,26-96" />
  <path
     id="path45"
     fill="#0048a7"
     transform="translate(-69.31 -18.91)"
     d="M1114.43,173l-47,4S1092.43,220,1114.43,173Z" />
  <path
     id="path47"
     fill="#0048a7"
     transform="translate(-69.31 -18.91)"
     d="M1032.43,147l37.22,29.81S1021.43,196,1032.43,147Z" />
  <path
     id="path49"
     fill="#0048a7"
     transform="translate(-69.31 -18.91)"
     d="M1120.43,132l-42.32,5.67S1115.43,168,1120.43,132Z" />
  <path
     id="path51"
     fill="#0048a7"
     transform="translate(-69.31 -18.91)"
     d="M1050.43,117l27.94,19.61S1044.43,151,1050.43,117Z" />
  <path
     id="path53"
     fill="#0048a7"
     transform="translate(-69.31 -18.91)"
     d="M1088.74,99.19S1123.43,90,1128.43,92s2,24-12,25S1088.74,99.19,1088.74,99.19Z" />
  <path
     id="path55"
     fill="#0048a7"
     transform="translate(-69.31 -18.91)"
     d="M1065.43,73s22,21,23,26-18,17-28,0S1065.43,73,1065.43,73Z" />
  <circle
     id="circle57"
     fill="#ffd037"
     r="10"
     cy="56.09"
     cx="1037.11" />
  <circle
     id="circle59"
     fill="#ffd037"
     r="10"
     cy="51.09"
     cx="1019.11" />
  <path
     id="path61"
     fill="url(#9d8dd509-b6b1-49aa-9217-31324d378028)"
     transform="translate(-69.31 -18.91)"
     d="M1108.88,283.77c-3.89-48.19-25.81-94.63-60.21-121.83-36.82-29.12-83.33-34.56-125.23-52-43.27-18.06-81.76-49.11-124.61-68.47a254.8,254.8,0,0,0-219.77,5c-46.64,23.54-93.9,78.57-145.84,82.71-37,2.95-111.12-34.12-140,.95-5.27,6.4-7.31,15.4-9.58,23.87-18.3,68.19-63.37,123-114.69,162.24-21.74,16.6-48.2,38.86-43.45,68.61,2.56,16,13.8,27.74,22.16,40.76,17.51,27.25,23.19,64.3,14.84,96.92-.17.65-.35,1.3-.53,2l-21.84,11.1c-11.56,5.87-24,12.74-28.75,24.81-4.88,12.52.25,26.69,7.12,38.25,4.92,8.27,10.8,16.17,14.93,24.78a66.73,66.73,0,0,0,1.26,8.4,64.78,64.78,0,0,0,4,12.14c.37,13.57-4.77,27.29-12,39-9,14.61-21,27.07-31.11,40.9C81.53,743,71,765.4,69.49,789.12s6.93,48.74,25.3,63.82c16.86,13.84,39.64,18,61.42,19q8.28.41,16.55.35c38.84,0,77.48-7.14,115.75-14.28l41.41-7.72c19-3.55,38.85-7.55,57-14.38a91.33,91.33,0,0,1-2.21,11.3,108,108,0,0,0-3.9,33.29v0H584.65c0,.17.07.34.11.51H711.08l-.22-.51h.22s-1.93-6.08-4.51-17.15a37.6,37.6,0,0,0,8.21-5.4,40,40,0,0,0,13.74-15.4s6.08-108.84.14-170.65c65.47-43.56,121.68-107.38,190.43-144.61C954.83,508,993.73,496,1026.84,471.06a201.3,201.3,0,0,0,47.36-51.26C1099.26,381.19,1112.77,332,1108.88,283.77Z" />
  <path
     transform="translate(-69.31 -18.91)"
     fill="#0048a7"
     id="path63"
     d="M300.61,138c-5.14,6.24-7.12,15-9.34,23.27-17.84,66.49-61.78,120-111.83,158.18-21.19,16.18-47,37.89-42.36,66.89,2.49,15.58,13.45,27,21.61,39.74,17.08,26.57,22.61,62.7,14.47,94.5-9.26,36.19-35.12,70-27.11,106.56,4.94,22.56,21.7,38.56,37.82,52.34q37.71,32.23,77.83,60.37c17.93,12.58,37,24.82,57.89,26.41,18.4,1.41,36.42-5.58,53.88-12.49,15.26-6,30.91-12.31,43.23-24.4,8-7.89,14.46-18.08,23.39-24.53,21-15.17,47.94-5.55,72,.91a250.72,250.72,0,0,0,171.6-15.71c82.89-39,146.07-120.75,227.12-164.64,34.86-18.88,72.78-30.59,105.06-54.9a196.26,196.26,0,0,0,46.18-50c24.44-37.65,37.61-85.65,33.82-132.63s-25.17-92.27-58.7-118.79c-35.9-28.39-81.24-33.69-122.1-50.74-42.19-17.61-79.71-47.88-121.49-66.76a248.43,248.43,0,0,0-214.28,4.84c-45.47,22.95-91.55,76.61-142.2,80.64C401,140,328.79,103.85,300.61,138Z" />
  <path
     id="path67"
     fill="#ffd5d8"
     transform="translate(-69.31 -18.91)"
     d="M583.88,402.41C551.3,497.68,555,529.81,555,529.81l7,54s-141,20-119-46c12.61-37.84,9.78-98.7,5.06-143.73-3.51-33.52-8.06-58.27-8.06-58.27l162,17C595,371,589,387.47,583.88,402.41Z" />
  <path
     id="path69"
     opacity="0.1"
     transform="translate(-69.31 -18.91)"
     d="M602,352.81c-7,18.17-13,34.66-18.16,49.6a107,107,0,0,1-135.78-8.33c-3.51-33.52-8.06-58.27-8.06-58.27Z" />
  <circle
     id="circle71"
     fill="#ffd5d8"
     r="107"
     cy="294.9"
     cx="451.73" />
  <path
     id="path73"
     fill="#ffd5d8"
     transform="translate(-69.31 -18.91)"
     d="M593,589.81l-63-27,11-84a136,136,0,0,1,27.07,6c24.26,7.86,57,25.61,63.89,64.83a1.42,1.42,0,0,1,0,.2C643,613.81,593,589.81,593,589.81Z" />
  <path
     id="path75"
     opacity="0.05"
     transform="translate(-69.31 -18.91)"
     d="M632,549.61l-8.46,12.7-33.88,2.26V541.8s-8.12-26.49-8.12-28.49S568,487.56,568,487.56l-5.46-4.25,5.57,1.47C592.37,492.64,625.16,510.39,632,549.61Z" />
  <path
     id="path77"
     fill="#0048a7"
     transform="translate(-69.31 -18.91)"
     d="M562.54,483.31l19.5,36.5v45l27,7-17-47S572.54,487.31,562.54,483.31Z" />
  <path
     id="path79"
     fill="#0048a7"
     transform="translate(-69.31 -18.91)"
     d="M386,869.81v0a105.35,105.35,0,0,1,3.8-32.46c12.76-46.89-8.8-199.5-8.8-199.5s6-130,86-152c76.39-21,130,65.57,134.66,73.43.23.37.34.57.34.57l31.8-13.91.2-.09c0,.16,0,.33,0,.5.25,7.11,5.72,21.13,13.29,37.34a474,474,0,0,1,29.88,83.75,484.53,484.53,0,0,1,14.41,96.5C694.69,827.79,708,869.81,708,869.81Z" />
  <path
     id="path81"
     opacity="0.1"
     transform="translate(-69.31 -18.91)"
     d="M677.22,667.4l4.32,28.91-80-137,.16-.07,31.84-13.93.3.59.21.41c.25,7.11,5.72,21.13,13.29,37.34A474,474,0,0,1,677.22,667.4Z" />
  <path
     id="path83"
     opacity="0.1"
     transform="translate(-69.31 -18.91)"
     d="M471.59,165.76C429.43,161,384.82,171.34,352,198.23s-52,71.12-44.63,112.9c6.17,34.76,29.47,68.11,21.16,102.41-7.89,32.58-40.9,51.56-70.78,66.75L153.36,533.35c-11.27,5.73-23.44,12.42-28,24.19-4.76,12.21.24,26,6.94,37.29s15.25,21.81,18.38,34.54c4,16.23-1.66,33.46-10.39,47.7s-20.46,26.4-30.33,39.88C96.23,735.65,86,757.52,84.48,780.64s6.76,47.52,24.66,62.23c16.43,13.5,38.64,17.51,59.89,18.56,42.62,2.1,85-5.76,127-13.58l40.37-7.53c37.17-6.93,77.46-15.63,101.64-44.71,28-33.62,24.77-82.48,19.27-125.86S446.59,578.25,472,542.63c16.61-23.33,44.42-37.8,57.63-63.21,24.18-46.47-11-103.71.35-154.84,3.22-14.48,10.1-27.87,14.39-42.07,7.63-25.27,8.44-61.7-4.64-85.76C527.7,174.7,494.27,168.31,471.59,165.76Z" />
  <path
     id="path85"
     fill="#0048a7"
     transform="translate(-69.31 -18.91)"
     d="M469.59,165.76C427.43,161,382.82,171.34,350,198.23s-52,71.12-44.63,112.9c6.17,34.76,29.47,68.11,21.16,102.41-7.89,32.58-40.9,51.56-70.78,66.75L151.36,533.35c-11.27,5.73-23.44,12.42-28,24.19-4.76,12.21.24,26,6.94,37.29s15.25,21.81,18.38,34.54c4,16.23-1.66,33.46-10.39,47.7s-20.46,26.4-30.33,39.88C94.23,735.65,84,757.52,82.48,780.64s6.76,47.52,24.66,62.23c16.43,13.5,38.64,17.51,59.89,18.56,42.62,2.1,85-5.76,127-13.58l40.37-7.53c37.17-6.93,77.46-15.63,101.64-44.71,28-33.62,24.77-82.48,19.27-125.86S444.59,578.25,470,542.63c16.61-23.33,44.42-37.8,57.63-63.21,24.18-46.47-11-103.71.35-154.84,3.22-14.48,10.1-27.87,14.39-42.07,7.63-25.27,8.44-61.7-4.64-85.76C525.7,174.7,492.27,168.31,469.59,165.76Z" />
  <path
     id="path87"
     opacity="0.1"
     transform="translate(-69.31 -18.91)"
     d="M469.59,165.76C427.43,161,382.82,171.34,350,198.23s-52,71.12-44.63,112.9c6.17,34.76,29.47,68.11,21.16,102.41-7.89,32.58-40.9,51.56-70.78,66.75L151.36,533.35c-11.27,5.73-23.44,12.42-28,24.19-4.76,12.21.24,26,6.94,37.29s15.25,21.81,18.38,34.54c4,16.23-1.66,33.46-10.39,47.7s-20.46,26.4-30.33,39.88C94.23,735.65,84,757.52,82.48,780.64s6.76,47.52,24.66,62.23c16.43,13.5,38.64,17.51,59.89,18.56,42.62,2.1,85-5.76,127-13.58l40.37-7.53c37.17-6.93,77.46-15.63,101.64-44.71,28-33.62,24.77-82.48,19.27-125.86S444.59,578.25,470,542.63c16.61-23.33,44.42-37.8,57.63-63.21,24.18-46.47-11-103.71.35-154.84,3.22-14.48,10.1-27.87,14.39-42.07,7.63-25.27,8.44-61.7-4.64-85.76C525.7,174.7,492.27,168.31,469.59,165.76Z" />
  <path
     id="path89"
     fill="#0048a7"
     transform="translate(-69.31 -18.91)"
     d="M562.54,483.31l75,137.69,52-26.69s-93-126-105-124S562.54,483.31,562.54,483.31Z" />
  <path
     id="path91"
     fill="#ffd5d8"
     transform="translate(-69.31 -18.91)"
     d="M701,579.81l-17-50s-12-123-59-127,12,131,12,131,21,39,13,68S701,579.81,701,579.81Z" />
  <path
     id="path93"
     opacity="0.1"
     transform="translate(-69.31 -18.91)"
     d="M461.09,673.47,578,814.81s112,80,143,21c0,0,13-161-2-199s-20-62-20-62-62,24-66,7l1.5,162.5S564,484.81,496,516.81q-1.42.67-2.8,1.35C435,547.1,419.62,623.35,461.09,673.47Z" />
  <path
     id="path95"
     fill="#0048a7"
     transform="translate(-69.31 -18.91)"
     d="M465.09,670.47,582,811.81s112,80,143,21c0,0,9-161-6-199s-16-62-16-62-62,24-66,7l2.5,201.5S568,481.81,500,513.81q-1.42.67-2.8,1.35C439,544.1,423.62,620.35,465.09,670.47Z" />
  <circle
     id="circle97"
     fill="#fff"
     r="8"
     cy="115.4"
     cx="692.23" />
  <circle
     id="circle99"
     fill="#fff"
     r="4"
     cy="226.4"
     cx="666.23" />
  <circle
     id="circle101"
     fill="#fff"
     r="4"
     cy="115.4"
     cx="516.23" />
  <circle
     id="circle103"
     fill="#fff"
     r="4"
     cy="278.09"
     cx="183.69" />
  <circle
     id="circle105"
     fill="#fff"
     r="4"
     cy="567.4"
     cx="415.23" />
  <circle
     id="circle107"
     fill="#fff"
     r="4"
     cy="383.4"
     cx="144.23" />
  <circle
     id="circle109"
     fill="#fff"
     r="4"
     cy="145.4"
     cx="839.23" />
  <circle
     id="circle111"
     fill="#fff"
     r="4"
     cy="307.4"
     cx="612.23" />
  <circle
     id="circle113"
     fill="#fff"
     r="4"
     cy="255.4"
     cx="954.23" />
  <circle
     id="circle115"
     fill="#fff"
     r="4"
     cy="553.09"
     cx="692.69" />
  <polygon
     id="polygon117"
     fill="#fff"
     points="839.23 264.21 830.92 264.21 830.92 255.9 829.53 255.9 829.53 264.21 821.23 264.21 821.23 265.6 829.53 265.6 829.53 273.9 830.92 273.9 830.92 265.6 839.23 265.6 839.23 264.21" />
  <polygon
     id="polygon119"
     fill="#fff"
     points="423.23 760.6 419.54 760.6 419.54 756.9 418.92 756.9 418.92 760.6 415.23 760.6 415.23 761.21 418.92 761.21 418.92 764.9 419.54 764.9 419.54 761.21 423.23 761.21 423.23 760.6" />
  <polygon
     id="polygon121"
     fill="#fff"
     points="588.23 647.6 584.53 647.6 584.53 643.9 583.92 643.9 583.92 647.6 580.23 647.6 580.23 648.21 583.92 648.21 583.92 651.9 584.53 651.9 584.53 648.21 588.23 648.21 588.23 647.6" />
  <polygon
     id="polygon123"
     fill="#fff"
     points="834.23 417.6 830.53 417.6 830.53 413.9 829.92 413.9 829.92 417.6 826.23 417.6 826.23 418.21 829.92 418.21 829.92 421.9 830.53 421.9 830.53 418.21 834.23 418.21 834.23 417.6" />
  <polygon
     id="polygon125"
     fill="#fff"
     points="666.23 475.6 662.53 475.6 662.53 471.9 661.92 471.9 661.92 475.6 658.23 475.6 658.23 476.21 661.92 476.21 661.92 479.9 662.53 479.9 662.53 476.21 666.23 476.21 666.23 475.6" />
  <polygon
     id="polygon127"
     fill="#fff"
     points="191.23 413.6 187.53 413.6 187.53 409.9 186.92 409.9 186.92 413.6 183.23 413.6 183.23 414.21 186.92 414.21 186.92 417.9 187.53 417.9 187.53 414.21 191.23 414.21 191.23 413.6" />
  <polygon
     id="polygon129"
     fill="#fff"
     points="592.23 178.6 588.53 178.6 588.53 174.9 587.92 174.9 587.92 178.6 584.23 178.6 584.23 179.21 587.92 179.21 587.92 182.9 588.53 182.9 588.53 179.21 592.23 179.21 592.23 178.6" />
  <polygon
     id="polygon131"
     fill="#fff"
     points="269.23 143.6 265.54 143.6 265.54 139.9 264.92 139.9 264.92 143.6 261.23 143.6 261.23 144.21 264.92 144.21 264.92 147.9 265.54 147.9 265.54 144.21 269.23 144.21 269.23 143.6" />
  <g
     id="text955"
     style="font-style:normal;font-variant:normal;font-weight:bold;font-stretch:normal;font-size:143.77209473px;line-height:1.25;font-family:'Fira Sans';-inkscape-font-specification:'Fira Sans Bold';opacity:0.15;fill:#ffffff;fill-opacity:1;stroke:none;stroke-width:95.84806061;stroke-miterlimit:4;stroke-dasharray:none;stroke-opacity:1"
     transform="rotate(12.58216,31.132674,-3.4321734)"
     aria-label="#">
    <path
       id="path957"
       style="font-style:normal;font-variant:normal;font-weight:900;font-stretch:normal;font-family:Overpass;-inkscape-font-specification:'Overpass Heavy';fill:#ffffff;stroke-width:95.84806061"
       d="m 752.45363,228.43378 3.73808,-24.29749 h -14.66476 l 2.5879,-18.25905 h 14.80853 l 2.73167,-18.25906 h -14.66476 l 2.5879,-18.11528 h 15.09607 l 2.87544,-21.70959 h 18.5466 l -3.30676,21.70959 h 15.95871 l 3.45053,-21.70959 h 18.11528 l -3.16298,21.70959 h 14.52098 l -2.44413,18.11528 h -14.80852 l -2.73167,18.25906 h 14.52098 l -2.73167,18.25905 h -14.52098 l -3.73808,24.29749 h -18.40283 l 3.59431,-24.29749 h -15.81493 l -3.73808,24.29749 z m 24.87257,-42.55654 h 15.95871 l 2.5879,-18.25906 h -15.81494 z" />
  </g>
</svg>
