<svg width="48" height="48" viewBox="0 0 48 48" fill="none" xmlns="http://www.w3.org/2000/svg">
<path fill-rule="evenodd" clip-rule="evenodd" d="M39.1297 0.00012207H43.6161C45.8322 0.00012207 47.67 1.74221 47.67 3.95942V43.7108C47.67 45.8753 45.8863 47.6702 43.6161 47.6702H34.0488L37.1298 39.2236C37.4541 38.2734 36.9676 37.2176 35.9947 36.9008C35.8325 36.8481 35.6704 36.7953 35.5082 36.7953C35.292 36.7953 35.1298 36.7953 34.9136 36.8481C34.3191 37.0064 33.8326 37.4287 33.6164 38.0094L32.9137 39.7515V32.5192C32.9137 31.3578 32.0489 30.4076 30.9138 30.1964H30.8057C30.6976 30.1964 30.5894 30.1964 30.4813 30.1964C30.3732 30.1964 30.3192 30.1964 30.2111 30.1964C30.157 30.1964 30.103 30.1964 30.0489 30.1964C29.9949 30.1964 29.9408 30.1964 29.8868 30.2492C29.8327 30.2492 29.7787 30.302 29.7246 30.302H29.6706C29.4003 30.4076 29.13 30.566 28.8598 30.7771V30.3548C28.8598 29.7741 28.5895 29.2462 28.2111 28.8239C28.1571 28.7711 28.103 28.7183 28.103 28.7183C27.9949 28.6127 27.8328 28.5071 27.6706 28.4015V25.6036C27.6706 25.0757 27.2382 24.6006 26.6436 24.6006H22.2654C21.5087 24.6006 21.0222 23.8615 21.3465 23.1753L30.157 5.49038C31.9408 2.21735 35.4001 0.0529128 39.1297 0.00012207ZM36.1568 15.8901C37.2919 15.8901 38.2108 14.9927 38.2108 13.8841C38.2108 12.7755 37.2919 11.8781 36.1568 11.8781C35.0217 11.8781 34.1029 12.7755 34.1029 13.8841C34.1029 14.9927 35.0217 15.8901 36.1568 15.8901Z" fill="#103253"/>
<path fill-rule="evenodd" clip-rule="evenodd" d="M28.5 5.00001C29.0001 3.00001 27.5 0 25 0H17.1079C13.2865 0 9.85268 2.15926 8.1358 5.59195L0.105196 22.091C-0.227105 22.7554 0.271341 23.5305 0.991326 23.5305H4.53587C5.20047 23.5305 5.69892 24.1396 5.47739 24.804L4.53587 28.292C4.53587 28.3473 4.59125 28.4027 4.64664 28.4027C7.30504 28.4027 9.40961 30.562 9.40961 33.2196V33.6625C9.40961 36.3201 7.24966 38.4793 4.64664 38.4793H2.7636C2.65283 38.4793 2.48668 38.4793 2.37591 38.4793C2.04361 38.424 1.71131 38.6454 1.60055 38.9776C0.382112 43.3515 3.64974 47.6701 8.1358 47.6701H18.3263V36.3755C18.3263 35.3789 19.1571 34.5484 20.154 34.5484H20.2648H20.3202C20.3755 34.5484 20.4309 34.5484 20.4863 34.5484V32.4998C20.4863 31.2264 21.5386 30.1744 22.8124 30.1744C23.4216 30.1744 23.9755 30.3959 24.3631 30.7834V30.3959C24.3631 29.4547 24.917 28.6242 25.7477 28.292V26.5756H22.4801C20.3202 26.5756 18.9356 24.3057 19.8771 22.3125L28.5 5.00001ZM14.228 15.9454C15.3356 15.9454 16.2218 15.0596 16.2218 13.9523C16.2218 12.8449 15.3356 11.959 14.228 11.959C13.1203 11.959 12.2342 12.8449 12.2342 13.9523C12.2342 15.0042 13.1203 15.9454 14.228 15.9454Z" fill="#377ABC"/>
</svg>
