<svg width="53" height="82" viewBox="0 0 53 82" fill="none" xmlns="http://www.w3.org/2000/svg">
<path d="M25.2953 27.5854V69.5641H27.7043V27.5854H25.2953Z" fill="#222831"/>
<path d="M22.8853 29.9847L26.4989 19.1902L30.1124 29.9847H22.8853Z" fill="#222831"/>
<path d="M26.501 69.5647L16.8648 44.3774L26.501 69.5647Z" fill="#222831"/>
<path d="M17.9895 43.9508L15.7381 44.8035L25.3743 69.9907L27.6257 69.138L17.9895 43.9508Z" fill="#222831"/>
<path d="M14.3449 47.8999L13.8624 36.5316L21.0985 45.338L14.3449 47.8999Z" fill="#222831"/>
<path d="M26.5002 69.5647L36.1364 44.3774L26.5002 69.5647Z" fill="#222831"/>
<path d="M35.0096 43.9508L25.3734 69.138L27.6248 69.9907L37.261 44.8035L35.0096 43.9508Z" fill="#222831"/>
<path d="M31.9014 45.338L39.1375 36.5316L38.6551 47.8999L31.9014 45.338Z" fill="#222831"/>
<path d="M26.5002 81.5585C33.1526 81.5585 38.5455 76.1886 38.5455 69.5646C38.5455 62.9405 33.1526 57.5707 26.5002 57.5707C19.8479 57.5707 14.455 62.9405 14.455 69.5646C14.455 76.1886 19.8479 81.5585 26.5002 81.5585Z" fill="#F05454"/>
<path d="M26.4989 19.1903C31.8208 19.1903 36.1351 14.8944 36.1351 9.59513C36.1351 4.29589 31.8208 0 26.4989 0C21.177 0 16.8627 4.29589 16.8627 9.59513C16.8627 14.8944 21.177 19.1903 26.4989 19.1903Z" fill="#222831"/>
<path d="M9.63618 37.1812C14.9581 37.1812 19.2724 32.8853 19.2724 27.5861C19.2724 22.2869 14.9581 17.991 9.63618 17.991C4.31427 17.991 0 22.2869 0 27.5861C0 32.8853 4.31427 37.1812 9.63618 37.1812Z" fill="#222831"/>
<path d="M43.3638 37.1812C48.6857 37.1812 53 32.8853 53 27.5861C53 22.2869 48.6857 17.991 43.3638 17.991C38.0419 17.991 33.7276 22.2869 33.7276 27.5861C33.7276 32.8853 38.0419 37.1812 43.3638 37.1812Z" fill="#222831"/>
</svg>
