<svg width="72" height="67" viewBox="0 0 72 67" fill="none" xmlns="http://www.w3.org/2000/svg">
<path d="M16.3966 66.6539L28.4015 32.9816C18.2998 34.2992 9.07653 38.5449 1.31726 44.9865C3.22048 53.917 8.78372 61.5299 16.3966 66.6539Z" fill="#1F78D1"/>
<path d="M54.9003 66.6539C62.6596 61.8227 68.2228 54.0634 70.2724 44.9865C62.5132 38.2521 53.2899 34.0064 43.1882 32.9816L54.9003 66.6539Z" fill="#1F78D1"/>
<path d="M71.4438 38.1056V36.4952C71.4438 16.4382 55.4861 0.480469 35.8683 0.480469C16.2505 0.480469 0 16.4382 0 36.4952V38.1056C10.3945 30.3463 22.8386 26.1007 35.8683 26.1007C48.6052 26.1007 61.0493 30.3463 71.4438 38.1056Z" fill="#1F78D1"/>
</svg>
