<svg version="1" xmlns="http://www.w3.org/2000/svg" width="933.333" height="933.333" viewBox="0 0 700.000000 700.000000"><path d="M207.8 186.3C130.4 231 67.1 267.7 67.1 268c-.1.3 50.6 29.7 112.6 65.5 62 35.7 125.7 72.5 141.5 81.6l28.8 16.7 35-20.2c19.2-11 35-20.3 35-20.6 0-.4-47.5-28-105.5-61.5S209 268.3 209 268c.1-1.3 140.2-81.2 141.8-80.8 1 .3 32.8 18.4 70.7 40.3 38 21.9 74.9 43.2 82 47.3 7.2 4.1 23.1 13.3 35.5 20.5 12.4 7.2 23 13 23.6 13 1.3 0 70.4-39.6 70.3-40.3 0-.9-280.8-162.5-282.7-162.7-.9-.1-65 36.3-142.4 81z"/><path d="M350.3 267.8c-15 8.7-27.4 16-27.7 16.3-.3.3 12.1 7.8 27.6 16.8l28.1 16.2 23.1-13.3c12.7-7.2 25.4-14.6 28.3-16.3l5.2-3.1-27.6-16c-15.1-8.7-28-16-28.7-16.1-.6-.1-13.3 6.9-28.3 15.5zM101.8 411.3c-19.1 11.1-34.4 20.5-34 20.9C69.1 433.5 349.1 595 350 595c.9 0 280.9-161.5 282.2-162.8.8-.8-67.8-40.8-69.8-40.6-.6.1-48.4 27.4-106.2 60.8C398.4 485.7 350.6 513 350 513c-.6 0-48.3-27.2-105.9-60.5-57.7-33.2-105.4-60.7-106.2-60.9-.8-.2-17 8.6-36.1 19.7z"/></svg>