<svg xmlns="http://www.w3.org/2000/svg" xmlns:xlink="http://www.w3.org/1999/xlink" viewBox="0 0 1600 1200" xmlns:v="https://vecta.io/nano"><style><![CDATA[.S{fill:#161616}.T{fill:#fff}.U{fill:#4c4c4c}.V{opacity:.1}.W{fill:#5222d0}.X{fill:#e8e8e8}.Y{fill:#ec615b}]]></style><g class="Y"><circle r="12.8" cy="292.8" cx="367.7"/><circle r="9.4" cy="793.6" cx="573.8"/><circle r="13.4" cy="236.2" cx="1216.4"/><circle r="5.6" cy="228.5" cx="728.5"/></g><g class="W"><circle r="9.1" cy="245.4" cx="382"/><circle r="5" cy="778" cx="597.1"/><circle r="5.9" cy="199.6" cx="731.4"/><circle r="3.4" cy="205.9" cx="1184.7"/></g><g class="Y"><path d="M1166.6 606.1c2.6-5.2 8.7 1.5 10.5 3.5s4 4.2 6.8 4.7c5.3 1 7.8-3.8 12-5.6 5.9-2.7 7.3 7.2 11.6 9.3 2 1 3.6.5 5.6-.1 2.3-.6 4-2 6.5-1.3 3 .8 5.1 3.3 5.5 6.4.2 1.9 3.2 1.9 3 0-.6-6.1-6.4-11-12.6-9.4-2.6.7-5.2 2.8-7.6.9-1.4-1.1-2.2-3.3-3.2-4.8-1.4-2.1-3-4.1-5.6-4.5-3-.5-5.3 1.2-7.6 2.9-2.4 1.8-3.9 3.4-7 2.9-3.1-.6-4.6-2.9-6.7-5.1-3.3-3.6-10.8-7.2-13.8-1.3-.8 1.7 1.8 3.2 2.6 1.5zm23.1 21.2c4.6-.7 9.4.6 12.9 3.6 2.5 2.1 3.3 4.7 5 7.3 3.5 5.3 7.9.7 12.5.2 7.1-.8 10.8 7.5 17.6 8.6 4 .6 7.6-1.1 9.1-4.9.7-1.8-2.2-2.6-2.9-.8-3.4 8.5-14.2-3.2-18.3-5.1-1.8-.8-3.8-1.4-5.7-1.2-2.6.2-7.3 4-9.7 1.8-1.4-1.3-2-4.2-3.4-5.8-1.3-1.6-2.9-3-4.7-4-4.1-2.5-8.6-3.2-13.3-2.5-1.8.2-1 3.1.9 2.8zM290.6 459.9c-1.1-6.1-1.3-12.1 5.7-14.5 2.8-1 5.8-1.5 8.1-3.5 4.2-3.6 3.9-9.3 3.6-14.4-.2-3.7-1.1-9.4 4.5-7.9 1.8.5 3.7 1.2 5.5.3 1.4-.7 2-1.9 2.4-3.3.9-3 0-5.4 2.6-7.9 2.1-2.1 4.7-2.7 7.6-2.3 1.9.3 1.9-2.7 0-3-3.2-.4-6.2.3-8.7 2.3-3.2 2.5-3.3 5.1-4.3 8.7-1.5 5.1-5.2.9-8.9 1.6-2.3.4-3.3 2-3.8 4.1-.9 4 .4 8.3.3 12.3-.3 7.5-5.3 8.2-11 10.5-7.8 3.1-7.7 10.5-6.4 17.7.2 2 3.1 1.2 2.8-.7z"/><path d="M324 440.1c-6-7.7.9-15.3 9.2-14.6 2.5.2 4.6 0 5.9-2.3 1.8-3 1.2-7.1 2.6-10.3 2.3-5.5 6.8-9.4 12.4-11.2 1.8-.6 1-3.5-.8-2.9-5 1.6-9.3 4.6-12.3 9-1.7 2.5-2.9 5.3-3.4 8.3-.2 1-.2 2.9-.5 3.8-.8 2.6-3.3 2.3-5.6 2.4-10.6.6-16.5 11.1-9.6 20 1.1 1.5 3.2-.6 2.1-2.2z"/></g><path d="M607.1 190.5c-1.7-5.6 3.8-11.4 9.4-8.4 6.1 3.2 4 12.1-2.7 12.8-1.9.2-1.9 3.2 0 3 9-.9 13-12.6 4.9-17.9-7.8-5.1-17.2 2.8-14.5 11.4.6 1.7 3.5.9 2.9-.9zm331.5 567.9c-4.1 4.9 1.5 9.1 5.8 10.8 3.3 1.3 5.5 3 6 6.7.2 1.7.2 3.4.6 5 .4 1.3.9 2.5 1.8 3.4 1.4 1.5 6.8 2.9 6 5.7-.5 1.9 2.4 2.7 2.9.8.7-2.5-.1-4.3-2.2-6-1.4-1.1-3.4-1.4-4.6-2.7-1.9-2-1.3-5.2-1.7-7.6-.4-2.3-1.1-4.3-2.9-5.9-1.9-1.6-12.9-4.2-9.6-8.2 1.3-1.4-.8-3.5-2.1-2zm13.2-10c-.9 2.2-.1 4.3 1.7 5.8 1.7 1.4 4.4 1.5 5.9 3.1 1.6 1.7 1.4 4 1.8 6.2.5 2.8 1.5 4.9 4.1 6.3 1.9 1 4 1.3 5.8 2.4 3.3 2.1 5.2 5.7 5.7 9.5.2 1.9 3.2 1.9 3 0-.8-7.1-4.9-11.5-11.4-14-5.1-1.9-3.6-6.2-5.3-10.2-.5-1.3-1.2-2.2-2.3-3-1.7-1.2-7.4-2.2-6.1-5.4.7-1.7-2.2-2.5-2.9-.7zm34.9-601.8c-3.1-4.1 3.1-7 6.2-7.4 2.3-.3 4.7-.1 7-.5 3.2-.6 6.1-2.1 8.3-4.6 2-2.3 2.3-4.6 3.2-7.4.5-1.7 1.8-4.5 3.7-5.3.7-.3 2.4.2 3.3.2 1.7.1 3.2.1 4.9-.3 1.9-.4 1.1-3.3-.8-2.9-4 .8-9.5-1.7-12.5 2-1.1 1.4-1.2 3.1-1.4 4.8-.6 4.6-2.8 8.6-7.5 10-5.2 1.6-11.3-.5-15.6 3.8-2.5 2.5-3.4 6-1.3 8.9 1.1 1.7 3.7.2 2.5-1.3zm30.3-1.2c.1-5 2.6-9.6 7-12.2 3.3-2 7-1.8 10.8-1.8 5.1.1 10 0 13.3-4.4 1.1-1.6-1.5-3.1-2.6-1.5-4.4 5.9-15.5 1.5-21.8 4.5-5.9 2.8-9.5 8.9-9.6 15.4-.1 1.9 2.9 1.9 2.9 0zM608 483.7l2.8-.7 1.2 2.8c.2 1.3-.3 2.8-.5 4-.2 1.5-.5 2.8-.4 4.3.2 2.2 1.1 4.6 3.1 5.7 3 1.6 6.4-.7 9.5.9 4.1 2 6.3 6.9 8.1 10.9.8 1.8 3.4.2 2.6-1.5-1.9-4.3-4.4-9.1-8.6-11.6-2.1-1.2-3.7-1.2-6-1.4-2.4-.2-3.2 2.6-5.6-2.3-.7-1.6.2-4 .4-5.6.5-3.5.7-7.7-3.2-9.2-2.6-1-5.8-.1-6.3 2.9-.3 1.9 2.6 2.7 2.9.8zm20.5-3.7c-2.9 2-1.7 5.2.3 7.6 2.2 2.6 4.7 4.7 6.7 7.6 2.3 3.4 3.9 7.1 5.1 10.9.6 1.8 3.5 1.1 2.9-.8-1.3-4.1-3-8.1-5.4-11.7-1.1-1.6-9.3-10.2-8-11.1 1.5-1 0-3.6-1.6-2.5z" class="W"/><g class="X"><path d="M484.1 251.4c3.1 37.1 6 74.8-1.6 111.6-.4 1.9 2.5 2.7 2.9.8 7.7-37.1 4.8-75 1.7-112.4-.2-1.9-3.2-1.9-3 0z"/><path d="M485.8 252.4c18.4.8 36.9.8 55.3-.1 15.9-.8 33.2-.8 48-7.2 1.8-.8.2-3.4-1.5-2.6-15.4 6.7-33.9 6.3-50.4 7-17.1.7-34.3.7-51.4-.1-1.9-.1-1.9 2.9 0 3z"/><path d="M586.6 244.7c9.6 36.6 11.9 74.8 6.6 112.3-.3 1.9 2.6 2.7 2.9.8 5.3-38.1 3.1-76.7-6.6-113.9-.4-1.9-3.3-1.1-2.9.8z"/><path d="M483.3 364.5c19.8 4.4 40.2 4.8 60.4 3.4 10.2-.7 20.5-1.9 30.7-3.1 7.3-.9 14.9-1.3 20.9-6 1.5-1.2-.6-3.3-2.1-2.1-6.8 5.3-17.4 5-25.5 5.9-9.2 1.1-18.5 2-27.8 2.6-18.7 1.1-37.4.6-55.7-3.5-2-.5-2.8 2.4-.9 2.8zm8-8.8c2.4.1 4.7-.7 7.1-.9 2.9-.2 5.6.1 8.4.8 1.9.5 2.7-2.4.8-2.9-2.6-.7-5.3-1.1-8-1-2.8.1-5.5 1.1-8.3 1-1.9-.1-1.9 2.9 0 3zm1.8-7l14.8.2c1.9 0 1.9-3 0-3l-14.8-.2c-1.9-.1-1.9 2.9 0 3zm1-7.5l13.1.6c1.9.1 1.9-2.9 0-3l-13.1-.6c-1.9-.1-1.9 2.9 0 3zm1.4-19c4.9-.6 9.8-.9 14.8-.8 1.9 0 1.9-3 0-3-4.9-.1-9.9.2-14.8.8-1.9.3-1.9 3.3 0 3zm1-7.9l14.1.3c1.9 0 1.9-3 0-3l-14.1-.3c-1.9 0-1.9 3 0 3zm-1-6.8c4.3.3 8.5.2 12.7-.2 1.9-.2 1.9-3.2 0-3-4.2.5-8.5.5-12.7.2-1.9-.2-1.9 2.8 0 3zm.7-19.2c5.2-1 10.4-1.5 15.8-1.4 1.9 0 1.9-3 0-3a77.13 77.13 0 0 0-16.6 1.5c-1.8.4-1 3.3.8 2.9zm-.3-7.3c5.6.1 11.2.1 16.9-.2 1.9-.1 1.9-3.1 0-3-5.6.3-11.2.4-16.9.2-2-.1-2 2.9 0 3zm-2.1-7.8c6.2.2 12.4-.1 18.6-.7 1.9-.2 1.9-3.2 0-3-6.2.6-12.4.9-18.6.7-1.9 0-1.9 3 0 3zm33.4-2.8c15.5-2.3 31.1-3.4 46.7-3.2 1.9 0 1.9-3 0-3a290.3 290.3 0 0 0-47.5 3.3c-1.9.3-1.1 3.2.8 2.9zm3.1 5.6c15.4-1.3 30.9-2.1 46.4-2.6 1.9-.1 1.9-3.1 0-3-15.5.4-31 1.3-46.4 2.6-2 .2-2 3.2 0 3zm-1.2 6.7c16-.8 32.1 1.1 48.1-.6 1.9-.2 1.9-3.2 0-3-16 1.8-32.1-.2-48.1.6-1.9.1-1.9 3.1 0 3zm-9.5 24.8l21-.1c1.9 0 1.9-3 0-3l-21 .1c-2 0-2 3 0 3zm.7 7.6l22.6-.5c2.1 0 22.1-1.1 22.1-.9.6 1.8 3.5 1.1 2.9-.8-.6-2.1-2.4-1.8-4.3-1.8-4.6 0-9.2.2-13.8.3l-29.5.7c-2 0-2 3 0 3zm0 7.5c6 .3 11.9.3 17.9.2 1.9-.1 1.9-3.1 0-3-6 .2-11.9.1-17.9-.2-2-.1-2 2.9 0 3z"/><path d="M516.8 339.8c20-1.3 40.1-1.8 60.2-1.5 1.9 0 1.9-3 0-3a756.01 756.01 0 0 0-60.2 1.5c-1.9.1-1.9 3.1 0 3zm3.1 6.6l15.1-.3c1.9 0 1.9-3 0-3l-15.1.3c-1.9 0-1.9 3 0 3zm27.2-.1c8.1-.8 16.3-1.5 24.4-2 1.9-.1 1.9-3.1 0-3-8.2.5-16.3 1.2-24.4 2-1.9.2-2 3.2 0 3zm-28.6 9.7l49.2-1.3c1.9-.1 1.9-3.1 0-3-16.4.7-32.8 1.1-49.2 1.3-1.9 0-1.9 3 0 3zm80.3-58.7a413.95 413.95 0 0 1 78.6-6.9c-.5-.4-1-.7-1.4-1.1a480.23 480.23 0 0 1 21.9 152c0 1.9 3 1.9 3 0 .9-51.7-6.5-103.4-22-152.8-.2-.6-.8-1.1-1.4-1.1-26.6-.2-53.2 2.1-79.4 7-2 .3-1.2 3.2.7 2.9zm-53.4 69.4c1.8 28.1-2.1 56.1-11.6 82.5-.6 1.8 2.2 2.6 2.9.8 9.5-26.7 13.5-55 11.7-83.3-.1-1.9-3.1-2-3 0z"/><path d="M534.3 451.4c25.2 10.7 52.8 9.6 79.5 7.1 29.1-2.8 57.7-7.5 85.7-15.8 1.8-.5 1.1-3.4-.8-2.9-27.2 8-54.9 12.8-83.2 15.5-26.6 2.6-54.5 4.2-79.7-6.5-1.7-.8-3.2 1.8-1.5 2.6z"/></g><path d="M569.5 375c-5.4 2.9-10.6 6.2-15.7 9.7-1 .7-1 2.5.4 2.7l13.8 2.9c1.9.4 2.7-2.5.8-2.9l-13.8-2.9c.1.9.2 1.8.4 2.7 5-3.5 10.3-6.8 15.7-9.7 1.6-.8.1-3.4-1.6-2.5zm23.3-9.2l-19.8 32c-1 1.6 1.6 3.2 2.6 1.5l19.8-32c1-1.6-1.6-3.1-2.6-1.5zm4.6 22.7l17.8-2.7c1.9-.3 1.1-3.2-.8-2.9l-17.8 2.7c-1.9.3-1.1 3.2.8 2.9zm29.8-16.1h-.3c-.7-.1-1.3.1-1.7.7-.1.1-.1.2-.2.3-.3.4-.3 1.1 0 1.5 2.3 3.4 7.7 4.2 11.4 5 .7.2 1.4.3 2.1.5-.1.1-.3.2-.4.3 0 .7-3.2 3.1-3.8 3.6l-6.6 6.3c-1.4 1.3.7 3.5 2.1 2.1l8-7.6c1.4-1.4 4.2-3.2 3.6-5.5-.5-1.9-2.6-2.1-4.3-2.6-2.7-.7-7.9-1.1-9.6-3.7v1.5c.1-.1.1-.2.2-.3-.6.2-1.1.5-1.7.7h.3c2 .4 2.8-2.5.9-2.8z" class="W"/><g class="X"><path d="M606.7 307.4c5.2-.9 10.4-1.2 15.7-1 1.9.1 1.9-2.9 0-3-5.6-.2-11.1.2-16.5 1.2-1.9.3-1.1 3.1.8 2.8zm-.8 7.6l21.3-1.8c1.9-.1 1.9-3.1 0-3l-21.3 1.8c-1.9.2-1.9 3.2 0 3zm3.2 11.3v.1c.5-.4 1-.7 1.4-1.1h-.2l1.3.7c0-.1-.1-.1-.1-.2-.1.6-.2 1.2-.2 1.8-.7.2-.6.3.4.2h1.7l3-.1 6-.8c1.9-.3 1.1-3.2-.8-2.9-2.6.5-5.2.7-7.8.8-1.6 0-3.5-.5-4.7.7-.5.5-.5 1.3-.2 1.8.4.6.9.9 1.6.9.6 0 1.3-.5 1.4-1.1v-.1c.5-1.8-2.4-2.6-2.8-.7zm-2.1 14.6c8.4-1.2 16.8-2.8 25.3-2.5 1.9.1 1.9-2.9 0-3-8.8-.3-17.5 1.4-26.1 2.6-1.9.3-1.1 3.2.8 2.9zm32.6-36.7c9.6-1.3 19.2-2 28.8-2.3 1.9-.1 1.9-3.1 0-3-9.7.3-19.3 1-28.8 2.3-1.9.2-1.9 3.2 0 3zm6.9 12.6l17.9-2.9c1.9-.3 1.1-3.2-.8-2.9l-17.9 2.9c-1.9.3-1.1 3.2.8 2.9zm2 17.5c5.1-.5 10.3-.7 15.5-.7 1.9 0 1.9-3 0-3-5.2 0-10.3.2-15.5.7-1.9.2-1.9 3.2 0 3zm9 5.7c6.3-.9 12.5-1.5 18.9-1.9 1.9-.1 1.9-3.1 0-3-6.6.4-13.1 1.1-19.7 2-1.9.3-1.1 3.1.8 2.9zm-99.1 76.3c1.9 0 1.9-3 0-3s-1.9 3 0 3z"/><path d="M555.2 413.6c2.5.8 4.9.5 7.5.4 3.4-.1 6.8.1 10.2.4 1.9.2 1.9-2.8 0-3-2.9-.3-5.9-.5-8.8-.4-2.6 0-5.5.6-8-.3-1.9-.6-2.7 2.3-.9 2.9zm3.6 9c5.5-.5 11-.4 16.5.4 1.9.2 1.9-2.8 0-3-5.5-.7-11-.8-16.5-.4-1.9.2-1.9 3.2 0 3zm-8.7 12.7c4.7 1.8 9.6 1.5 14.6 1.5h17.4c10.2 0 21.2 1.1 31.1-1.9 1.8-.6 1.1-3.5-.8-2.9-9.6 3-20.4 1.8-30.3 1.8h-15.5c-5.3 0-10.7.5-15.8-1.4-1.8-.7-2.5 2.2-.7 2.9zm51.7-14.2l9.6-.5c3.2-.2 6.5-.7 9.5.6 1.8.7 2.6-2.2.8-2.9-2.9-1.2-5.8-.9-8.9-.7l-11.1.6c-1.9 0-1.9 3 .1 2.9zm-12.4 27.3c16.1-.6 32.1-1.5 48.2-2.8 1.9-.2 1.9-3.2 0-3-16 1.3-32.1 2.2-48.2 2.8-2 .1-2 3.1 0 3zm179.1-285.7c4.5 47.4 3.5 95 2.5 142.5 0 1.9 3 1.9 3 0 1.1-47.5 2-95.1-2.5-142.5-.2-1.9-3.2-1.9-3 0z"/><path d="M770.1 163.8c20.3.9 40.2-4.8 60.3-7 20.4-2.2 41-2.2 61.4-.1 1.9.2 1.9-2.8 0-3-20.4-2.1-41-2.1-61.4.1-20.1 2.2-40 7.9-60.3 7-2 0-2 3 0 3z"/><path d="M890.5 155.9c2.7 10.5 3.1 21.3 3.3 32l1.1 34.6 3 68.2c.1 1.9 3.1 1.9 3 0l-3.1-70.2-1-34.4c-.3-10.4-.8-20.9-3.4-31-.5-1.9-3.4-1.1-2.9.8z"/><path d="M772.4 307.4c21.5 6.2 44.6 3.9 66.5 1.7 21.1-2.1 42-6.1 61.3-15.4 1.7-.8.2-3.4-1.5-2.6-19.3 9.3-40.4 13.1-61.5 15.2-21.1 2-43.3 4.2-63.9-1.8-2-.6-2.8 2.3-.9 2.9zm123.3-124.6c12.2-1.9 24.6-2.5 37-1.8 6.4.4 12.8 1.1 19.2 2.2 2.7.5 5.7.7 8.3 1.6 3.7 1.3 3.5 4 4.1 7.5 4.6 24.5 7.6 49.3 9.1 74.2.1 1.9 3.1 1.9 3 0-.9-14.1-2.2-28.2-4-42.2-.8-6.5-1.8-13-2.9-19.5l-1.8-10.5c-.5-3-.7-6.8-1.9-9.5-1.7-3.9-8.6-3.8-12.2-4.4-6.3-1.1-12.6-1.9-19-2.3-13.3-.9-26.5-.2-39.7 1.8-1.9.3-1.1 3.2.8 2.9z"/><path d="M858.1 306.2c1.8 5 2.9 10 3.1 15.3.1 2.6-.3 5.7 1.6 7.8s5.2 2.1 7.8 2.5c4.2.6 8.5 1.1 12.7 1.3 19.5 1.1 39-1.4 58.3-4 1.9-.2 1.9-3.3 0-3-16.5 2.2-33 4.4-49.7 4.2-3.8 0-7.6-.2-11.4-.5-2.5-.2-4.9-.5-7.4-.8-1.7-.2-5.3-.1-6.6-1.1-3.4-2.5-2.3-8.2-2.9-11.9-.5-3.7-1.5-7.2-2.7-10.7-.6-1.7-3.5-1-2.8.9z"/><path d="M936.8 268.1c2.2 9.6 2.6 19.5 3.1 29.4l1.4 28.3c.8 19.2 1.3 38.4 1.5 57.7 0 1.9 3 1.9 3 0-.2-19.9-.8-39.7-1.6-59.6-.8-18.6-.3-38.3-4.5-56.5-.4-2-3.3-1.2-2.9.7z"/><path d="M938.8 269.9c20.9-1.2 41.8-.9 62.6.8 1.9.2 1.9-2.8 0-3-20.8-1.8-41.7-2-62.6-.8-1.9.2-1.9 3.2 0 3zm3.7 114.2c2.5 4.3 6.6 5.9 11.4 6.5 7.2.9 14.5 1.2 21.7 1.7 15.4 1 30.8 1.8 46.2 1.9 7.5 0 15.1-.1 22.6-.4l10.8-.6c1.9-.1 5.2.2 6.9-1.2 1.1-.9 1.2-2.2 1.4-3.6.4-3.9.3-7.9.4-11.8l.8-23.7c.1-1.9-2.9-1.9-3 0l-.9 27.6c-.1 1.6-.1 3.3-.2 4.9-.1 2.8-.4 3.8-3.4 4.6-2.6.7-6.1.4-8.8.6-3.3.2-6.5.3-9.8.4-6.2.2-12.4.2-18.7.2-12.1-.1-24.3-.6-36.4-1.4l-18.7-1.3c-6.4-.5-16 .4-19.7-5.9-1-1.7-3.6-.1-2.6 1.5z"/><path d="M994.6 225.6c5.5 18.9 6.7 37.9 7.6 57.5l2.9 59.9c.1 1.9 3.1 1.9 3 0l-3-61.9c-.9-19.2-2.3-37.7-7.7-56.3-.5-1.8-3.3-1-2.8.8z"/><path d="M1005.8 345.4c11.7 4.1 24.1 4.8 36.3 5.9 12.7 1.2 24.8 2.5 37.5.4s25.3-4.6 37.9-7.5c11.5-2.7 22.1-6.6 31.3-14.1 1.5-1.2-.6-3.3-2.1-2.1-9.5 7.7-20.9 11.2-32.7 13.9a533.39 533.39 0 0 1-35.2 6.9c-12.4 2-24.3.6-36.7-.6-11.9-1.2-24.1-1.8-35.5-5.8-1.8-.6-2.6 2.3-.8 3zm-9.9-119.7c21.5-6.1 44-6.5 66.2-7.6 22.5-1.2 44.7-1.9 67.2-.2 1.9.1 1.9-2.9 0-3-23.1-1.8-45.9-.9-69 .3-21.9 1.1-44 1.7-65.2 7.7-1.9.4-1.1 3.3.8 2.8z"/><path d="M1127.8 216.3c.3 19 2.8 37.9 6.2 56.6 1.7 9.5 3.7 18.9 5.8 28.3 2 9.3 3.7 18.7 6.9 27.6.6 1.8 3.5 1 2.9-.8-6.1-17.2-9-36.1-12.3-54-3.6-19.1-6.1-38.3-6.5-57.7-.1-1.9-3.1-1.9-3 0z"/></g><g class="W"><path d="M780.6 179.1l1.4 16.2c.2 1.9 3.2 1.9 3 0l-1.4-16.2c-.1-1.9-3.1-1.9-3 0z"/><path d="M783.3 189.2a71.66 71.66 0 0 1 9-1.8c1.9-.2 1.9-3.2 0-3-3.3.4-6.6 1-9.8 1.9-1.8.5-1 3.4.8 2.9z"/><path d="M791.5 175.8l.1 10.2c0 2.7-.3 5.5.5 8.1.6 1.8 3.5 1.1 2.9-.8-.8-2.7-.4-5.9-.4-8.6l-.1-8.9c0-2-3-2-3 0zm9.3 1.3c3.9.6 7.8-1.9 11.5-.7 1.8.6 2.6-2.3.8-2.9-4-1.2-7.6 1.3-11.5.7-1.8-.3-2.7 2.6-.8 2.9z"/><path d="M806.1 176.7c1 5.2 1.5 10.5 1.5 15.8 0 1.9 3 1.9 3 0 0-5.6-.5-11.1-1.6-16.6-.4-1.9-3.3-1.1-2.9.8zm14.2-3.4c-.3 7-.3 14-.2 21 0 1.9 3 1.9 3 0-.1-7-.1-14 .2-21 0-1.9-3-1.9-3 0z"/><path d="M820.3 173.4c2.3 5.1 7.1 8.2 8.8 13.6.4 1.1 2.2 1.6 2.7.4l7.3-15.5c-.9-.1-1.8-.2-2.7-.4l4.4 23.8c.4 1.9 3.2 1.1 2.9-.8l-4.4-23.8c-.2-1.2-2.2-1.5-2.7-.4l-7.3 15.5c.9.1 1.8.2 2.7.4-1.8-5.8-6.6-9-9.1-14.4-.8-1.7-3.4-.2-2.6 1.6zm29.9-4.5c1.5 8.4 1.9 16.7 1.4 25.2a1.54 1.54 0 0 0 1.5 1.5c5.3 0 10.3-.9 15.3-2.7 1.8-.7 1-3.6-.8-2.9-4.7 1.7-9.5 2.6-14.5 2.6l1.5 1.5c.5-8.8 0-17.4-1.6-26-.3-1.9-3.2-1.1-2.8.8z"/></g><g class="X"><path d="M782 215c19-1.4 38.1-2 57.2-1.9 1.9 0 1.9-3 0-3-19.1-.1-38.2.5-57.2 1.9-1.9.1-1.9 3.1 0 3zm.5 12.9c4.3.1 8.7.3 13 0 4-.2 7.9-1 11.9-.5 1.9.2 1.9-2.8 0-3-4-.5-7.9.3-11.9.5-4.3.2-8.7.1-13 0-2-.1-2 2.9 0 3zm-.1 8.5c7.2.4 14.3-1.1 21.4 0 1.9.3 2.7-2.6.8-2.9-7.4-1.1-14.8.3-22.2-.1-2-.1-2 2.9 0 3zm1.7 19.1h19.6c1.9 0 1.9-3 0-3h-19.6c-1.9 0-1.9 3 0 3zm1.3 7h14.2c1.9 0 1.9-3 0-3h-14.2c-2 0-2 3 0 3zm-2.9 11.1h20c1.9 0 1.9-3 0-3h-20c-2 0-2 3 0 3zm51.6-48.5h42.3c1.9 0 1.9-3 0-3h-42.3c-1.9 0-1.9 3 0 3zm1 11.8h27.5c1.9 0 1.9-3 0-3h-27.5c-1.9 0-1.9 3 0 3zm37.7-.5h8.2c1.9 0 1.9-3 0-3h-8.2c-2 0-2 3 0 3zM838 255.7h33.1c1.9 0 1.9-3 0-3H838c-1.9 0-1.9 3 0 3zm-11.8 13.6h29c1.9 0 1.9-3 0-3h-29c-2 0-2 3 0 3zm11.8 7.4h22c1.9 0 1.9-3 0-3h-22c-1.9 0-1.9 3 0 3zm27.8-7.9h21c1.9 0 1.9-3 0-3h-21c-2 0-2 3 0 3zm34.7-71.3h19.3c1.9 0 1.9-3 0-3h-19.3c-1.9 0-1.9 3 0 3zm25.2-5.7c5 2.1 10.6 2 15.4 4.5v-2.6l-10.4 7.5c-1.6 1.1-.1 3.7 1.5 2.6l10.4-7.5c.8-.6 1.1-2 0-2.6-5.1-2.6-10.9-2.6-16.1-4.8-1.8-.7-2.6 2.2-.8 2.9zm-22.2 19l7 1.6c.6.1 6.1.4 6.4 1-.3-.6-8 6.1-8.8 7-1.3 1.4.8 3.5 2.1 2.1 2.4-2.5 5-4.6 8-6.4 1.5-.9 3.2-2.2 2.3-4.2-.9-1.8-3.6-1.5-5.3-1.8-3.6-.5-7.2-1.3-10.8-2.3-2-.4-2.8 2.5-.9 3zm-.6 25.4h30.9c1.9 0 1.9-3 0-3h-30.9c-1.9 0-1.9 3 0 3zm31.3-9.7c2.1 1.1 4.3 1.8 6.6 2.4 2.4.7 6.5 1.3 8 3.6V231c-1 1.7-3 3.2-4.4 4.6l-4.3 4.3c-1.2 1.2.3 3.2 1.8 2.4.2-.1.5-.3.7-.4 1.7-1 .2-3.5-1.5-2.6-.2.1-.5.3-.7.4l1.8 2.4 5.2-5.2c1.4-1.4 3.1-2.6 4-4.3.3-.5.3-1.1 0-1.5-3.1-4.8-11-4.7-15.7-7.1-1.7-1-3.2 1.6-1.5 2.5zm-31.5 26.8h21.7c1.9 0 1.9-3 0-3h-21.7c-1.9 0-1.9 3 0 3zm34.1-.7H960c1.9 0 1.9-3 0-3h-23.2c-2 0-2 3 0 3zm-31.4 20.5h23.7c1.9 0 1.9-3 0-3h-23.7c-2 0-2 3 0 3zm-32.6 37.2h36.7c1.9 0 1.9-3 0-3h-36.7c-2 0-2 3 0 3zm13.7 10.6h33.1c1.9 0 1.9-3 0-3h-33.1c-1.9 0-1.9 3 0 3zm95.6-35.4c-5.3-5.7-12.1 7.4-12.8 11.3-.9 5.2.4 10.5 1.8 15.5 1.1 4.1 2.2 7.6.6 11.8-1.4 3.5-4.2 6.7-7.6 8.2-1.3.6-.7 2.9.8 2.8 12.1-1.2 8.7 21.9 11.8 29.3 3 7 9.9 10.3 17.2 9.1 1.9-.3 1.1-3.2-.8-2.9-15.6 2.5-14.8-14.8-16.2-25-.9-6.3-4.4-14.3-12.1-13.5.3.9.5 1.9.8 2.8 6.3-2.8 11-10.6 9.8-17.5-.9-5.5-3.2-10.6-3.4-16.2-.1-2.3.2-4.7 1-6.9.3-.7 4.9-8.8 6.9-6.6 1.4 1.4 3.5-.8 2.2-2.2zm47.7 63.2c-2.5 2.7-1.7 5.9-.3 9.1 1.2 2.7 4.1 5.9 4 8.9 0 5.5-6.4 8-10.6 9.6-1.8.7-1 3.6.8 2.9 5-1.9 10.6-4.3 12.3-9.9.7-2.1.5-4.2-.3-6.2-1.2-3.1-7-9-3.8-12.3 1.4-1.4-.8-3.5-2.1-2.1zm191.2 29.1c-4.8 43.1-1.4 86.7 9.9 128.5.5 1.9 3.4 1.1 2.9-.8-11.3-41.6-14.6-84.9-9.8-127.7.2-1.9-2.8-1.9-3 0z"/><path d="M1223.8 378.3c26.3 1.8 54 5.9 80-.8 1.9-.5 1.1-3.4-.8-2.9-25.6 6.7-53.1 2.5-79.2.7-2-.1-2 2.9 0 3z"/><path d="M1301.8 376.3c-3.3 38.2 6.2 76.7 26.8 109 1 1.6 3.6.1 2.6-1.5-20.3-31.9-29.6-69.8-26.4-107.5.2-1.9-2.8-1.9-3 0z"/><path d="M1233.1 507.2c15.3 5.6 34.2 2.8 49.7-.7 16.6-3.8 32.5-10.6 46.7-19.9 1.6-1 .1-3.6-1.5-2.6-13.6 8.9-28.5 15.4-44.3 19.2-15.4 3.7-34.5 6.7-49.8 1.1-1.8-.7-2.6 2.2-.8 2.9zm8.5-112.3a108.88 108.88 0 0 0-15.2 12.7c-.9.9-.3 2.6 1.1 2.6l22.3-.5c1.9 0 1.9-3 0-3l-22.3.5 1.1 2.6c4.5-4.5 9.3-8.6 14.6-12.2 1.5-1.1 0-3.8-1.6-2.7zm13.9 4.1c7.8-.6 15.5-.5 23.2.3 1.9.2 1.9-2.8 0-3-7.7-.8-15.5-.9-23.2-.3-1.9.1-1.9 3.1 0 3zm24.2-4.8c4.8 1.1 9.5 2.5 14.2 4.2-.2-.8-.4-1.7-.7-2.5-3.2 2.5-6.3 5.1-9.3 7.9-1.4 1.3.7 3.4 2.1 2.1 3-2.7 6.1-5.4 9.3-7.9 1-.8.3-2.2-.7-2.5-4.6-1.8-9.3-3.2-14.2-4.2-1.8-.4-2.6 2.4-.7 2.9zm-51.7 34.5l13.1.8c1.9.1 1.9-2.9 0-3l-13.1-.8c-1.9-.1-1.9 2.9 0 3zm22.2 0l36.8-5.7c1.9-.3 1.1-3.2-.8-2.9l-36.8 5.7c-1.9.3-1.1 3.2.8 2.9zm-20 9.8h9.4c1.9 0 1.9-3 0-3h-9.4c-1.9 0-1.9 3 0 3zm.7 7.3c3.6.3 7.1 0 10.5-.8 1.9-.4 1.1-3.3-.8-2.9-3.2.7-6.4.9-9.7.7-1.9-.2-1.9 2.8 0 3z"/><path d="M1229.8 458.8c13.3-1.4 27.9-1.4 40.6-5.8 1.8-.6 1-3.5-.8-2.9-12.5 4.3-26.8 4.3-39.8 5.7-1.9.2-1.9 3.2 0 3zm24.3-16.7c13.8-1.5 27.5-3.9 41-7.2 1.9-.5 1.1-3.4-.8-2.9-13.2 3.3-26.6 5.6-40.2 7.1-1.9.2-1.9 3.2 0 3zm-21 29c3.1.3 6.1.1 9.1-.7 1.9-.5 1.1-3.4-.8-2.9-2.7.7-5.5.9-8.3.6-1.9-.2-1.9 2.8 0 3zm22.3-3.2c4.5.5 8.8-.8 13.2-1.8l16.1-3.6c1.9-.4 1.1-3.3-.8-2.9l-14.2 3.2c-4.7 1-9.5 2.6-14.3 2.1-1.9-.3-1.9 2.7 0 3zm-6.1 5.4c-2.5.7-4.5 2.4-5.1 5-.2 1-.1 2.2.2 3.2.3.8 4.5 6.1 2.3 6.7-.9.2-1.5 1.4-.9 2.2 2.4 3.3 2.1 8.1 5.7 10.6 2.3 1.6 4.8 1.7 6.9-.2 1.4-1.3-.7-3.4-2.1-2.1-3.6 3.4-6.5-7.8-7.9-9.8-.3.7-.6 1.5-.9 2.2 1.8-.5 2.8-1.5 3-3.4.5-3.1-6.8-9.8-.4-11.5 1.9-.5 1.1-3.4-.8-2.9zm7.7 13c9-.4 17.9-1.1 26.8-2.1 1.9-.2 1.9-3.2 0-3-8.9 1-17.8 1.7-26.8 2.1-1.9.1-1.9 3.1 0 3zm32.6-15.9c.8.1 2.1-.2 2.9 0 4.3 1.2 2.5 2.2 2.8 4.4.2 1.7 0 3.2.5 4.9.5 1.8 1.5 3.5 2.1 5.3.9 2.6 1 3.1-.9 5.4-1.8 2.1-1.8 2.1-4.2 2.5-1.9.3-1.1 3.2.8 2.9 3-.5 6-1.6 7.4-4.5 1.6-3.4-.1-6.7-1.4-9.9-1-2.4-1.4-4.6-1.3-7.2 0-1.4.2-2.9-.4-4.2-1.7-3.5-5.2-2.2-8.3-2.6-1.9-.2-1.9 2.8 0 3zM240 859c5.5 39 10 78.1 13.7 117.3.2 1.9 3.2 1.9 3 0-3.7-39.5-8.3-78.8-13.8-118.1-.3-1.9-3.1-1.1-2.9.8z"/><path d="M253.8 977.9c32.2 16 70.5 16.3 103 1.1 1.7-.8.2-3.4-1.5-2.6-31.5 14.8-68.9 14.3-100-1.1-1.7-.9-3.2 1.7-1.5 2.6z"/><path d="M359 861.2c-.1 38.9-.9 77.7-2.5 116.5-.1 1.9 2.9 1.9 3 0 1.6-38.8 2.4-77.7 2.5-116.5 0-1.9-3-1.9-3 0z"/><path d="M240.8 859.5c39 11.8 80.1 7.6 119.9 3.1 1.9-.2 1.9-3.2 0-3-39.6 4.4-80.3 8.7-119.1-3-1.8-.6-2.6 2.3-.8 2.9zM255.6 963c3.4-6.8 11.1 2.8 13.8 5.2 2.5 2.2 5.4 3.5 8.8 3.3 8.4-.4 15.5-8.7 24.1-6.6 8.4 2.1 12.8 10.7 22.4 9.8 10.8-1 21.8-13.8 32.8-7.4 1.7 1 3.2-1.6 1.5-2.6-10.5-6.1-20.2 2.7-30 6-7.5 2.5-12.4-.4-18.3-4.6-3.6-2.5-7.3-4.7-11.9-4.4-10.5.6-19.3 12.3-28.9 2.9-2.8-2.8-5.1-5.8-9.3-6.5-3.2-.5-6.1.5-7.6 3.4-.9 1.7 1.7 3.2 2.6 1.5zm-2.8-17.3c34.5 9.4 71 8.8 105.1-2 1.8-.6 1.1-3.5-.8-2.9-33.6 10.6-69.6 11.2-103.5 2-1.9-.5-2.7 2.3-.8 2.9zm-4.9-34.8c36.7 9 75.3 8.2 111.5-2.5 1.8-.5 1.1-3.4-.8-2.9-35.8 10.6-73.7 11.4-109.9 2.5-1.9-.5-2.7 2.4-.8 2.9z"/><path d="M246.2 884.9c6-4.5 11.9 2.1 16.5 5.4 3.6 2.6 7.5 3.9 11.9 3.4 9.1-1.2 17.8-10.6 27.3-8.2 5.2 1.3 8.5 6.4 13.8 7.3 4 .7 7.7-1.2 10.9-3.3 5.4-3.4 9.8-6.1 16.5-5.6 6.1.4 11.8 1.9 18 .9 1.9-.3 1.1-3.2-.8-2.9-6.9 1-13.6-1.4-20.5-1.1-5 .2-8.9 2.2-13 5-2.3 1.5-4.6 3.3-7.3 3.9-4.1 1-7.2-1.4-10.3-3.6-3.6-2.5-7.2-4.3-11.8-3.8-9.3.9-17.8 10.4-27.4 8.4-8.3-1.7-15.9-15.5-25.5-8.4-1.3 1.2.2 3.8 1.7 2.6zm21.5-23.3c-4.6-4.7-18.9-20.1-11-26.7.5-.4.6-1.3.2-1.8-6.2-8.9-13-18.4-13.7-29.6-.3-4.9 1.8-8.8 2.2-13.4.4-4.4-1.9-9.3-3-13.5-5.4-21.8-9.2-45.6-7.1-68.1.5-5.5 1.5-11.2 3.7-16.3 4.2-10 12.7-.8 16.3 4.2 6 8.4 10.1 17.9 13.6 27.6 7.5 20.9 13.5 42.4 18.4 64.1 5.7 25.2 9.6 50.8 11.8 76.6.2 1.9 3.2 1.9 3 0-2.2-25.4-6-50.6-11.5-75.5-5.4-24.7-12.1-49.7-21.5-73.1-3.8-9.4-8.5-19.9-16-27-5.6-5.4-13.2-6.4-16.6 1.6-4.3 10-4.7 21.4-4.4 32.2.4 12.9 1.8 25.9 4.1 38.6 1.3 7 2.8 13.9 4.6 20.7 1.1 4.1 1.9 7.1.7 11.1-.9 2.8-1.3 5.7-1.3 8.7 0 12.4 7.3 23.1 14.1 32.8.1-.6.2-1.2.2-1.8-9.8 8.3 5.1 25.1 11 31 1.5 1 3.6-1.1 2.2-2.4z"/><path d="M291.2 783.5c.9-8.8 1.8-17.7 5-26 1.9-4.9 4.6-8.9 7.9-12.9 2.3-2.8 3.9-5.7 6-8.6 6.1-8.6 11.9.9 13 7.1.9 5.5 1.3 11.1 1.5 16.7a175.66 175.66 0 0 1-1.8 32.4c-.2 1.6 1.8 2.7 2.7 1.2 2.3-3.7 9.4-11.5 12.9-3.2 1.1 2.6.4 6.4.3 9.1-.4 7.7-1.1 15.3-2.2 22.9-2 13.9-5.3 27.7-9.7 41.1-.6 1.8 2.3 2.6 2.9.8 6.3-19.5 10.3-39.7 11.7-60.1.4-5.7 2.6-16.4-4.2-19.6-6.2-2.9-11.4 2.8-14.4 7.5l2.7 1.2c2-13.6 2.6-27.2 1.4-40.9-.7-7.5-1.4-23.6-12.8-22.5-4.2.4-6.3 4.1-8.3 7.3-3.1 5.2-7.6 9.2-10.4 14.6-5.2 9.9-6.3 21.2-7.4 32.1 0 1.7 3 1.7 3.2-.2zm-50.1-93.3c21.5 56.4 33.1 115.7 44.5 174.7.4 1.9 3.3 1.1 2.9-.8-11.4-59-23-118.4-44.5-174.7-.7-1.8-3.6-1-2.9.8z"/><path d="M239.7 774.7c14.6 8.5 26.3 20.7 34.2 35.6.9 1.7 3.5.2 2.6-1.5a92.74 92.74 0 0 0-35.2-36.7c-1.8-1-3.3 1.6-1.6 2.6zm27.3-57.8c-1.8 16.7-3.4 33.5-1.4 50.2.2 1.9 3.2 1.9 3 0-2-16.8-.4-33.5 1.4-50.2.2-1.9-2.8-1.9-3 0zm47.9 16.1l-6.8 126.1c-.1 1.9 2.9 1.9 3 0l6.8-126.1c.1-2-2.9-2-3 0z"/><path d="M288.5 781.8c5.2 16.9 11.7 33.3 19.6 49.1.9 1.7 3.5.2 2.6-1.5-7.8-15.6-14.2-31.8-19.3-48.4-.6-1.8-3.5-1.1-2.9.8zm22.9 63.8c11.3-6.4 20.5-15.5 27.1-26.7 1-1.7-1.6-3.2-2.6-1.5-6.3 10.8-15.2 19.5-26 25.6-1.7 1-.2 3.5 1.5 2.6zm-69.5 14.5c6-.4 15.4-2.5 19.8 2.9l1.8-2.4c-3.9-2.1-8-3.5-12.4-4.3-.3 1-.5 1.9-.8 2.9 4.8.8 9.5 1.9 14.2 3.3 1.9.6 2.6-2.3.8-2.9-4.7-1.4-9.4-2.5-14.2-3.3-1.9-.3-2.7 2.5-.8 2.9 4.2.8 7.9 2.1 11.7 4 1.6.8 2.9-1.1 1.8-2.4-5.1-6.3-14.9-4.2-21.9-3.8-1.9.2-1.9 3.2 0 3.1zm89.5 1.1c-.2-1 12.1-.4 12.8-.3l12.7.5v-3l-23.7 1.1c-1.9.1-1.9 2.9 0 3 4.4.2 8.8.3 13.2.2 1.9 0 1.9-3 0-3-4.4.1-8.8.1-13.2-.2v3l23.7-1.1c1.9-.1 1.9-2.9 0-3-7.7-.3-15.7-1.3-23.4-1-2.9.1-5.7 1.1-4.9 4.6.3 1.9 3.2 1.1 2.8-.8zM452.2 1115l44.9-56.3c13.7-17.1 27.4-34.3 43.4-49.3 1.4-1.3-.7-3.4-2.1-2.1-16 15.1-29.7 32.2-43.4 49.3l-44.9 56.3c-1.2 1.5.9 3.6 2.1 2.1z"/><path d="M538.4 1008.8h489c1.9 0 1.9-3 0-3h-489c-2 0-2 3 0 3z"/><path d="M1026.9 1009.1c35.7 36.7 69.3 75.3 100.5 115.8 1.2 1.5 3.8 0 2.6-1.5-31.4-40.7-65.1-79.6-101-116.4-1.3-1.4-3.5.7-2.1 2.1zm-738.7 11.1h139.4c1.9 0 1.9-3 0-3H288.2c-1.9 0-1.9 3 0 3zm260.4-60.5h649.5c1.9 0 1.9-3 0-3H548.6c-1.9 0-1.9 3 0 3zm715.3 1.3h211.7c1.9 0 1.9-3 0-3h-211.7c-1.9 0-1.9 3 0 3zm-178.8 43.4h115.7c1.9 0 1.9-3 0-3h-115.7c-1.9 0-1.9 3 0 3zm172.2 11.8h88.1c1.9 0 1.9-3 0-3h-88.1c-1.9 0-1.9 3 0 3z"/></g><path d="M444.5 957.7h108.9c1.9 0 1.9-3 0-3H444.5c-2 0-2 3 0 3zm102.4 13h272.3c1.9 0 1.9-3 0-3H546.9c-1.9 0-1.9 3 0 3zm211.4-13h368.3c1.9 0 1.9-3 0-3H758.3c-1.9 0-1.9 3 0 3zm368.3 19.5H1386c1.9 0 1.9-3 0-3h-259.4c-1.9 0-1.9 3 0 3zm-853.3 102.4H355c1.9 0 1.9-3 0-3h-81.7c-2 0-2 3 0 3zm695.1-18.1h118c1.9 0 1.9-3 0-3h-118c-2 0-2 3 0 3zm311.2 3.8h106.3c1.9 0 1.9-3 0-3h-106.3c-1.9 0-1.9 3 0 3z" class="S"/><path d="M386.3 701.5v380.9l26.3-2.8V698.7l-26.3 2.8zm760.5 4.1l-.7 374h25.6V702.1l-24.9 3.5z" class="T"/><path d="M515.9 955.6l-.7-164.8 2.1-106.7-31.9-.7-.7 270.8 31.2 1.4zM1045 689.7l.7 264.6 28.4-.7 2.1-268.7-31.2 4.8z"/><path d="M343.4 693.8l-.7 22.2 860.2 1.4-2.1-23.5c-92.9-4.1-187.8-6.9-284.7-8.3-198.6-3-389.7.2-572.7 8.2z"/><path d="M343.4 693.1l857.5.7-91.4-86.6-691.9.7-74.2 85.2z" class="T"/><g class="S"><path d="M343.5 695.1c24.7-29.5 50.1-58.4 76.3-86.6 1.3-1.4-.8-3.5-2.1-2.1-26.2 28.2-51.6 57-76.3 86.6-1.2 1.4.9 3.6 2.1 2.1h0z"/><path d="M340.8 695.1v18.7c0 1.9 3 1.9 3 0v-18.7c0-1.9-3-1.9-3 0h0zm4 22.7h857c1.9 0 1.9-3 0-3h-857c-2 0-2 3 0 3h0z"/><path d="M1204.5 715v-22.4c0-1.9-3-1.9-3 0V715c0 2 3 2 3 0h0zm-862.2 2.8c1.9 0 1.9-3 0-3s-2 3 0 3h0z"/><path d="M343.5 695.4h857c1.9 0 1.9-3 0-3h-857c-1.9 0-1.9 3 0 3h0zm77.1-85.8h689c1.9 0 1.9-3 0-3h-689c-1.9 0-1.9 3 0 3h0z"/><path d="M1108.1 609.7l91 84.4c1.4 1.3 3.5-.8 2.1-2.1l-91-84.4c-1.4-1.3-3.5.8-2.1 2.1h0zM385.6 716.3v364.5c0 1.9 3 1.9 3 0V716.3c0-2-3-2-3 0h0zm26.1 1.2v362c0 1.9 3 1.9 3 0v-362c0-1.9-3-1.9-3 0h0z"/><path d="M387.1 1083.7l23.6-1.4c1.9-.1 1.9-3.1 0-3l-23.6 1.4c-1.9.2-2 3.2 0 3h0zm757.2-367.4v364.5c0 1.9 3 1.9 3 0V716.3c0-2-3-2-3 0h0zm26.1 1.2v362c0 1.9 3 1.9 3 0v-362c0-1.9-3-1.9-3 0h0z"/><path d="M1147 1081.7l23.6-1.4c1.9-.1 1.9-3.1 0-3l-23.6 1.4c-1.9.1-1.9 3.1 0 3h0zm-662.8-364v235.5c0 1.9 3 1.9 3 0V717.7c0-1.9-3-1.9-3 0h0zm29.9 1.4v234.1c0 1.9 3 1.9 3 0V719.1c0-1.9-3-1.9-3 0h0z"/><path d="M487 956.1h28.6c1.9 0 1.9-3 0-3H487c-1.9 0-1.9 3 0 3h0zm558-239.7v236.8c0 1.9 3 1.9 3 0V716.4c0-1.9-3-2-3 0h0zm28.5 2.7v234.1c0 1.9 3 1.9 3 0V719.1c0-1.9-3-1.9-3 0h0z"/><path d="M1047.8 956.1h27.2c1.9 0 1.9-3 0-3h-27.2c-1.9 0-1.9 3 0 3h0z"/></g><path d="M945.6 590.9c-1.7 2.2-2.1 4.5-2.3 6.5-2.2 16-1.4 28.1-1.4 28.1.4 6 .8 14.9 1.1 26.3 4.3 4.5 8.4 6.3 11 7.2 7.5 2.5 14.6.8 28.4-2.7 5.6-1.4 10-2.8 13-3.8 2.2-4.1 2.9-7.6 3.1-9.9.4-4.9-1.1-7.2.7-9.7s4.4-2 5.6-4.7c.7-1.6.6-4-.5-4.9-1.9-1.3-5.3 2.1-7 .7-.5-.4-.5-.8-.7-4.5-.3-5-.4-5.6.2-6.1.5-.6 2.2-.6 5.4-.5 2.4 0 3.5 0 4 .4 1.9 1.5 1.1 6.4-.7 9.9-2.3 4.4-5.8 5.8-5.4 6.7.5.9 4.9 0 8.5-2.2 2.1-1.3 5.2-3.1 5.9-6.5 1.2-5-3.6-9.4-4.3-10.1-5.9-5.5-14.5-3.7-15.6-3.4l.4-14.4c-12.9-5.7-23.7-7-30.4-7.2-14.1-.5-17.8 3.1-19 4.8z" class="T"/><g class="S"><path d="M941.2 595.4a389.79 389.79 0 0 0-.6 55.1c.1 1.9 3.1 1.9 3 0-1.1-18.4-.9-36.8.6-55.1.2-1.9-2.8-1.9-3 0h0z"/><path d="M940.8 651.3c13.4 14.8 34.3 10.2 50.6 3.9 1.8-.7 1-3.6-.8-2.9-15.3 5.9-35.1 10.9-47.7-3.1-1.3-1.4-3.4.7-2.1 2.1h0zm3.3-56c3.9-7.1 17.1-7.8 24.3-7.6 8.6.2 16.8 2.5 24.4 6.6 1.7.9 3.2-1.7 1.5-2.6-8.9-4.9-19-7.4-29.2-7-7.7.3-19.4 1.6-23.6 9.1-.9 1.7 1.7 3.2 2.6 1.5h0z"/><path d="M993.1 594.6v13.5c0 1 1 1.6 1.9 1.4 5-1.1 12.9 0 15.8 4.9 5.7 9.4-5.4 11.4-11.1 15.2-2.5 1.6-2.9 3.3-2.9 6.2 0 6.5 0 14-6.7 17.3-1.7.9-.2 3.4 1.5 2.6 5.9-2.9 7.8-9 8.1-15.2.1-2.8-.8-6 1.4-8.3 1.1-1.1 3.3-1.6 4.7-2.3 3-1.4 5.8-2.9 7.8-5.6 3.8-5.1 1.7-10.4-2.8-14.1-4.7-3.8-10.8-4.9-16.6-3.7a23.07 23.07 0 0 0 1.9 1.4v-13.5c-.1-1.7-3.1-1.7-3 .2h0zm2.3 18.9c-.4 3.7-.2 7.4.6 11 .4 1.9 3.3 1.1 2.9-.8-.7-3.4-.9-6.8-.5-10.2.2-1.9-2.8-1.9-3 0h0z"/><path d="M997.7 616.5c1.5-1.3 3.7-2.2 5.7-1.6 1.9.6 3.4 2.8 2.5 4.8-1.3 2.7-5.7 2.7-8.3 2.7-1.9 0-1.9 3 0 3 4.7.1 12.3-1.3 11.5-7.7-.3-2.6-2.4-4.9-4.9-5.7-3.1-.9-6.3.3-8.7 2.4-1.4 1.2.7 3.3 2.2 2.1h0zm-45-25.9c-2 1.6-5.3.8-5.6 4.2-.3 2.7 2 4.6 4.3 5.1 5.2 1.1 11.6-.2 17-.1 6.4.1 12.9.6 19.3 1.3.8.1 1.5-.8 1.5-1.5 0-1.7 0-1.8-.9-3.3-1-1.6-3.6-.1-2.6 1.5.2.6.3 1.2.5 1.8l1.5-1.5c-7.7-.9-15.4-1.3-23.1-1.3-1.9 0-3.9 0-5.8.1-1.4 0-4.3.8-5.5.2-.6-.9-1.3-1.8-1.9-2.7.5-.1 1.1-.2 1.6-.4.5-.4 1.4-.8 1.9-1.2 1.5-1.3-.7-3.4-2.2-2.2h0z"/></g><g class="U"><path d="M970.6 586.5c-.4-1.4-8.9-.8-16.6 1.6-4.4 1.3-7.9 3.1-10.3 4.3-.8 11-1.3 22.4-1.6 34.4-.2 8.5-.2 16.8 0 24.9 2.8 2.1 9.6 6.7 19.4 7.5 6.6.5 11.9-.9 15-2l-5.1-58.5c-8-.1-14.3-.8-14.6-2.8-.6-3.1 14.4-7.5 13.8-9.4z" class="V"/><path d="M944.1 598.7l13 40.3 6.7 20.2c-2.8-.1-7.3-.6-12.2-2.8-4.2-1.8-7.2-4.2-9.1-5.9-.6-8.8-.9-18.6-.4-29.2.4-8.1 1.1-15.7 2-22.6z" class="V"/></g><path d="M975.6 425.6c-.9 4.6-2 11.4-3.2 19.7-3.7 27.3-3.6 48.5-3.5 65 .1 12.1.6 27.8 2.1 46.3 4.8 1.7 12.6 4.3 22.5 6.7 17.1 4.2 27.1 4.6 55.5 8.4 17.5 2.4 13.4 2.2 28.8 4.2 22.7 3 37 4.9 55.1 5.3 8.3.2 19.9.1 34.1-1.1 2.5-10.9 5.2-24.7 7-40.7.5-4 2.4-22.2 2.1-47-.2-15.9-1.4-35.9-4.9-59l-15.4-3.5c-7.5-1.6-33.7-6.9-69.5-9.1-37.9-2.4-66.9-.1-76.5.7a414.97 414.97 0 0 0-34.2 4.1zm-654.7 76.1L372.7 634l151.8-92.2-43.7-107.5c-25.7 8.7-52.8 18.9-81.1 30.8-28.4 12-54.6 24.3-78.8 36.6zm50.9 134.1c18.8 11.4 39.7 22.9 62.9 33.8 14.4 6.9 28.5 12.9 41.9 18.3l69.2-47 68-47-86.5-51.2-155.5 93.1z" class="T"/><g class="S"><use xlink:href="#B"/><use xlink:href="#B" x="16.6" y="10.3"/><use xlink:href="#C"/><use xlink:href="#C" x="16.6" y="10.3"/><path d="M413.6 628.6l33.1 20.9c1.6 1 3.1-1.6 1.5-2.6L415.1 626c-1.6-1-3.1 1.6-1.5 2.6h0zm17.2-10l30.9 21.8c1.6 1.1 3.1-1.5 1.5-2.6L432.3 616c-1.5-1.1-3 1.5-1.5 2.6h0zm16.5-10.1c9.9 7.2 19.7 14.6 29.2 22.4 1.5 1.2 3.6-.9 2.1-2.1-9.7-7.9-19.7-15.5-29.8-22.8-1.6-1.3-3.1 1.3-1.5 2.5h0zm17.2-9.8c9.7 6.9 18.9 14.4 27.7 22.4 1.4 1.3 3.5-.8 2.1-2.1-9-8.2-18.4-15.8-28.3-22.9-1.6-1.1-3.1 1.5-1.5 2.6h0zm15.8-8.6a258.94 258.94 0 0 1 25.3 23.8c1.3 1.4 3.4-.7 2.1-2.1-7.9-8.5-16.4-16.4-25.3-23.8-1.4-1.2-3.6.9-2.1 2.1h0zm12.5-9.8c9.8 7.7 18.7 16.2 26.9 25.5 1.3 1.5 3.4-.7 2.1-2.1-8.2-9.3-17.1-17.8-26.9-25.5-1.4-1.2-3.6.9-2.1 2.1h0zm15.6-10.7c9.6 7.7 19 15.7 27.9 24.1 1.4 1.3 3.5-.8 2.1-2.1-9-8.4-18.3-16.5-27.9-24.1-1.5-1.2-3.6.9-2.1 2.1h0zm13.2-7.4c5.3 3 9.5 7.8 13.9 12l12.8 12.3c1.4 1.3 3.5-.8 2.1-2.1l-14.1-13.6c-4.1-4-8.1-8.3-13.1-11.2-1.8-.9-3.3 1.7-1.6 2.6h0zm-123.6 76c11.7 7.6 23.9 14.4 36.5 20.4 1.7.8 3.3-1.8 1.5-2.6-12.6-6-24.7-12.9-36.5-20.4-1.6-1-3.1 1.6-1.5 2.6h0zM529.5 557l1.2.3c.8.2 1.7-.2 1.8-1 .2-.8-.2-1.6-1-1.8l-1.2-.3c-.8-.2-1.7.2-1.8 1-.3.7.2 1.6 1 1.8h0z"/><path d="M529.2 556.8c12.6 5.6 23.5 14.2 35.7 20.5 1.7.9 3.2-1.7 1.5-2.6-12.2-6.3-23.1-14.9-35.7-20.5-1.7-.8-3.3 1.8-1.5 2.6h0zm-96 101.7c6.2 3.1 12.2 6.6 17.9 10.5 1.6 1.1 3.1-1.5 1.5-2.6-5.8-3.9-11.7-7.4-17.9-10.5-1.7-.9-3.2 1.7-1.5 2.6h0zm14.4-8.4c4.6 3.4 9 7.1 13.2 11.1 1.4 1.3 3.5-.8 2.1-2.1-4.3-4.2-8.9-8-13.8-11.6-1.5-1.2-3 1.4-1.5 2.6h0zM462 641a101.06 101.06 0 0 1 13.8 12.3c1.3 1.4 3.4-.7 2.1-2.1-4.4-4.7-9.2-9-14.4-12.8-1.5-1.1-3 1.5-1.5 2.6h0zm15.1-9.6c4.2 4 8.2 8.2 12.1 12.4 1.3 1.4 3.4-.7 2.1-2.1-3.9-4.3-7.9-8.4-12.1-12.4-1.4-1.4-3.5.7-2.1 2.1h0zm41.7-26.4l12.1 14.2c1.2 1.5 3.4-.7 2.1-2.1l-12.1-14.2c-1.3-1.5-3.4.7-2.1 2.1h0zm17.7-10.6c4 4.2 7.8 8.6 11.6 13 1.3 1.5 3.4-.7 2.1-2.1-3.8-4.4-7.6-8.8-11.6-13-1.3-1.4-3.4.7-2.1 2.1h0zm11.7-7.8l19.1 8.9c1.7.8 3.3-1.8 1.5-2.6l-19.1-8.9c-1.7-.8-3.3 1.8-1.5 2.6h0z"/><path d="M564.6 576.5c5.6 3.5 11.3 6.8 17.1 9.8 1.7.9 3.2-1.7 1.5-2.6-5.8-3-11.5-6.3-17.1-9.8-1.6-1.1-3.1 1.5-1.5 2.6h0z"/></g><path d="M654.3 372.9c-1.2 11.1-2.2 22.5-2.8 34.4-2.5 48.6 1.6 92.5 8.4 130.3l48.8-.7c73.4-1.8 105.2-6.1 170.6-6.3l37.6.4c2.6-10.4 4.9-21.4 6.7-33 8.1-52.8 3-99.4-4.9-135.5-13.6-2.6-33.7-5.7-58.3-7-16.1-.8-20.6-.2-85.3 2.8-46 2.1-58.3 2.5-79.7 6-17.4 2.6-31.6 6-41.1 8.6z" class="T"/><g class="S"><path d="M1048.6 572.3c.6 13.6.4 27.2-.7 40.7-.1 1.9 2.9 1.9 3 0 1.1-13.6 1.3-27.1.7-40.7-.1-2-3.1-2-3 0h0zm17.6 2.9V613c0 1.9 3 1.9 3 0v-37.8c0-2-3-2-3 0h0z"/><path d="M1048.3 611.6c-3.2-.2-15.5 2-13 7.7 1.1 2.6 5.5 2.8 7.7 3.2 5.1.8 10.3 1 15.4 1 4.9-.1 10-.1 14.9-.7 2.3-.3 7-.8 8.4-3.1 3.1-5.3-10.7-7.8-13.3-8.2-1.9-.3-2.7 2.6-.8 2.9 2.2.4 4.3.8 6.5 1.6 2.9 1 5.7 1.6 2.1 3.3-4 1.8-10.5 1.1-14.8 1.2-5 .1-10.1.1-15.1-.5-1.9-.2-9.5-.1-5.8-3.7 1.8-1.8 5.6-1.8 7.9-1.7 1.9.1 1.9-2.9-.1-3h0zm-76.9-52.8c25.1 7.5 50.8 12.4 76.9 14.7 1.9.2 1.9-2.8 0-3-25.8-2.2-51.3-7.1-76.1-14.5-1.8-.6-2.6 2.3-.8 2.8h0z"/><path d="M1066.5 575.5c33.4 5.9 67.4 8.1 101.1 4.7 1.9-.2 1.9-3.2 0-3-33.5 3.3-67.2 1.3-100.3-4.6-1.9-.3-2.7 2.6-.8 2.9h0zm-94.1-19.1c-2.4-43.4-4.6-87.3 5-130.1.4-1.9-2.5-2.7-2.9-.8-9.6 43-7.4 87.2-5.1 130.9.1 1.9 3.1 1.9 3 0h0z"/><path d="M976.1 427.3c32-6.8 65.9-5.9 98.5-5.3 32.1.6 64.4 3.5 95.2 13.1 1.8.6 2.6-2.3.8-2.9-31.1-9.7-63.6-12.6-96-13.2-32.8-.6-67-1.5-99.3 5.4-1.9.5-1.1 3.3.8 2.9h0z"/><path d="M1169.9 434.4c7.2 47.7 5.9 96.5-3.7 143.7-.4 1.9 2.5 2.7 2.9.8 9.7-47.9 11-97.1 3.7-145.3-.3-1.9-3.2-1.1-2.9.8h0zm-850.5 69.1l52.2 134.3c.7 1.8 3.6 1 2.9-.8l-52.2-134.3c-.7-1.8-3.6-1-2.9.8h0z"/><path d="M371 638.8c34 18.5 68.8 35.5 104.2 51.1 1.8.8 3.3-1.8 1.5-2.6-35.4-15.6-70.2-32.7-104.2-51.1-1.7-.9-3.2 1.6-1.5 2.6h0z"/><path d="M477.2 690.1l136.9-94.3c1.6-1.1.1-3.7-1.5-2.6l-136.9 94.3c-1.6 1.1-.1 3.7 1.5 2.6h0zM320.7 503.2c52-25.9 105.6-48.5 160.5-67.7 1.8-.6 1-3.5-.8-2.9-55.1 19.3-108.9 42-161.2 68-1.8.9-.3 3.4 1.5 2.6h0zm52.9 133.5L525.2 544c1.6-1 .1-3.6-1.5-2.6l-151.6 92.7c-1.6 1-.1 3.6 1.5 2.6h0z"/><path d="M479.2 435.1l44 106.4c.7 1.8 3.6 1 2.9-.8l-44-106.4c-.7-1.8-3.6-1-2.9.8h0z"/><path d="M525.3 543.3l88.1 50.5c1.7 1 3.2-1.6 1.5-2.6l-88.1-50.5c-1.7-.9-3.2 1.7-1.5 2.6h0zm126.2-169.7c-4.1 54.5 1.1 109.1 6.4 163.3.2 1.9 3.2 1.9 3 0-5.3-54.3-10.5-108.8-6.4-163.3.2-1.9-2.8-1.9-3 0h0z"/><path d="M653.9 374.9c31.8-11.6 66.1-12.4 99.5-14.4 34.7-2.1 69.5-4.8 104.2-3.8 20.4.6 40.7 2.5 60.8 6.6 1.9.4 2.7-2.5.8-2.9-34.6-7.1-69.9-7.7-105-6.3-35.4 1.4-71.1 3.1-106.3 6.5-18.6 1.8-37.1 4.9-54.8 11.3-1.8.8-1 3.7.8 3h0z"/><path d="M918.4 362c10.2 55.4 9.5 112.5-2.2 167.7.5-.4 1-.7 1.4-1.1l-257.1 8.3c-1.9.1-1.9 3.1 0 3l257.1-8.3c.6 0 1.3-.4 1.4-1.1 11.7-55.7 12.5-113.3 2.2-169.3-.3-1.9-3.2-1.1-2.8.8h0z"/></g><path d="M1050.3 571.9l-.2 17-.7 23.8c-1.3-.2-4.1-.4-7.2.9-.3.1-5.9 2.5-5.7 4.6.5 3.6 18.4 4.1 28.2 3.7 5.6-.2 15.9-.6 16.2-2.8.2-1.7-5-3.9-12.4-6.1l-.9-39.7-17.3-1.4z"/><g class="X"><path d="M984.9 437.3c-3.9 32.9-5.1 66-3.5 99.1.1 1.9 3.1 1.9 3 0-1.5-33.1-.3-66.2 3.5-99.1.2-1.9-2.8-1.9-3 0h0z"/><path d="M987.3 438.5c13.8-5.1 28.4-6.4 43-6.6 14.4-.1 28.8.4 43.1 1.3 29.8 1.9 59.4 6 88.6 12 1.9.4 2.7-2.5.8-2.9-29.5-6.1-59.3-10.2-89.4-12.1-14.9-1-30-1.5-44.9-1.3-14.2.2-28.5 1.7-41.9 6.7-1.9.6-1.1 3.5.7 2.9h0z"/><path d="M1161.8 444c1.5 39-2.1 78-6 116.8-.2 1.9 2.8 1.9 3 0 3.9-38.8 7.4-77.8 6-116.8-.1-1.9-3.1-1.9-3 0h0z"/><path d="M981.9 538.6c11.8 7 26.8 9.2 40 12.1 15.3 3.4 30.8 6.2 46.4 8.4 14.7 2.1 29.5 3.6 44.4 4.6 14.6 1 30.1 2.6 44.5-.3 1.9-.4 1.1-3.3-.8-2.9-14.4 3-30.1 1.1-44.7.2-14.9-1-29.8-2.6-44.5-4.7-14.3-2.1-28.5-4.6-42.6-7.7-13.5-3-29.1-5.2-41.2-12.2-1.7-1.1-3.2 1.5-1.5 2.5h0zm3.6-86.6c59.3-3.6 118.6 3 177.2 11.2 1.9.3 2.7-2.6.8-2.9-58.9-8.3-118.4-14.9-178-11.3-1.9.1-1.9 3.1 0 3h0zm20.3-9.9a.66.66 0 0 1 0-1.3c.9-.4 1.6.6 1.5 1.4-.1 1.3-1.6.4-1.4-.3l.3-.3c-.1.1-.2-.1-.2-.1.1-.2.7-.7.7 0 0-1.9-3-1.9-3 0 0 1.5 1.2 2.6 2.7 2.6a2.51 2.51 0 0 0 2.5-3c-.2-1.6-1.7-2.7-3.3-2.5-1.7.3-2.9 1.9-2.8 3.6.3 3.7 5.7 5 7.1 1.3 1.2-3-1.4-6.5-4.7-5.8-1.6.3-3 1.7-3 3.4-.1 1.7 1.1 3.3 2.7 3.8 1.9.6 2.7-2.3.9-2.8h0zm16-1.9c-.5-.1 0-.5.3-.5.6.1.5.8 0 .8h-.1s-.1-.1-.1-.3v-.3s0 .1-.1.1c-.2 0 .2-.1.1 0 .7-.3-.1.2.1 0v-.2s.5.1 0 0c-.8-.3-1.6.3-1.8 1-.2.8.3 1.6 1 1.8 1.3.5 2.8-.3 3.4-1.5.7-1.2.3-2.7-.8-3.5-2.1-1.6-5.2 0-5 2.7.3 2.9 3.7 4 5.7 1.9 2-2.2.3-5.6-2.6-5.7-1.6 0-3.1 1.1-3.4 2.7-.4 1.6.7 3.3 2.3 3.7 2.1.7 2.9-2.2 1-2.7h0zm29.9 39.4c-13.5 5.6-26.8 11.5-40 17.6-1.3.6-.7 2.4.4 2.7 11.3 4 22.1 9 32.5 14.9 1.7 1 3.2-1.6 1.5-2.6-10.6-6.1-21.7-11.1-33.2-15.2.1.9.2 1.8.4 2.7 13-6 26.1-11.8 39.3-17.3 1.7-.7.9-3.6-.9-2.8h0zm37.7-4.5l-33.8 42.8c-1.2 1.5.9 3.6 2.1 2.1l33.8-42.8c1.2-1.4-.9-3.6-2.1-2.1h0zm15.1 16.6c9.4 6 19.2 11.3 29.3 15.9V505l-32.4 18.2c-1.7.9-.2 3.5 1.5 2.6l32.4-18.2c.9-.5 1-2.1 0-2.6-10.1-4.6-19.9-9.9-29.3-15.9-1.6-1.1-3.1 1.5-1.5 2.6h0zm1.9 64l37.1.8c1.9 0 1.9-3 0-3l-37.1-.8c-1.9 0-1.9 3 0 3h0zm-777.2-49.5c15.4 36.7 29.8 73.8 43.4 111.2.7 1.8 3.6 1 2.9-.8-13.6-37.4-28-74.5-43.4-111.2-.8-1.8-3.7-1-2.9.8h0z"/><path d="M331 505.4l142.5-59.3c1.8-.8.2-3.3-1.5-2.6l-141.8 59c-1.8.8-1 3.7.8 2.9h0z"/><path d="M473.2 445.3c14 29.9 27 60.2 39.1 90.8.7 1.8 3.6 1 2.9-.8-12.2-30.9-25.3-61.5-39.4-91.6-.8-1.6-3.4-.1-2.6 1.6h0z"/><path d="M376.2 619.5c23.4-13.1 46.5-26.5 69.4-40.3l33.8-20.7c11-6.9 22-13.9 33.9-19.3 1.8-.8.2-3.4-1.5-2.6-11.9 5.4-22.9 12.4-33.9 19.3l-33.8 20.7c-22.9 13.8-46.1 27.2-69.4 40.3-1.7 1-.2 3.6 1.5 2.6h0z"/></g><path d="M387.8 528.6c-6.6-4-13.2 2.9-17 7.8-4.6 5.9-5.8 13-3 20 2.5 6.1 8.1 12.2 15.2 11.8 8.4-.5 13.4-7.9 17.2-14.5 1-1.7-1.6-3.2-2.6-1.5-2.7 4.7-5.7 9.9-11 12-6.3 2.6-11.9-1.2-15-6.7-2.4-4.2-3.2-9.4-1.6-14.1 1.6-4.5 10.2-15.8 16.2-12.2 1.7 1 3.3-1.6 1.6-2.6h0zm35.6-16.3c0-4.6-4.7-3.3-7.2-1.4-4 3-8.8 9.8-9.5 14.8-.8 6.3 6.1 5.1 10.4 4.7 5.4-.5 13 1.5 8.8 8.7-2.7 4.6-8.2 6.7-13.2 6.9-1.9.1-1.9 3.1 0 3 7.6-.4 21.7-7.6 16.6-17.4-2.2-4.1-7.1-4.7-11.3-4.4-1.1.1-4.2.9-5.3.5-4-1.5-1.8-4.7-.8-6.6.7-1.3 1.4-2.7 2.3-3.9.3-.4 6.1-6.2 6.1-5 .1 2.1 3.1 2.1 3.1.1h0zm38.2-22.6c-4.9-1.9-9.3 2.3-12.2 5.8-2.4 2.8-6.7 8.5-5.2 12.6 1.6 4.4 8.4 2.4 11.6 2 1.7-.2 3.6-.5 5.3-.2 4.5.6 6.1 5.2 4 8.9-2.5 4.4-7.4 5.8-12 6.4-1.9.3-1.1 3.2.8 2.9 7.4-1.1 20.4-8.6 14-17.9-3.1-4.5-9.3-3.4-13.8-2.9-1 .1-4.7 1.1-5.3.4-1.5-1.5-.6-5 .3-6.6 2-3.4 6.9-10.5 11.8-8.6 1.7.8 2.5-2.1.7-2.8h0z" class="W"/><g class="X"><path d="M464 556.4l22.6-14.5c1.6-1 .1-3.6-1.5-2.6l-22.6 14.5c-1.6 1.1-.1 3.7 1.5 2.6h0zm29-17.8l5.8-2.7c1.7-.8.2-3.4-1.5-2.6l-5.8 2.7c-1.8.8-.2 3.4 1.5 2.6h0zm-46.1-75c.1-.2.1-.4.2-.7 0-.1.1-.1.1-.2.2-.1.4-.3.7-.4-.3.1.6.1.7.1.3.1.3.3.4.5s0-.2 0 0c-.1.3 0-.2 0 0 0 .1 0 .1 0 0l-.1.1c-.1 0-.2.1-.2.1-.2.1-.1-.1 0 0h-.1c0-.1 0 .1 0 0 0 0-.1 0-.1-.1-.1-.1 0-.1 0 .1 0-.1 0-.1 0 0 0 0-.1-.3 0-.3 0 0-.1.2-.1.3.1-.3-.1.1 0-.1l.1-.1c-.1.1.2 0 .2 0 .1 0 .2 0 .2.1.1 0 .1.1 0 0 0 0 .1.3.1.1s0 .3 0 .4c-.1.3-.4.4-.6.4.2 0 0 0-.1 0 .2.1 0 0-.1 0 .2.1-.1-.1-.1-.1-.1-.2-.1-.3-.1-.5 0-.3 0-.4.3-.6l.1-.1c.1 0 .1-.1.2-.1-.2 0 .1 0 .1 0-.2 0 .1 0 .1 0-.2-.1.1.1.2.1.2.1.4.5.4.7a1.54 1.54 0 0 0-1.5-1.5 1.54 1.54 0 0 0-1.5 1.5c0 2.8 4.5 2.8 4.6.1s-4.2-3.2-4.8-.6c-.3 1.3.6 2.7 1.9 3.1 1.2.3 2.5-.3 3-1.4.6-1.1.4-2.5-.5-3.4s-2.4-1.2-3.5-.5c-1.2.7-1.6 2.4-.9 3.6.4.6 1.1 1.1 1.8 1.1.9 0 1.8-.8 1.8-1.8-.1-.8-.6-1.5-1.5-1.5-.6.1-1.4.8-1.4 1.6h0zm13.6-6c.8-.2 1.1 1.1.3 1.2-.1 0-.4-.1-.3-.1.1.1-.2-.2 0 0-.2-.2-.1-.1 0 .1 0-.1 0-.1-.1-.2 0 .1 0 .1 0 0s0-.1 0 0 0 .1 0-.1a.76.76 0 0 1 .2-.4c.1-.1.3-.1.4-.2-.4 0 .3 0 0 0 .1 0 .1 0 .2.1-.1-.1-.1-.1 0 0s.1.1 0 0l.1.1c-.1-.3.1.3 0 0 0 .1 0 .5.1.3l-1 1c.2-.1.5-.2.7-.2-.2 0 .2 0 0 0-.1 0-.1 0 0 0h0c-.1-.1-.2-.1-.3-.3 0-.1-.1-.4-.1-.3 0 .2.1-.3 0-.1.1-.4.5-.7.9-.7a1.54 1.54 0 0 0-1.5 1.5 1.54 1.54 0 0 0 1.5 1.5c2.3 0 2.8-3.2.9-4.3-.9-.5-2-.4-3 0-1.2.5-1.4 1.9-.8 3 1 1.8 3.9 2 4.6-.2.6-1.8-1.1-3.8-3-3.5-1.3.2-2.2 1.7-1.9 2.9.3 1.3 1.7 2.1 2.9 1.7.8-.2 1.3-1.1 1-1.8-.2-.7-1-1.2-1.8-1h0zm199.9-78.7c.8 50.1 3.4 100.1 8 150 .2 1.9 3.2 1.9 3 0-4.5-49.9-7.2-99.9-8-150 0-2-3-2-3 0h0z"/><path d="M663.9 380.5c20.5-3.6 41.3-4.3 62-5.2l60.4-2.3 121.8-3.8c1.9 0 1.9-3 0-3L784.3 370l-61.4 2.4c-20 .8-40 1.7-59.8 5.2-1.8.3-1 3.2.8 2.9h0z"/><path d="M907.6 368.5c5.6 10.7 5.3 23.1 5.6 34.8.3 12.2.4 24.4.3 36.6-.2 24.4-1.1 48.7-2.8 73.1-.1 1.9 2.9 1.9 3 0 1.7-25.6 2.7-51.3 2.8-77 .1-12.5-.1-25-.4-37.6-.3-10.8-.7-21.6-5.9-31.4-.9-1.7-3.5-.2-2.6 1.5h0z"/><path d="M670.6 529.3c78.8-14.6 159.8-12.7 239.5-14 1.9 0 1.9-3 0-3-80.1 1.3-161.3-.5-240.3 14.1-1.9.4-1.1 3.3.8 2.9h0zm19.9-141.9c-4 2.7-7.8 5.7-11.4 9-.7.7-.5 1.9.3 2.4 3.6 2.2 8.9 1.7 11.7 5 1.2 1.5 3.3-.6 2.1-2.1-3.1-3.8-8.4-3.1-12.3-5.5l.3 2.4c3.4-3.1 7-5.9 10.8-8.5 1.6-1.2.1-3.8-1.5-2.7h0zm16.5-1.5c-4.1 6.1-7.5 12.4-10.4 19.1-.8 1.8 1.8 3.3 2.6 1.5 2.9-6.7 6.3-13.1 10.4-19.1 1-1.6-1.6-3.1-2.6-1.5h0zm5.9 11.7c4.6-.6 9.3-.7 13.9-.3 1.9.2 1.9-2.8 0-3-4.7-.4-9.3-.3-13.9.3-1.9.2-2 3.2 0 3h0zm17.3-10.8c3.6 5 10.2 5.4 14.3 9.7l.3-2.4c-4.4 2.5-8.4 5.4-12 8.8-1.4 1.3.7 3.4 2.1 2.1 3.5-3.2 7.3-6 11.4-8.3.9-.5 1-1.7.3-2.4-3.9-4-10.6-4.5-13.9-9.1-1.1-1.4-3.7.1-2.5 1.6h0zm-60.3 36.8l12.3-.9c1.9-.1 1.9-3.1 0-3l-12.3.9c-1.9.2-1.9 3.2 0 3h0zm21.9-1.6l83.1-4.9c1.9-.1 1.9-3.1 0-3l-83.1 4.9c-1.9.1-2 3.1 0 3h0zm-20.3 13.6h6.8c1.9 0 1.9-3 0-3h-6.8c-2 0-2 3 0 3h0zm15.1-1.2c2.7.2 5.4-.1 8-.8 1.9-.5 1.1-3.4-.8-2.9a21.75 21.75 0 0 1-7.2.6c-1.9 0-1.9 3 0 3.1h0zm24.6-2.1c26.3-2.5 52.7-3.2 79.2-2.1 1.9.1 1.9-2.9 0-3-26.4-1.1-52.8-.4-79.2 2.1-1.9.1-1.9 3.1 0 3h0zm-36 18.3c-1.7 2.1-3.5 4.2-5.5 6.1-.8.8-.4 2.2.7 2.5 3.1.9 6.3 1.3 9.5 1.4 1.9 0 1.9-3 0-3-3 0-5.8-.4-8.7-1.3l.7 2.5a53.15 53.15 0 0 0 5.5-6.1c1.1-1.5-1.1-3.7-2.2-2.1h0zm10.2 5.9c13.6-2.6 27.4-3.8 41.3-3.6 1.9 0 1.9-3 0-3-14.2-.3-28.2 1-42.1 3.7-1.8.4-1 3.2.8 2.9h0zm45.4-7.5c4.9 2.5 10.8.8 15.5 3.5.1-.9.2-1.8.4-2.7-2.8.9-5.3 2.2-7.7 3.9-1.6 1.1-.1 3.7 1.5 2.6 2.2-1.5 4.4-2.7 7-3.6 1.2-.4 1.5-2.1.4-2.7-4.8-2.9-10.6-1-15.5-3.5-1.8-1-3.3 1.6-1.6 2.5h0zm132.4-70.2c-2.4.4-3.9 2-4.4 4.4-.3 1.6.2 3.2.5 4.7 1 4.4.4 6.6-3.6 9-1.2.8-.8 2.8.8 2.8 4.2-.1 2.7 19.3 11.6 12.8 1.6-1.1.1-3.7-1.5-2.6-4.1 2.9-3.8-6.6-4-7.6-.2-1.1-.5-2.1-1-3-1.2-1.9-2.8-2.7-5.1-2.6.3.9.5 1.9.8 2.8 2.3-1.4 4.7-3 5.6-5.7.8-2.4-2.6-11.4 1.2-12.1 1.8-.3 1-3.2-.9-2.9h0zm19.5 1.2c3.4-.5 4.7 1.5 4.1 6.2l-.9 1.7c-.2 1-.6 1.7-.6 2.8 0 2.1 1.4 2.5 2.1 4.1.6 1.5-.1 1.3-.3 3.2-.6 4 4.9 7.3-.3 10.9-1.6 1.1-.1 3.7 1.5 2.6 2.2-1.5 3.8-3.7 3.8-6.5 0-1.1-.5-2.1-.8-3.1-.6-2.5-.2-4.3.5-6.7.1-.5 0-1.1-.4-1.5-.3-.2-1.1-.8-1.4-1.1-2.4-2.4-.8-3.6.3-6.3.6-1.6 1.1-2.9.6-4.6-.9-3.6-4.7-4.8-8-4.7-2.1 0-2.1 3-.2 3h0zm-109.4 16l47.3-3.8c1.9-.2 1.9-3.2 0-3l-47.3 3.8c-1.9.1-1.9 3.1 0 3h0z"/><path d="M841.3 391.2c3.6.5 7.2.4 10.7-.2 1.9-.3 1.1-3.2-.8-2.9-3.3.5-6.6.5-9.9.1-1.9-.3-1.9 2.7 0 3h0zM681 477.3l79.5-5.2c1.9-.1 1.9-3.1 0-3l-79.5 5.2c-1.9.1-1.9 3.1 0 3h0zm96.7-7.3l30.2-2.8c1.9-.2 1.9-3.2 0-3l-30.2 2.8c-1.9.2-1.9 3.2 0 3h0zm52.9-3.9c19.7-2 39.5-3.5 59.2-4.4 1.9-.1 1.9-3.1 0-3-19.8 1-39.5 2.4-59.2 4.4-1.9.2-1.9 3.2 0 3h0zm-137.8 21.1l-11.2 7.9c-1 .7-1 2.4.4 2.7 3.9 1 7.8 1.8 11.8 2.4 1.9.3 2.7-2.6.8-2.9-4-.6-7.9-1.4-11.8-2.4.1.9.2 1.8.4 2.7l11.2-7.9c1.5-1.1 0-3.7-1.6-2.5h0zm15.3-1.7c-4.3 5-8.3 10.2-11.9 15.8-1.1 1.6 1.5 3.1 2.6 1.5 3.4-5.3 7.2-10.4 11.4-15.2 1.3-1.4-.8-3.6-2.1-2.1h0zm8.9 4.3c1.3 1 2.7 1.5 4.1 2l2.7.8c.5.2 1.1.5 1.5.8-.1-.7-.4-.9-.9-.6-1.3-.1-3.8 1.5-5 2.1-1.9.9-3.6 2.1-5.3 3.3-1.5 1.1 0 3.7 1.5 2.6a32.31 32.31 0 0 1 7.2-4.2c1.6-.7 5-1 5.5-3.1.4-1.8-1.6-2.8-2.9-3.4-2.3-1-4.9-1.3-7-2.8-1.4-1.2-2.9 1.4-1.4 2.5h0zm33.3 4.2c12.3-1 24.6-2.3 36.9-1.6 1.9.1 1.9-2.9 0-3-12.4-.7-24.6.6-36.9 1.6-2 .1-2 3.1 0 3h0zm63.6-4.5c23.1-2.7 46.3-3.7 69.6-3.2 1.9 0 1.9-3 0-3-23.2-.5-46.5.6-69.6 3.2-1.9.2-1.9 3.2 0 3h0z"/></g><path d="M985.5 436.1l-1.4 15.1c28.9-.9 60.6-.6 94.6 1.6 30.1 2 58.2 5.2 83.9 9.2l1.7-18.9c-11.6-2.3-26.9-5-44.9-7.5-23.1-3.2-40.7-4.6-50.3-5.3-24.3-1.7-36.7-2.5-53.2-.5-12.9 1.7-23.3 4.3-30.4 6.3z" opacity=".16" class="W"/><g class="U"><path d="M379.7 474.1c-3.3 9-7.3 22.1-9.2 38.2-2.3 19.9-8.2 70.7 18.4 86.2 18.2 10.6 47.2 2.2 71.7-17.8l12.7 10.1-74.7 45.3 52.7 31.4 56.9-33.8 28.7 14.2-59.6 42.1-104-51.9-52.7-137.2 59.1-26.8z" opacity=".12"/><path d="M1106 422.6c2.4 5.7 5.3 13.9 7.1 24.1.7 4.2 6.2 37.5-8.5 66.8-15.7 31.4-51.2 51.6-91.2 53.9 30.5 6.6 66.2 11.8 106.2 12.9 16.8.5 32.8.2 47.8-.7 4.2-17.2 7.8-37.7 9.2-61.1 2-33.8-1.2-63-5.4-85.5l-65.2-10.4z" opacity=".08"/><path d="M858 355.8c3.5 6.5 7.9 16.3 9.7 28.8 4.5 30.2-9 54.3-18.3 70.5-28 48.5-74.7 71.8-95.5 80.7 43.4-.3 88-1.6 133.6-4.3l30.4-1.9c4.4-19.4 8-42.3 9.4-68.2 2-39.6-2.1-73.8-7.4-100.1l-61.9-5.5z" class="V"/></g><path d="M830 992.2c1 6.8 1.9 13.9 2.7 21.3.9 8.5 1.4 16.7 1.8 24.5.8 1.5 2.2 3.5 4.5 5.1 3.6 2.5 7.5 2.5 11.7 2.4 12.2-.3 18.3-.4 21-.9 9.5-1.9 18.5-3.6 20.4-9.6 1.3-4-1.3-8.4-1.5-8.7-1.5-2.5-3.5-3.6-6.9-5.4-2.3-1.3-6.2-3.3-11.7-3.9-4.7-.5-8.6.2-11.1.9l-3.9-31.7-27 6z"/><path d="M811.9 794.3c-8.1 8.8-5.6 18.2-8.9 74.9-1.3 22.8-1.8 21.7-2.2 35.4-1.1 31.3.6 52.9 1.6 63.4.7 7.9 1.6 14.5 2.2 19.1 5.9 3 16 7 28.4 5.7 7.3-.7 12.8-3.1 16.9-4.8 9-3.8 15.6-8.8 19.8-12.4l-5.1-189.3c-35.3-6.7-48 2.9-52.7 8z" class="T"/><g class="S"><path d="M805 802.6c-5.6 60.7-6.3 121.8-2.1 182.7.1 1.9 3.1 1.9 3 0a1137.28 1137.28 0 0 1 2.1-182.7c.2-1.9-2.8-1.9-3 0h0z"/><path d="M804.4 988.2c22.2 11.5 47.7 4.9 65.5-11.4 1.4-1.3-.7-3.4-2.1-2.1-16.8 15.4-40.9 21.8-61.9 11-1.7-1-3.2 1.6-1.5 2.5h0z"/><path d="M862.3 788.9l4.8 185.4c.1 1.9 3.1 1.9 3 0l-4.8-185.4c0-1.9-3-1.9-3 0h0zm-33.6 204.6c2.4 12.1 3.9 24.3 4.5 36.6.1 1.9 3.1 1.9 3 0-.6-12.6-2.1-25.1-4.6-37.4-.4-1.9-3.3-1.1-2.9.8h0zm26.8-7.5a427.03 427.03 0 0 0 3.6 39.1c.3 1.9 3.2 1.1 2.9-.8-1.8-12.7-3-25.5-3.5-38.3-.1-1.9-3.1-1.9-3 0h0z"/><path d="M860.6 1018.5c10.8-1.4 21.4 1.8 29.5 9.1 1.4 1.3 3.6-.8 2.1-2.1-8.7-7.8-20-11.5-31.6-10-1.9.2-1.9 3.2 0 3h0z"/><path d="M833.2 1029c-.5 6.3-.2 13.9 6.5 16.8 2.6 1.1 5.9 1.2 8.7 1.4 4.8.4 9.6.6 14.4.4 11.5-.6 33.8-5.2 30.5-21.3-.4-1.9-3.3-1.1-2.9.8 2.9 14.2-19.9 17.3-29.4 17.6-5.1.2-10.2-.1-15.3-.7-9-1.1-10.1-7-9.5-14.9.1-2-2.9-2-3-.1h0z"/></g><g class="U"><path d="M807 802l29.4-10.4a1093.9 1093.9 0 0 0-.4 106c1.4 32.4 4.2 62.8 7.7 90.9-2 .9-4.2 1.7-6.6 2.3-13.8 3.6-26.1-1-32.1-3.9-2.8-33.3-4.2-70.1-3.1-109.9.8-26.5 2.6-51.5 5.1-75z" class="V"/><path d="M806.2 804c.4 17.5 1.5 40.2 3.9 66.5 1.9 20.9 4 36.5 4.6 41.4 2.9 21.1 7.3 48.5 14.7 80.5l-25.1-5.8c-1.5-32.1-2.2-66.1-1.5-101.8a1453.3 1453.3 0 0 1 3.4-80.8z" class="V"/></g><path d="M784.9 876.6l2.4 13.2c5.9 35.6 5.8 61.2 6.4 82.8.5 18.4 1.7 44.7 5.1 77.4-2.1.9-5.3 2.4-9.1 4.4-9.4 4.9-22 11.5-33.8 23.7-3.5 3.6-8.4 9.2-13.2 16.9 15.9 1.5 34.7 2.2 55.8.7 25.9-1.9 48.3-6.5 66.2-11.5-5.4-4.6-11.4-9.2-17.9-13.9-12.4-8.7-24.3-15.6-35.1-21-2.4-23.3-4.3-47.8-5.4-73.3-1.7-39.4-1.5-76.5 0-110.9l-21.4 11.5z"/><path d="M710.9 828c0-4.6 5.3-8.5 15.9-16.2 5-3.7 18.8-13 41.9-18.3 20.3-4.6 35.9-3.3 54.8-1.7 26.9 2.3 39.3 7.7 42.6 9.1 9.8 4.4 17.2 9.6 22 13.5-1.7 6.1-5.1 14.7-12.2 22.6-4.9 5.6-18.3 18.4-55.4 21.3-51.5 4.2-109.7-13.6-109.6-30.3z" class="T"/><path d="M713.9 822.2c-1.3 2.8-2.5 5.9-3.4 9.5-3.4 12.9-1.5 24.2.3 31.1 5.4 2.5 13.1 5.6 22.6 8.4 29.2 8.7 53 7.5 72.3 6.4 25.4-1.4 41.8-2.6 60.8-12.5 10.5-5.5 18.3-11.9 23.3-16.6l-1-32.8c-8.3 5.5-17.8 10.7-28.4 14.9-62 24.8-123.4 1.8-146.5-8.4z"/><g class="S"><path d="M709.2 829c-2.1 11.3-2 22.7.1 34 .4 1.9 3.2 1.1 2.9-.8-2-10.8-2.1-21.6-.1-32.4.4-1.9-2.5-2.7-2.9-.8h0z"/><path d="M710.2 863c13.5 8.7 29.8 10.9 45.4 13.2 16.8 2.4 33.7 3.8 50.7 2.4 29.1-2.4 65-5.2 84.9-29.5 1.2-1.5-.9-3.6-2.1-2.1-9.4 11.5-22.9 18.1-37.1 21.8-15.4 4-31.7 5.8-47.6 6.9-16.7 1.2-33.4-.3-49.9-2.7-14.7-2.2-30.1-4.3-42.8-12.6-1.6-1-3.1 1.6-1.5 2.6h0z"/><path d="M887 816.2c1.9 10.4 2.5 20.8 1.7 31.3-.1 1.9 2.9 1.9 3 0 .8-10.8.1-21.5-1.8-32.1-.3-1.9-3.2-1.1-2.9.8h0z"/><path d="M712 829.3c15.9-27.4 51.5-35.4 80.9-37.1 17.4-1 34.9.4 51.9 4.4 8.1 1.9 16.2 4.2 24 7.3 7.4 2.9 14.6 6.8 18.3 14.2.9 1.7 3.5.2 2.6-1.5-7.1-14-26.6-18.5-40.5-22-18.3-4.6-37.4-6.4-56.2-5.3-30.4 1.8-66.9 10.2-83.4 38.6-1.2 1.5 1.4 3 2.4 1.4h0zm72.6 48.4c6.3 56.9 10.5 114 12.7 171.2.1 1.9 3.1 1.9 3 0-2.1-57.2-6.3-114.3-12.7-171.2-.2-1.9-3.2-1.9-3 0h0zm19 0c.2 57.5 2.1 114.9 5.8 172.3.1 1.9 3.1 1.9 3 0-3.7-57.4-5.6-114.8-5.8-172.3-.1-1.9-3.1-1.9-3 0h0z"/><path d="M797.1 1048c-22.4 10.3-41.6 26.2-56.2 46.1-.5.7 0 2.1.9 2.2 20.7 3.4 41.6 1.7 62.3-.6 20.2-2.2 40.6-4.4 60.1-10.2 1-.3 1.6-1.8.7-2.5-16.2-13.6-33.9-25-52.9-34.2-1.7-.8-3.3 1.8-1.5 2.6 18.8 9 36.3 20.3 52.3 33.7.2-.8.4-1.7.7-2.5-19.3 5.8-39.4 7.9-59.3 10.1-20.4 2.3-41.1 4-61.5.7.3.7.6 1.5.9 2.2 14.2-19.5 33.2-34.9 55.1-45 1.6-.8.1-3.4-1.6-2.6h0z"/></g><path d="M694.6 783.1l7 27.3c-12.4-4-23.1-6.1-30.9-7.3-5.6-.8-29.3-4.4-30.9.6-.6 1.9 2.2 4.8 2.5 5.1 2.3 2.3 5.1 2.5 7.6 3.1 5.1 1.1 6.8 3 12.1 5.6 8 4 25.3 10.3 44.7 13.8 6.6 1.2 15.2 2.4 25.6 2.8l-12.4-53.7-25.3 2.7z"/><path d="M690.7 532.6c-4.5 1.8-8 5.4-13.6 16.3-9 17.4-11.8 29.8-11.8 29.8-8.4 37.3-12.5 56-14 70.5-4.6 46 3 48 2.7 96.3 0 3.6-.1 11.4 4.5 19 7.3 11.9 21.4 15.3 25.3 16.3 11.5 2.8 22.4.8 31.7-.9 2.6-.5 4.8-1 6.3-1.4 7.2 5.7 13.8 9.6 18.5 12.2 9.1 4.9 17 9.2 28 10.4 6.8.8 13.4.2 16.3 0 5-.4 9.1-1.2 12.2-1.8 4.7 1.6 11.9 3.4 20.8 3.6 5.6.1 24 .2 40.2-11.8 14.5-10.7 19.5-25.1 23.1-35.7 3.4-10.2 16.4-48.9-3.2-69.6-17-18-49.3-12.8-75.1-8.6a165.79 165.79 0 0 0-29.8 7.7L746.1 613c-5.7-15.9-14-30.9-19-47-4.5-14.4-6.9-25.9-17.2-31.7-.7-.4-10.1-5.4-19.2-1.7z" class="T"/><g class="S"><path d="M794.8 801.7c26.5 6.1 56.9 2.1 75.1-20.1 9.1-11.1 12-24.9 14.5-38.7 2.5-14.3 3.9-28.9-.7-42.9-.6-1.8-3.5-1-2.9.8 4.5 13.5 3.2 27.6.7 41.3-2.3 13.2-5 26.7-13.7 37.4-17.4 21.4-46.7 25.1-72.2 19.3-1.9-.5-2.7 2.4-.8 2.9h0zM735.1 585c-1.4-13.4-4.9-27.2-11.6-39-5-8.7-13-17-23.8-16.5-11.4.5-19.8 9.7-24.5 19.2-6.4 12.6-10.4 26.9-14.1 40.4-7.6 27.7-11.9 56.4-12.8 85.1-.5 15.2-.1 30.5 1.2 45.7 1.2 13.7 2.2 28.6 6.1 41.8 3.3 11.3 18.4 18 28.9 20.7 12.6 3.2 25.7 2.1 37.5-3.1 1.8-.8.2-3.4-1.5-2.6-10.6 4.7-22.5 5.7-33.8 3.2-9.9-2.2-25-8.3-28.2-18.9-1.7-5.7-2.3-11.9-3.2-17.8-1.1-7.1-1.9-14.2-2.6-21.4-1.1-12.1-1.7-24.3-1.6-36.5.1-25.5 2.8-50.9 8.2-75.8 2.6-11.9 5.7-23.7 9.5-35.3s7.4-25.3 16.1-34.3c4.9-5 11.9-8.5 19-7.2 6.8 1.3 12 6.6 15.6 12.2 7.6 11.6 11.3 26.3 12.8 40 0 2 3 2.1 2.8.1h0z"/><path d="M682.9 614.8c-3.4 36.5.4 73.6 11.2 108.7 5.2 16.8 11.3 35.4 21.9 49.7 9.4 12.7 24.1 21.1 39 25.8 17.2 5.5 36.1 5.8 52.4-2.5 1.7-.9.2-3.5-1.5-2.6-14.9 7.6-32 7.6-47.7 3-16.1-4.7-32.2-13.9-41.6-28.1-9.2-14-15-30.9-19.8-46.9-5-16.3-8.5-33.1-10.4-50.1-2.1-18.9-2.2-38-.5-56.9.2-2-2.8-2-3-.1h0z"/><path d="M676.4 604.2c.6 13.1 2.5 26 5.8 38.7.5 1.9 3.4 1.1 2.9-.8-3.3-12.4-5.2-25.1-5.7-37.9-.1-1.9-3.1-1.9-3 0h0zm56.6-19c18.9 45.1 35.6 91.2 50.1 138 .6 1.8 3.5 1.1 2.9-.8-14.4-46.8-31.1-92.8-50.1-138-.8-1.7-3.7-.9-2.9.8h0zm-40.2 199.3l7.8 27.1c.5 1.9 3.4 1.1 2.9-.8l-7.8-27.1c-.6-1.8-3.5-1-2.9.8h0z"/><path d="M701.8 809.8c-20-7.9-41.5-10.6-62.9-7.8-.8.1-1.9.9-1.4 1.9 2.6 6.4 9.9 8.3 15.7 10.8 8.3 3.6 16.6 7.1 25.1 10.1 17 6.1 34.7 10.3 52.8 9.8 1.9 0 1.9-3 0-3-16 .4-31.7-2.8-46.8-7.9-7.3-2.4-14.4-5.2-21.5-8.2l-11.5-4.9c-3.9-1.7-9.2-3.3-11-7.6a23.07 23.07 0 0 0-1.4 1.9c21.1-2.8 42.3-.1 62.1 7.7 1.8.8 2.5-2.1.8-2.8h0z"/><path d="M718 779.1c2.1 18.5 10.9 35.5 12.2 54.1.1 1.9 3.1 1.9 3 0-1.3-18.6-10.1-35.6-12.2-54.1-.2-1.9-3.2-1.9-3 0h0z"/></g><g class="U"><path d="M688.6 780c-3.4-8.7-8.1-21.7-12.6-37.7-1.9-6.9-14.1-52-11.5-110.4.7-15.3 2.4-32.2 14.6-44.5 4.7-4.7 10-10 14.6-8.9 19.2 4.5-15.3 106.5 33 161.6 24.8 28.3 60.6 31.9 66.4 32.4 51.4 4.6 86.1-32.3 90.5-37.1.3 6.1-.1 15.6-4.2 26.2-7.4 19.2-21.8 29.1-27.2 32.4-24.9 15.2-51 8.1-55.4 6.8-7.2 1.1-16.8 1.7-27.7 0-24.6-3.8-41.2-16.8-48.6-23.5-3.1 1.7-9 4.3-16.7 4.7-6.7.5-12-.9-15.2-2z" class="V"/><path d="M680.2 603.2c1.3-.1 1.8 11.7 8.4 50.2 7.7 45.5 11.6 68.2 17.3 81.1 7.2 16.4 25.8 45.8 81.6 67.5-8 .3-21.3-.1-36.6-5.8-14.4-5.3-24.5-13.1-30.3-18.3l-18.8 4.2c-3.8-11.4-8.5-26.9-12.6-45.5-15.6-70.1-11.9-133.2-9-133.4z" opacity=".13"/></g><path d="M548.1 562.6c-.5 2.1 2.6 4.9 5.1 6.1 4.1 2 8 .3 8.6 0 0 0 9.2-1 17.7 4 2.6 1.5 5 4.7 9.6 11.1 8.5 11.6 9.6 15.5 15.2 19.2a26.03 26.03 0 0 0 10.1 4l10.6 12.1c16.1 18.8 17.2 22.2 24.8 28.8 8.2 7.2 18.1 16 29.8 14.7 6.2-.7 11.2-4.1 19.2-12.1 16.6-16.7 28.1-35.1 38.4-56.1 11.1-22.6 13.6-33.6 14.7-38.9.6-3.3 6.5-33.1-2-36.9-3.3-1.5-7.6 1.4-14.1 6.6-23.5 18.8-37.4 38.5-38.4 39.9-7.4 10.7-16.7 25.5-25.8 44.5l-42.9-22.2c-.9-1.9-2-4.9-2-8.6 0-6.1 3.1-8.4 5.1-15.2 2.1-7 2.4-16.6-1-18.2-2.4-1.1-7 1.6-9.1 5.1-2.2 3.6-.9 6.8-3 8.1-2.7 1.7-7.6-1.7-8.1-2-5.4-3.8-4.9-8.5-9.1-16.2-4.5-8.3-10.5-12.9-14.1-15.7-5-3.8-10.6-8.1-16.2-6.6-.9.2-4.6 1.3-5.9 4.6-.6 1.6-.4 3.1-.2 4-.4-.3-4-2.5-8-1-2.8 1-5.1 3.6-5.6 6.6-.2 1.3 0 2.4.2 3.2-.5-.2-4.8-1.3-7.8 1.3-.5.4-2.2 1.9-2.2 4 0 1.7 1.2 3.1 3.3 4.8 4.5 3.7 7.9 4.6 12.1 6.9 2.1 1.1 4.9 3 8.1 5.9-5.5 0-16.3.5-17.1 4.2z" class="T"/><g class="S"><path d="M672.8 610.1c17.5-34.1 36.8-70.6 72.7-88.5 1.7-.9.2-3.4-1.5-2.6-36.3 18-56 55-73.7 89.5-1 1.8 1.6 3.3 2.5 1.6h0z"/><path d="M628.7 589.3c15.4 10.3 34.6 14.6 47.8 28.1 1.4 1.4 3.5-.7 2.1-2.1-13.4-13.7-32.8-18.1-48.4-28.6-1.6-1.1-3.1 1.5-1.5 2.6h0zm-12.5 19.8c7.3 12.6 16.4 24.1 26.9 34.1 9.4 8.9 21.7 20.3 35.5 20.6 12.6.3 21.2-10.2 27.9-19.5 10-13.9 19.2-28.3 27.8-43.1 8.8-15.1 18.1-31.1 18.5-49 0-1.9-3-1.9-3 0-.4 19.2-11.4 36.4-21 52.4-9.2 15.5-18.7 32-30.6 45.5-5.5 6.3-12.6 11.5-21.3 10.6-9.7-1-18.3-8-25.5-14.1-13.1-11-24-24.3-32.7-39-.9-1.7-3.5-.2-2.5 1.5h0z"/><path d="M618.9 607.2c-4-1.9-8.6-2.5-12.5-4.7-4-2.3-6.8-6.2-9.4-10-4.6-6.8-8.8-13.9-15.3-19.1-3-2.4-6.5-4.4-10.3-5.4-4.2-1.2-8-.5-12.3-.3-2.7.1-8.3.2-8.5-3.9-.3-4 5.3-3.4 7.6-3.5 5.1-.3 10 0 14.7 2 1.8.7 2.6-2.2.8-2.9-5.6-2.3-11.3-2.4-17.3-2-2.9.2-6.7.2-8.3 3.1-1.4 2.5-.3 5.7 1.6 7.7 3.2 3.4 8 2.7 12.2 2.3 15-1.5 23.9 10.5 31.3 21.8 2.6 4 5.3 8 9 11 4.5 3.6 10.1 4.1 15.1 6.6 1.8.7 3.4-1.9 1.6-2.7h0zm12-19.3c-5.4-6.3-.4-16.1 1.5-22.9 1.4-4.9 3.4-11.7.8-16.6-1.5-2.9-4.8-4.7-8-3.5-1.8.7-3.2 2.1-4.2 3.7-1.4 2.3-1.8 8.6-4.6 9.3-1.9.4-1.1 3.3.8 2.9 3.4-.8 4.1-4.2 5.1-7.1.5-1.5 1.5-5.4 3.4-5.7l5.4 3c.1.9.2 1.7.4 2.6.2 3.6-.9 7.3-1.8 10.7-2.4 8.1-7.1 18.3-.8 25.8 1.1 1.4 3.2-.8 2-2.2h0z"/><path d="M549.7 547c-1.5-.8-3.1-1.7-4.3-2.8-1.7-.9-2-2.2-.9-3.8-.1-2.3 1.1-3.1 3.5-2.7 4.5-.3 8.4 1.9 12.3 3.7 6.7 3.2 13.1 6.6 18.7 11.5 1.4 1.3 3.6-.8 2.1-2.1-4.9-4.3-10.4-7.6-16.2-10.5-5.5-2.8-11.4-6.3-17.8-5.6-3.3.4-7.2 1.6-7.1 5.5.1 4.5 4.7 7.3 8.1 9.3 1.7 1 3.2-1.6 1.6-2.5h0z"/><path d="M553.6 534.9c-5.3-4 1.6-6.7 3.7-7.1 2-.3 4 .2 5.9.8 3.2 1.1 6.1 3 8.9 4.9 5.4 3.7 10.3 8 14.9 12.7 1.4 1.4 3.5-.7 2.1-2.1-7.5-7.6-18.3-18.4-29.6-19.4-7.1-.6-14.8 7.1-7.4 12.7 1.5 1.3 3-1.3 1.5-2.5h0z"/><path d="M566.6 525.9c-3.6-4.5 4.5-6.1 6.9-5.7 1 .2 1.9.5 2.9.8 3.2 1.1 6.1 2.9 8.7 5 4.7 3.7 8.6 8.4 12.2 13.2 1.2 1.5 3.8 0 2.6-1.5-6.3-8.3-13.7-17-24.2-20-3.5-1-8.1-1.3-10.9 1.6-2.5 2.6-2.5 6.1-.3 8.7 1.2 1.5 3.3-.6 2.1-2.1h0z"/><path d="M596.3 537.1c3.7 6.3 7 13 11.2 19 2.6 3.7 6.4 6.4 11 4.5 1.8-.7 1-3.6-.8-2.9-6.1 2.4-9.3-6-11.7-10.1l-7.1-12.1c-.9-1.6-3.5-.1-2.6 1.6h0zm-49.1 11.3l16.9 11c1.6 1.1 3.1-1.5 1.5-2.6l-16.9-11c-1.6-1-3.1 1.6-1.5 2.6h0z"/></g><path d="M544.2 538.5c4-1.9 10.1 3.4 13.9 6.5 18.5 15.1 19.4 9.8 30 20.7 10.8 11 10.5 17 21.3 23.6 5.1 3.1 9.9 4.7 13.2 5.5 1.9 2.7 4.7 6.7 8.4 11.3 13.3 16.7 20.2 25.4 31 29.4.9.3 18.2 6.5 32.6-1.9 11.5-6.7 11.5-17.4 24.9-52.3 16.9-44 23.7-49.5 28.1-49.1 2.6.2 5 2.6 6.1 4.5 2.3 3.9.5 8.1-1.9 17.8-2.3 9.2-1.8 9.6-3.2 15.2-3.9 14.8-10.9 23-30.7 56.5-3.2 5.3-7.5 12.7-14.9 21.3-6.3 7.4-10.3 11.8-16.5 13.9-10.4 3.5-20.6-1.9-25.5-4.5-6.6-3.5-11.3-7.8-18.7-16.5-6.9-8-15.7-19.3-24.9-33.9-2.1 0-5.4-.4-9-1.9-3.1-1.4-7.1-3.9-16.8-17.8-6.9-9.9-6.8-11.3-10.3-13.6-5.5-3.6-12.3-4.2-15.8-4.5-8.1-.8-12.4.9-14.5-1.9-1.3-1.8-1.4-4.8 0-6.5 3.4-4.2 15 1 15.5-.3.3-.9-4.3-3.3-12.3-8.1-9.5-5.7-12.5-7.9-12.3-10.3.1-1.5 1.2-2.6 2.3-3.1z" opacity=".12" class="U"/><path d="M872.5 500.4c-5.4 1.1-7.5 11.2-9.6 20.7-2.6 12.2-2.8 22.5-2.5 30.3.7 21.5 5.3 42 11.1 54.1 3.1 6.5 5 7.3 8.6 15.7 1.2 2.8 2.1 5.2 4.5 7.1 4.6 3.5 10.6 2.2 11.1 2 6.2-1.5 9.5-6.9 11.1-9.6 4.5-7.7 4.6-15.6 3.5-29.3-1.6-20.7-2.4-31-5.6-41.9-2.8-9.7-7.5-21.9-16.2-34.4-5.2-7.8-10.8-15.7-16-14.7z" class="T"/><path d="M872.6 503.1c5.4-.6 9.3 6 12.1 9.9 2.5 3.5 4.8 7.2 7 10.9 4.3 7.7 7.8 15.8 10.4 24.2 5.2 16.6 7.4 34 7.2 51.4-.1 9 0 20.8-7.6 27.2-3.5 2.9-8.8 4.7-13.1 2.6-4.5-2.2-7.1-8.2-9.4-12.3-9.2-16.6-15-35-17-53.9-2.2-20.5-.7-43 10.6-60.7 1-1.6-1.6-3.1-2.6-1.5-11.6 18.2-13.2 41.3-11 62.2 2.2 21.6 9.3 43.1 21 61.4 4.3 6.7 10.3 10.7 18.3 7.6 8.3-3.2 12-11.5 13.1-19.8 2.8-19.6.1-41.3-5.2-60.3-3.1-11.1-7.5-21.8-13.3-31.8-2.8-4.8-6-9.4-9.4-13.7-2.9-3.6-6.1-7-11-6.5-2 .3-2 3.3-.1 3.1h0z" class="S"/><path d="M875.7 503c-2.6 12.7-3.9 27.4-2.3 43.6 1.6 15.5 5.4 26.9 10.3 41.7 3.9 11.7 9.3 25.5 16.8 40.7-2.1 1.3-5.4 2.8-9 2.3-7.3-1.1-11.6-9.6-14.5-16.2-10.6-23.6-15.9-35.4-16.8-55.6-1.3-27.7 6.1-58.4 12.6-58.5 1.2 0 2.2 1.1 2.9 2z" class="U V"/><path d="M735.1 520.1c-.5 4.3-1 10.4-1.5 17.7-.4 5.5-1.4 21.6-1 36.9.9 30.2 7.5 54.2 11.6 68.7 3.7 13 7.6 23.7 10.6 31.3.3 2.9 1 7 2.5 11.6 7.2 21.6 25.8 32.3 30.3 34.9 22.5 12.6 44.9 8 51.5 6.6 6.6-1.5 27.9-6.4 41.9-25.3 4.6-6.1 8.7-14.1 12.6-35.4 1.8-9.9 6-35.9 3-80.3-3.1-45.2-10.4-62.2-14.7-70.7-3.8-7.7-7.8-13.7-10.6-17.7-23.3-9.6-42.7-9.8-53.6-9.1-18.3 1.2-32.3 6.7-46 12.1-15.5 6.2-27.9 13.2-36.6 18.7z" class="Y"/><g class="S"><path d="M733 522.8c-7.4 52.8.5 106.9 22.6 155.4.8 1.8 3.4.2 2.6-1.5-21.8-47.7-29.6-101.2-22.3-153.1.2-1.9-2.7-2.7-2.9-.8h0z"/><path d="M751.5 670.8c3.6 25.1 21.7 46.8 45.5 55.5 25.4 9.3 55.9 3.8 76.2-14 10.6-9.2 17.9-21.6 19.3-35.7.2-1.9-2.8-1.9-3 0-3.3 33.7-40.6 52.8-71.4 50.9-31.8-1.9-59.2-25.8-63.7-57.6-.3-1.8-3.2-1-2.9.9h0zm-16.7-148c39.7-25 89.4-42.7 135.1-23 1.8.8 3.3-1.8 1.5-2.6-46.8-20.2-97.4-2.7-138.2 23-1.5 1.1 0 3.7 1.6 2.6h0z"/><path d="M869.9 499.5c10.8 9.9 15 26.5 18.1 40.4 3.4 15.2 5.4 30.8 6.7 46.4 2.6 30.9 1.7 62.1-4.5 92.6-.4 1.9 2.5 2.7 2.9.8 6.6-32 7.4-64.7 4.3-97.2-1.5-15.7-3.5-31.6-7.3-47-3.3-13.2-7.7-28.6-18-38.1-1.5-1.3-3.6.8-2.2 2.1h0zM769.2 687.6c12.6 11.5 28.1 18.7 45 20.8 1.9.2 1.9-2.8 0-3-16.1-2-31-9-42.9-20-1.4-1.2-3.6.9-2.1 2.2h0z"/></g><g class="U"><path d="M814.5 490.5l11.2 17.5c7.7 18.7 17.2 46 23.1 80.2 2.9 17.1 5.7 33.1 4.7 53.1-.9 18-5.5 50.6-28.7 88.3 5.1-.1 12.5-.7 20.9-3.4 3.5-1.1 29.3-9.8 41.8-34.3 5.2-10.2 6.1-19.3 6.9-30.3 4.2-59 .3-97.1-1.9-110.2-1.8-10.8-4.4-23.3-11.5-37.5-3.7-7.3-7.6-12.9-10.3-16.5-6.9-3-17.2-6.5-30-7.8-10.5-1-19.5-.2-26.2.9z" opacity=".15"/><path d="M882.9 522.1c-3.6.2-5.4 21.9-6.6 36.5-2.7 33.4-.7 57.5-.3 66.2 1.1 23.4-4.4 57.2-34 101.7 4.7-1.2 11.7-3.5 19.4-7.8 6.6-3.7 16-9 22.8-20 2.3-3.8 5.9-10.7 7.2-20.6a371.25 371.25 0 0 0 5.3-76.5c-1.5-37.6-8.8-79.8-13.8-79.5z" class="V"/></g><path d="M738.2 596.6c5.6 81.5.9 163.2-3.8 244.6-.2 3.9 5.8 3.8 6 0 4.8-81.4 9.4-163.1 3.8-244.6-.3-3.9-6.3-3.9-6 0h0z"/><path d="M740.3 592.9a930.6 930.6 0 0 0 96.6-1.1c26.3-1.6 51-4.3 73.9-7.6l-1.6 76.1c-25.3 5-54.6 9.1-87.4 10.8-29 1.5-55.5.7-78.8-1.1l-2.7-77.1z" stroke="#000" stroke-width="2" stroke-miterlimit="10"/><path d="M906.2 601l-22.1 230.4c-.4 3.8 5.6 3.8 6 0L912.2 601c.4-3.8-5.6-3.8-6 0h0z"/><path d="M725.8 432.8c-.7 2 0 5.9.8 10.9.2 1.4.8 4.2 2.2 8.9 2.5 8.2 5.4 14.2 6.1 15.6 7.1 14.4 15.9 23.7 18.4 26.2 4.2 4.2 8.1 7.4 10.9 9.5l26.2-10.6c3.1-2.3 7.9-6.5 11.1-13.4 5.8-12.5 2.7-26.2-1.9-34.2-16.1-28.1-70.3-22.7-73.8-12.9z" class="T"/><path d="M724.2 440.9c3 13.5 8 26.5 15.2 38.4 3.4 5.6 7.3 10.9 11.5 15.9 3.7 4.4 7.6 8.7 13.5 10.1 1.9.4 2.7-2.5.8-2.9-6.2-1.4-10.4-7.1-14.3-11.9-4-4.9-7.5-10.2-10.6-15.6-6.2-10.9-10.6-22.6-13.2-34.8-.4-1.8-3.3-1-2.9.8h0zm22.6 24.6c-.4-8.7 10-6 13.4-1.5 4 5.2 2.9 16.4-5.9 14.9-1.9-.3-2.7 2.6-.8 2.9 11.3 1.9 15.1-11.9 9.1-19.7-5.2-6.8-19.4-8.3-18.8 3.3.1 2 3.1 2 3 .1h0z" class="S"/><path d="M724.7 438.7c-1.3-4.6-3.5-12 .4-19.3 3.4-6.2 9.3-8.8 11.7-9.6-.1-1.4-.4-9.2 5.6-15.7 6.1-6.5 13.9-6.8 15.3-6.8 2.5-1.9 6.1-4.3 10.9-6 1.7-.6 9.6-3.4 18.9-2 12.8 1.9 15 9.6 29.3 15.7 4.8 2 12.4 4.5 22.9 4.8l-7.6 8.8c1.9 2.1 4.5 5.4 6.4 10 1 2.3 2.8 7.6 2.4 17.7-.4 9.8-2.8 17.7-4.8 24.5-3.6 11.8-5.7 15.3-3.6 20.1 2.3 5.4 7.8 6.9 7.1 9.2-.8 2.5-7.8 2.8-12.7 2.2-7.3-.9-11.9-4.1-12.7-3-1 1.3 5.9 5.9 4.8 8.9-1.3 3.9-14.4 3.3-23.8 1.1-3.2-.7-8.8-2.4-15.4-6.1-8.4-4.7-14-10.5-17.3-14.5 2.5-5.6 2.2-11.8-1.2-16.1-.3-.4-5.3-6.5-11.3-4.8-3.3 1-5.1 3.9-5.6 4.8-4.3-2.4-15.6-9.9-19.7-23.9z" class="W"/><g class="U"><path d="M737 410.5c2.1 6.3 15.8 5.1 26 8.5 7.3 2.4 17 8.7 25.7 26.1-2.4-7.8-13.5-40-39.9-47.2-2.5-.7-5.2-1.2-8.3-1.4-1 1.2-3 4-3.6 7.9 0 .5-.6 3.9.1 6.1z" opacity=".24"/><path d="M758.3 386.7c1.8-1.4 4.4-3.2 7.7-4.6 2.6-1.1 5-1.7 6.9-2.1 5.2 4.5 13.1 10.3 23.8 14.6 18.1 7.3 34.3 6.4 42.6 5.3-1.3 2.4-3.6 5.8-7.4 8.5-13.9 9.9-34.7 1.4-44.6-2.6-6.9-2.8-17.9-8.3-29-19.1z" opacity=".17"/><path d="M807.5 455.5c-1.6.5.5 11.8 1.2 15.2 1.6 7.8 4.1 14.1 6.2 18.3l9.5 3.1c-11.8-30.7-15.6-37-16.9-36.6z" opacity=".14"/><path d="M760.2 467.6c.3 2.5.5 4.8-.8 6.7-1.6 2.3-4.1 1.9-6.3 5.2-.8 1.2-.8 1.8-.6 2.1.5.9 2.6.5 3.6.5 5.2.2 8.3 5.5 11.9 8.6 2.9 2.6 7.9 5.3 16.9 5.5-4.4-2.4-9.5-5.6-14.7-9.9-2.9-2.4-5.5-4.9-7.7-7.2 1-2.2 2.8-7.1.9-12.1-1.4-3.8-4.6-6.5-5-6.2-.5.3 1.3 2.6 1.8 6.8z" opacity=".12"/></g><defs ><path id="B" d="M400 638c43.7-26.4 88.1-52.1 129.7-81.8 1.6-1.1.1-3.7-1.5-2.6-41.6 29.7-86 55.4-129.7 81.8-1.6 1-.1 3.6 1.5 2.6h0z"/><path id="C" d="M436.9 658c43.7-26.4 88.1-52.1 129.7-81.8 1.6-1.1.1-3.7-1.5-2.6-41.6 29.7-86 55.4-129.7 81.8-1.7 1-.2 3.6 1.5 2.6h0z"/></defs></svg>